<?xml version="1.0" encoding="utf-8"?>
<!-- Generator: Adobe Illustrator 21.1.0, SVG Export Plug-In . SVG Version: 6.00 Build 0)  -->
<svg version="1.1" id="Слой_1" xmlns="http://www.w3.org/2000/svg" xmlns:xlink="http://www.w3.org/1999/xlink" x="0px" y="0px"
	 viewBox="0 0 10 16.7" style="enable-background:new 0 0 10 16.7;" xml:space="preserve">
<style type="text/css">
	.st0{fill:#FFFFFF;}
	.st1{fill:#6ACE6A;}
	.st2{fill:#FFFFFF;stroke:#000000;stroke-width:3;stroke-miterlimit:10;}
	.st3{clip-path:url(#XMLID_11_);}
	.st4{clip-path:url(#XMLID_12_);}
	.st5{clip-path:url(#SVGID_2_);}
	.st6{opacity:0.25;clip-path:url(#SVGID_4_);fill:#FFFFFF;}
	.st7{clip-path:url(#XMLID_13_);}
	.st8{clip-path:url(#XMLID_14_);}
	.st9{clip-path:url(#SVGID_6_);}
	.st10{opacity:0.25;clip-path:url(#SVGID_8_);fill:#FFFFFF;}
	.st11{clip-path:url(#XMLID_15_);}
	.st12{clip-path:url(#XMLID_16_);}
	.st13{clip-path:url(#SVGID_10_);}
	.st14{opacity:0.25;clip-path:url(#SVGID_12_);fill:#FFFFFF;}
	.st15{clip-path:url(#XMLID_17_);}
	.st16{clip-path:url(#XMLID_18_);}
	.st17{clip-path:url(#XMLID_19_);}
	.st18{clip-path:url(#SVGID_14_);}
	.st19{fill:none;stroke:#000000;stroke-width:3;stroke-miterlimit:10;}
	.st20{stroke:#000000;stroke-miterlimit:10;}
</style>
<g>
	<path class="st0" d="M6.3,8.4C6.2,8.5,6.1,8.7,6,8.8c-1.7,1.7-3.3,3.4-5,5c-1.3,1.3-1.3,1.3,0,2.5c0.6,0.5,0.8,0.6,1.4,0
		c2.4-2.4,4.8-4.8,7.2-7.2c0.6-0.6,0.6-0.9,0-1.5C7.3,5.3,5.1,3.1,2.8,0.9c-1.2-1.2-1.2-1.2-2.3,0c-0.7,0.7-0.7,0.9,0,1.6
		C2.3,4.3,4.1,6.1,6,7.9C6.1,8.1,6.3,8.2,6.3,8.4z"/>
</g>
</svg>
