<?xml version="1.0" encoding="utf-8"?>
<!-- Generator: Adobe Illustrator 22.0.1, SVG Export Plug-In . SVG Version: 6.00 Build 0)  -->
<svg version="1.1" xmlns="http://www.w3.org/2000/svg" xmlns:xlink="http://www.w3.org/1999/xlink" x="0px" y="0px"
	 viewBox="0 0 1433.3 992.9" style="enable-background:new 0 0 1433.3 992.9;" xml:space="preserve">
<style type="text/css">
	.st0{display:none;}
	.st1{clip-path:url(#XMLID_11_);}
	.st2{fill:none;stroke:#010101;stroke-width:3;stroke-linejoin:round;stroke-miterlimit:10;}
	.st3{clip-path:url(#XMLID_11_);fill:none;stroke:#010101;stroke-linecap:round;stroke-linejoin:round;stroke-miterlimit:10;}
	.st4{clip-path:url(#XMLID_11_);fill:#010101;}
	.st5{clip-path:url(#XMLID_11_);fill:#FFFFFF;}
	.st6{fill:#FFFFFF;stroke:#010101;stroke-width:3;stroke-linejoin:round;stroke-miterlimit:10;}
	.st7{fill:none;stroke:#010101;stroke-width:3;stroke-linecap:round;stroke-linejoin:round;stroke-miterlimit:10;}
	.st8{fill:#010101;}
	.st9{fill:none;stroke:#010101;stroke-width:2;stroke-linecap:round;stroke-linejoin:round;stroke-miterlimit:10;}
	.st10{clip-path:url(#XMLID_13_);fill:#010101;}
	.st11{clip-path:url(#XMLID_14_);}
	.st12{clip-path:url(#XMLID_15_);}
	.st13{clip-path:url(#XMLID_16_);}
	.st14{clip-path:url(#XMLID_17_);}
	.st15{fill:#FFFFFF;}
	.st16{fill:#6ACE6A;}
	.st17{fill:none;stroke:#000000;stroke-width:17;stroke-miterlimit:10;}
	.st18{fill:none;stroke:#000000;stroke-width:17;stroke-miterlimit:10;stroke-dasharray:34.0738,15.4881;}
	.st19{clip-path:url(#SVGID_2_);}
	.st20{fill:#FFFFFF;stroke:#000000;stroke-width:7;stroke-miterlimit:10;}
	.st21{fill:#FCFCFC;}
	.st22{clip-path:url(#XMLID_19_);fill:#010101;}
	.st23{fill:none;stroke:#FFFFFF;stroke-width:17;stroke-miterlimit:10;stroke-dasharray:33,15;}
	.st24{fill:#FFFFFF;stroke:#000000;stroke-width:6;stroke-miterlimit:10;}
	.st25{clip-path:url(#XMLID_20_);}
	.st26{fill:none;stroke:#000000;stroke-width:6;stroke-miterlimit:10;}
	.st27{clip-path:url(#XMLID_21_);}
	.st28{fill:#060606;}
	.st29{fill:#CD7779;}
	.st30{fill:#F4F2F9;}
	.st31{fill:#774F66;}
	.st32{clip-path:url(#XMLID_22_);}
	.st33{clip-path:url(#XMLID_22_);fill:#F4F2F9;}
	.st34{clip-path:url(#XMLID_22_);fill:none;stroke:#6ACE6A;stroke-width:2;stroke-miterlimit:10;}
	.st35{clip-path:url(#XMLID_22_);fill:#6ACE6A;}
	.st36{clip-path:url(#XMLID_23_);}
	.st37{fill:none;stroke:#C0BFC6;stroke-miterlimit:10;}
	.st38{clip-path:url(#SVGID_4_);}
	.st39{clip-path:url(#XMLID_25_);}
	.st40{clip-path:url(#XMLID_26_);fill:#FFFFFF;}
	.st41{clip-path:url(#XMLID_26_);fill:#131011;}
	.st42{clip-path:url(#XMLID_27_);}
	.st43{clip-path:url(#XMLID_28_);}
	.st44{clip-path:url(#XMLID_28_);fill:#6ACE6A;}
	.st45{clip-path:url(#XMLID_28_);fill:none;stroke:#FFFFFF;stroke-width:2;stroke-linejoin:round;stroke-miterlimit:10;}
	.st46{fill:#27262C;}
	.st47{fill:none;stroke:#565656;stroke-miterlimit:10;}
	.st48{fill:#2C2828;}
	.st49{clip-path:url(#XMLID_27_);fill:none;stroke:#000000;stroke-width:6;stroke-miterlimit:10;}
	.st50{clip-path:url(#XMLID_27_);fill:#131011;}
	.st51{clip-path:url(#XMLID_29_);}
	.st52{fill:#FFFFFF;stroke:#060606;stroke-width:4;stroke-miterlimit:10;}
	.st53{fill:#6ACE6A;stroke:#000000;stroke-width:4;stroke-miterlimit:10;}
	.st54{stroke:#060606;stroke-width:4;stroke-miterlimit:10;}
	.st55{fill:#FFFFFF;stroke:#060606;stroke-width:4;stroke-linecap:round;stroke-miterlimit:10;}
	.st56{fill:none;stroke:#010101;stroke-linecap:round;stroke-linejoin:round;stroke-miterlimit:10;}
	.st57{clip-path:url(#XMLID_30_);}
	.st58{clip-path:url(#XMLID_34_);}
	.st59{clip-path:url(#XMLID_64_);fill:#010101;}
	.st60{clip-path:url(#XMLID_65_);fill:#010101;}
	.st61{fill:none;stroke:#000000;stroke-width:17;stroke-miterlimit:10;stroke-dasharray:33,15;}
	.st62{fill:none;stroke:#010101;stroke-width:3;stroke-miterlimit:10;}
	.st63{fill:none;stroke:#FFFFFF;stroke-width:17;stroke-miterlimit:10;}
	.st64{fill:#010101;stroke:#010101;stroke-width:3;stroke-miterlimit:10;}
	.st65{stroke:#FFFFFF;stroke-width:3;stroke-miterlimit:10;}
	.st66{fill:none;stroke:#FFFFFF;stroke-width:3;stroke-miterlimit:10;}
	.st67{stroke:#FFFFFF;stroke-width:6;stroke-miterlimit:10;}
	.st68{stroke:#FFFFFF;stroke-width:14;stroke-miterlimit:10;}
	.st69{fill:#FFFFFF;stroke:#000000;stroke-width:14;stroke-miterlimit:10;}
	.st70{display:inline;opacity:0.4;}
	.st71{fill:#FF2727;}
	.st72{display:inline;}
</style>
<g id="Слой_1" class="st0">
</g>
<g id="Слой_3">
	<g>
		<defs>
			<rect id="XMLID_9_" x="-4.2" y="-60.2" width="1438.3" height="1071"/>
		</defs>
		<clipPath id="XMLID_11_">
			<use xlink:href="#XMLID_9_"  style="overflow:visible;"/>
		</clipPath>
		<path class="st4" d="M1450.6-62.2h-98.2H71.6h-96.1V956.7h18.1c2.7,8,8.6,15.1,14.6,14.9c9-0.3,17.7,3.7,26.7,1.2
			c9.3-2.6,18.5-6.4,28.3-3.4c1.3,0.4,2.1,1,3.2-0.3c8.2-10.9,20.2-5.7,30.1-6.6c4.2-0.4,8.3-5.3,12.3-2.3
			c5.9,4.3,11.4,2.1,17.3,0.5c3.3-0.9,7.7-3.1,9.9-1.7c7.1,4.6,14,2.5,21.2,2.1c4.8-0.2,10.4-0.2,14.7,4.2c3.7,3.7,8.3,4.4,13.2,2.8
			c5.1-1.6,9.5-1.7,14.9,1.7c4.4,2.8,11.2,4.5,17.1,1.9c6.8-3,13.7-1.8,19.6,1.4c6.6,3.6,14.2-1.8,20.4,4.1c1.6,1.5,3-2.9,2.8-4.1
			c-1.2-5.9,0.2-8.6,6.1-9c4.2-0.3,10.3-4.5,12.3-2.6c7.1,6.7,14.3,1.4,21.2,2.2c5.2,0.6,10.5,0.2,15.1,4.2c1.9,1.6,3.9,4.8,7.3,3.6
			c8.8-3,17.2-1.7,25.5,2.3c9.4,4.5,18.6-3.2,28.5-0.1c3.6,1.2,6.1,4.4,10.1,4.5c10.3,0.3,21.2-1.3,29.6,7.4
			c1.6,1.6,2.5-0.1,2.9-0.5c7.9-8.1,19-7,28-11.5c5.3-2.7,10.2-2.3,15.4-2.7c11.8-0.8,22.8,11.1,35.2,2.5c1.1-0.8,4,1,5.8,2.1
			c2.1,1.3,4.5,2.1,6.4,1c11.5-7.2,22.1-2.5,32.9,2.3c21.4,9.5,43,14,65.4,3.8c8.3-3.8,16.9-0.8,23.6,3c10.1,5.6,18.9,0.2,28.1-0.3
			c10.5-0.6,18.4-13,29.9-9.3c15.2,4.8,26.8-11.1,41.8-8.1c2.2,0.5,5.4-5.1,8.4-7.6c1.7-1.4,4.8-3.7,5.7-3c7.5,5.9,16.5,2.6,24.5,5
			c8.7,2.6,17.7,8.2,26.1-1c0.4-0.4,2.3,0.7,3.4,1.1c0.2,0.5,0.5,1.4,0.6,1.4c1.2-0.3,0.8-1.1,0.3-1.8c0.9-0.3,1.8-0.7,2.7-1
			c1.8,3.1,6.3,0.8,7.8,4.6c3.2-3.5,11.2,8.4,11.6-4.2c7.4,0.5,14.7-8.4,23,1.4c2.2,2.5,6.5,6.6,10.2,9.4c5.8,4.3,12.6,2.6,18,6.1
			c18.2,11.9,36.3,5.9,54.5,0.2c5.3-1.1,10.5-4.2,16-1.2c0-1.3,0.1-2.6,0.1-3.9l0.9-0.2l0.9,0.3c3.6,1.7,7.4,4.5,9.9-1.7
			c2.7-1.4,6.5-2.1,7.8-4.4c5.1-9.4,14.3-8.1,20.8-7.3c6.4,0.8,12.8,1.9,19.2,1.6c5.6-0.2,11-0.4,15.8,3.6c2.4,2,4.7,4.3,8.4,3.5
			c8.4-1.8,16.6-1.7,24.7,2.5c9,4.7,18.5-2.5,28.2-0.1c4.1,1,6.6,5.1,10,4.9c10.8-0.7,21,0.5,30.5,6.5c2.3,1.5,4-0.1,5-1.3
			c7.2-7.9,17.9-5.2,25.8-10.1c5.5-3.4,10.9-2.5,16.4-2.3c11.8,0.4,23,9,35.5,3.1c3.4-1.6,6.7,4.4,10.7,2.1
			c12-6.8,22.9-2.1,34.1,2.8c19,8.4,38.6,13.3,58.6,5.2c10.2-4.1,19.9-3.7,29.2,0.5c16.2,7.5,32.5,8.5,48.9,2.5
			c6.7-2.5,13-5,20.3-3.9c4.5,0.7,9.3,1.4,13.6-1.3c-0.1,0.1-0.3,0.2-0.4,0.3c0.2,0.2,0.4,0.4,0.6,0.5c0.3-0.5,0.5-1,0.8-1.6
			c0.1-0.1,0.3-0.2,0.4-0.3l-0.2,0c15.8,0.6,19.9-4.1,23-22h7.2V-62.2z"/>
	</g>
</g>
<g id="Слой_2" class="st0">
</g>
</svg>
