<?xml version="1.0" encoding="utf-8"?>
<!-- Generator: Adobe Illustrator 22.0.1, SVG Export Plug-In . SVG Version: 6.00 Build 0)  -->
<svg version="1.1" xmlns="http://www.w3.org/2000/svg" xmlns:xlink="http://www.w3.org/1999/xlink" x="0px" y="0px"
	 viewBox="0 0 1515.6 1063.9" style="enable-background:new 0 0 1515.6 1063.9;" xml:space="preserve">
<style type="text/css">
	.st0{display:none;}
	.st1{clip-path:url(#XMLID_11_);}
	.st2{fill:none;stroke:#010101;stroke-width:3;stroke-linejoin:round;stroke-miterlimit:10;}
	.st3{clip-path:url(#XMLID_11_);fill:none;stroke:#010101;stroke-linecap:round;stroke-linejoin:round;stroke-miterlimit:10;}
	.st4{clip-path:url(#XMLID_11_);fill:#010101;}
	.st5{clip-path:url(#XMLID_11_);fill:#FFFFFF;}
	.st6{fill:#FFFFFF;stroke:#010101;stroke-width:3;stroke-linejoin:round;stroke-miterlimit:10;}
	.st7{fill:none;stroke:#010101;stroke-width:3;stroke-linecap:round;stroke-linejoin:round;stroke-miterlimit:10;}
	.st8{fill:#010101;}
	.st9{fill:none;stroke:#010101;stroke-width:2;stroke-linecap:round;stroke-linejoin:round;stroke-miterlimit:10;}
	.st10{clip-path:url(#XMLID_13_);fill:#010101;}
	.st11{clip-path:url(#XMLID_14_);fill:#010101;}
	.st12{clip-path:url(#XMLID_15_);}
	.st13{clip-path:url(#XMLID_16_);}
	.st14{clip-path:url(#XMLID_17_);}
	.st15{clip-path:url(#XMLID_18_);}
	.st16{fill:#FFFFFF;}
	.st17{fill:#6ACE6A;}
	.st18{fill:none;stroke:#000000;stroke-width:17;stroke-miterlimit:10;}
	.st19{fill:none;stroke:#000000;stroke-width:17;stroke-miterlimit:10;stroke-dasharray:34.0738,15.4881;}
	.st20{clip-path:url(#SVGID_2_);}
	.st21{fill:#FFFFFF;stroke:#000000;stroke-width:7;stroke-miterlimit:10;}
	.st22{fill:#FCFCFC;}
	.st23{clip-path:url(#XMLID_20_);fill:#010101;}
	.st24{fill:none;stroke:#FFFFFF;stroke-width:17;stroke-miterlimit:10;stroke-dasharray:33,15;}
	.st25{fill:#FFFFFF;stroke:#000000;stroke-width:6;stroke-miterlimit:10;}
	.st26{clip-path:url(#XMLID_21_);}
	.st27{fill:none;stroke:#000000;stroke-width:6;stroke-miterlimit:10;}
	.st28{clip-path:url(#XMLID_22_);}
	.st29{fill:#060606;}
	.st30{fill:#CD7779;}
	.st31{fill:#F4F2F9;}
	.st32{fill:#774F66;}
	.st33{clip-path:url(#XMLID_23_);}
	.st34{clip-path:url(#XMLID_23_);fill:#F4F2F9;}
	.st35{clip-path:url(#XMLID_23_);fill:none;stroke:#6ACE6A;stroke-width:2;stroke-miterlimit:10;}
	.st36{clip-path:url(#XMLID_23_);fill:#6ACE6A;}
	.st37{clip-path:url(#XMLID_24_);}
	.st38{fill:none;stroke:#C0BFC6;stroke-miterlimit:10;}
	.st39{clip-path:url(#SVGID_4_);}
	.st40{clip-path:url(#XMLID_26_);}
	.st41{clip-path:url(#XMLID_27_);fill:#FFFFFF;}
	.st42{clip-path:url(#XMLID_27_);fill:#131011;}
	.st43{clip-path:url(#XMLID_28_);}
	.st44{clip-path:url(#XMLID_29_);}
	.st45{clip-path:url(#XMLID_29_);fill:#6ACE6A;}
	.st46{clip-path:url(#XMLID_29_);fill:none;stroke:#FFFFFF;stroke-width:2;stroke-linejoin:round;stroke-miterlimit:10;}
	.st47{fill:#27262C;}
	.st48{fill:none;stroke:#565656;stroke-miterlimit:10;}
	.st49{fill:#2C2828;}
	.st50{clip-path:url(#XMLID_28_);fill:none;stroke:#000000;stroke-width:6;stroke-miterlimit:10;}
	.st51{clip-path:url(#XMLID_28_);fill:#131011;}
	.st52{clip-path:url(#XMLID_30_);}
	.st53{fill:#FFFFFF;stroke:#060606;stroke-width:4;stroke-miterlimit:10;}
	.st54{fill:#6ACE6A;stroke:#000000;stroke-width:4;stroke-miterlimit:10;}
	.st55{stroke:#060606;stroke-width:4;stroke-miterlimit:10;}
	.st56{fill:#FFFFFF;stroke:#060606;stroke-width:4;stroke-linecap:round;stroke-miterlimit:10;}
	.st57{fill:none;stroke:#010101;stroke-linecap:round;stroke-linejoin:round;stroke-miterlimit:10;}
	.st58{clip-path:url(#XMLID_33_);}
	.st59{clip-path:url(#XMLID_63_);}
	.st60{clip-path:url(#XMLID_65_);fill:#010101;}
	.st61{fill:none;stroke:#000000;stroke-width:17;stroke-miterlimit:10;stroke-dasharray:33,15;}
	.st62{fill:none;stroke:#010101;stroke-width:3;stroke-miterlimit:10;}
	.st63{fill:none;stroke:#FFFFFF;stroke-width:17;stroke-miterlimit:10;}
	.st64{fill:#010101;stroke:#010101;stroke-width:3;stroke-miterlimit:10;}
	.st65{stroke:#FFFFFF;stroke-width:3;stroke-miterlimit:10;}
	.st66{fill:none;stroke:#FFFFFF;stroke-width:3;stroke-miterlimit:10;}
	.st67{stroke:#FFFFFF;stroke-width:6;stroke-miterlimit:10;}
	.st68{stroke:#FFFFFF;stroke-width:14;stroke-miterlimit:10;}
	.st69{fill:#FFFFFF;stroke:#000000;stroke-width:14;stroke-miterlimit:10;}
	.st70{display:inline;opacity:0.4;}
	.st71{fill:#FF2727;}
	.st72{display:inline;}
</style>
<g id="Слой_1" class="st0">
</g>
<g id="Слой_3">
	<g>
		<defs>
			<rect id="XMLID_9_" y="-7.5" width="1515.6" height="1090.9"/>
		</defs>
		<clipPath id="XMLID_11_">
			<use xlink:href="#XMLID_9_"  style="overflow:visible;"/>
		</clipPath>
		<path class="st4" d="M2464.3,500.8c0.2-2.5-0.2-4.6-1-6.5c0.2-0.6,0.3-1.3,0.5-1.9c2.2-8.9,1.6-17,0.9-25.1
			c1.9-12.5-1.2-23.8-0.5-35.6c0.2-2.5-0.2-4.6-1-6.5c0.2-0.6,0.3-1.3,0.5-1.9c3.6-14.4-0.4-27,0.5-40.3c0.3-3.9-0.9-6.9-2.5-9.5
			c-0.3-0.4-0.5-0.9-0.8-1.4c0-0.6-0.1-1.1-0.2-1.8c0-0.1,0-0.2,0-0.3c0-0.6,0-1.3-0.1-1.9c-0.4-6.4-0.4-13-0.7-19.5
			c0.1-2.6,0.2-5.1,0.4-7.7h-1.3c-0.2-3.7-0.6-7.5-1.4-11.3c-2.7-12.6-7.6-25.2-8.6-37.7c0.9-3.1,1.8-6.2,2.7-9.4
			c4.8-17.4,6.5-35.1,2.7-52.4c-0.3-1.3-0.5-2.5-0.8-3.8c2.6-11.7,3.6-23.5,2.4-35.2c1-10.1,0.6-20.2-1.6-30.1
			c-0.3-1.3-0.5-2.5-0.8-3.8c3.3-14.9,4.1-30.1,0.8-44.9c-2.7-12.1-4.3-23.8-5.3-36.3c-1.1-14.4-4-29.6-11.1-42.8
			c-0.9-1.7-0.8-3.6-3.2-4.2c-14.6-3.5-28.8-10.7-44.4-6.2c-4.4,1.3-9.5,3.2-13.5,1.9c-11.9-3.7-24.2-4.3-36.3-7.1
			c-2.7-0.6-5.2-3.8-8-1.9c-11.9,8.2-23.1,9.9-33.4-3.1c-1.4-1.8-2.8,0.2-4.3,0.2c-4.1,0.3-7.5,3.3-11.1,4.1
			c-7.6,1.6-15.1,8.7-22.2,6c-6.6-2.6-12.4-1.4-18.7-1.9c-12-1-24.2,0.1-36-4.5c-5.4-2.1-13.5-4.7-16.9-2c-6,4.9-11.9,5.1-18,4.5
			c-3.4-0.3-5.6,0-6.6,3.5c-2,6.6-6,7.4-11.2,5.2c-12.2-5.1-24.6-4.6-37.2-2.3c-11.2,2.1-22-2-32.9-3.6c-8.4-1.3-15.8-5.8-24.9,0.5
			c-7.6,5.3-21.2,2.5-24.6-2.5c-6.9-10.2-12-3.4-17.1-1.5c-9.3,3.4-18.3,8-28.4,4.9c-6.3-1.9-12.3,0.2-18.5,0.8
			c-1.4,0.1-2.4,1.9-4.3,1.1c-11-4.9-23-4-34.3-7.4c-4.8-1.5-10.5-3.4-15.1,2.7c-1.3,1.7-5.4,1.8-8,1.3c-9-1.6-17.9-3.1-26.6,0.6
			c-5.6,2.4-13.4-1.5-15.2-0.4c-7.1,4.5-13.5-1.4-20.1,1.1c-3.7,1.4-8.5,0.3-12-3.4c-4.3-4.5-9.2-3.9-14.8-3.1
			c-3.4,0.5-7,3.2-10.9,0.1c-6.9-5.6-14.9-4.7-22.7-3.3c-6.3,1.2-12.3,0-18.2-1.4c-6.6-1.5-13.7-7.1-16.6,5.4
			c-0.5,2.1-2.5,4.3-5,3.9c-8.8-1.4-19.4,4.1-25.5-8c-1.1-2.1-2.6-0.5-4.1-0.4c-4,0.5-7.5,2.6-11.3,4c-7.4,2.6-16,8.3-22.1,6.1
			c-12.4-4.7-24.5,1.3-36.6-2.5c-5.5-1.7-11.7-1.5-17.6-2.9c-7.6-1.8-15.4-7-23,0.9c-1.6,1.7-5.3,1.5-8,1.3
			c-5.5-0.4-10.9-2.3-13.3,6.4c-1,3.5-5.5,3.2-9.3,1.9c-9.6-3.3-19.2-7.4-29.6-3.9c-2-4.6-3.2-2.4-4.3,0.6c-2.4,0.2-4.8,0.5-7.2,0.7
			c-2.6-9.1-6.6-8.7-11.4-2c-6.8,1.8-13-0.9-19.6-2.1c-7.6-1.4-14.5-5.6-23.1,0.8c-5.7,4.3-16.2,3.9-21.9-2.2
			c-7-7.5-13.1-4.9-19.9-1.9c-9.1,4-18.2,8.2-28.4,5c-4-1.3-7.9-0.7-11.9,0c-12.1,2-23.8-1.2-35.5-3.4c-8.6-1.6-16.9-7.2-25.4,1.1
			c-1.6,1.6-5.5,1.2-8.2,0.7c-4.5-0.7-8.9-1.2-13.4-1.1c-5.1-0.8-10.3-1.6-15.4-2.8c-2.7-0.6-5.2-3.8-8-1.9
			c-4.7,3.2-9.2,5.4-13.7,6.1c-1.7,0-3.4,0.1-5.1,0.1c-5-0.6-9.9-3.5-14.5-9.4c-1.4-1.8-2.8,0.2-4.3,0.2c-3.3,0.2-6.1,2.2-8.9,3.3
			c-9.4,0.8-18.2-2.9-27.2-3.2c-12.8-0.4-25.6,0.4-38.2-2.4c-7.9-1.7-16.2-3.4-23.4-7.1c-3.8-1.9-7.8-2.1-9-0.2
			c-5.3,8.6-14.2,5.7-21,8.9c-13.3,6.1-27.7,3.7-41.7,4.4c-2.3,0.1-5.2-3.9-7-3.2c-13.4,5.1-14.5,5.4-24.6,3.3
			c-0.8-0.2-2.2,0-2.6,0.6c-3.5,5-7.1,1.6-10.7,0.4c-5.6-3-11.7-2.4-17.6-2.9c-4.3,3.3-8.6,6.7-13,9.7c-0.2,0.2-0.4,0.3-0.7,0.5
			c-6.2,0.1-12.4-2.2-14.6-5.3c-6.9-10.2-12-3.4-17.1-1.5c-9.3,3.4-18.3,8-28.4,4.9c-6.3-1.9-12.3,0.2-18.5,0.8
			c-1.4,0.1-2.4,1.9-4.3,1.1c-11-4.9-23-4-34.3-7.4c-4.8-1.5-10.5-3.4-15.1,2.7c-1.3,1.7-5.4,1.8-8,1.3c-9-1.6-17.9-3.1-26.6,0.6
			c-5.6,2.4-13.4-1.5-15.2-0.4c-7.1,4.5-13.5-1.4-20.1,1.1c-3.7,1.4-8.5,0.3-12-3.4c-4.3-4.5-9.2-3.9-14.8-3.1
			c-3.4,0.5-7,3.2-10.9,0.1c-6.9-5.6-14.9-4.7-22.7-3.3c-6.3,1.2-12.3,0-18.2-1.4c-6.6-1.5-13.7-7.1-16.6,5.4
			c-0.5,2.1-2.5,4.3-5,3.9c-8.8-1.4-19.4,4.1-25.5-8c-1.1-2.1-2.6-0.5-4.1-0.4c-4,0.5-7.5,2.6-11.3,4c-7.4,2.6-16,8.3-22.1,6.1
			c-12.4-4.7-24.5,1.3-36.6-2.5c-5.5-1.7-11.7-1.5-17.6-2.9c-7.6-1.8-15.4-7-23,0.9c-1.6,1.7-5.3,1.5-8,1.3
			c-5.5-0.4-10.9-2.3-13.3,6.4c-1,3.5-5.5,3.2-9.3,1.9c-9.6-3.3-19.2-7.4-29.6-3.9c-2-4.6-3.2-2.4-4.3,0.6c-2.4,0.2-4.8,0.5-7.2,0.7
			c-2.6-9.1-6.6-8.7-11.4-2c-6.8,1.8-13-0.9-19.6-2.1c-7.6-1.4-14.5-5.6-23.1,0.8c-5.7,4.3-16.2,3.9-21.9-2.2
			c-7-7.5-13.1-4.9-19.9-1.9c-9.1,4-18.2,8.2-28.4,5c-4-1.3-7.9-0.7-11.9,0c-12.1,2-23.8-1.2-35.5-3.4c-8.6-1.6-16.9-7.2-25.4,1.1
			c-1.6,1.6-5.5,1.2-8.2,0.7c-7.9-1.2-15.5-2-23.7,0.4c-5.3,1.6-11.8,0.7-17.6,0.3c-7.5-0.6-16.4-0.2-24.6,0.5
			c-6,0.5-8.8-8.1-13.7-7c-10.8,2.3-20.8-2.4-31-2.7c-12.8-0.4-25.6,0.4-38.2-2.4c-7.9-1.7-16.2-3.4-23.4-7.1
			c-3.8-1.9-7.8-2.1-9-0.2c-5.3,8.6-14.2,5.7-21,8.9c-13.3,6.1-27.7,3.7-41.7,4.4c-2.3,0.1-5.2-3.9-7-3.2C26.2,18.3,25,18.7,15,16.5
			c-0.8-0.2-2.2,0-2.6,0.6c-3.5,5-7.1,1.6-10.7,0.4c-5.6-3-11.7-2.4-17.6-2.9c-4.3,3.3-8.6,6.7-13,9.7c-9.5,6.6-16,15.7-13.7,28.3
			c1.1,6.2,1.4,12.2,0.9,18.1c-0.5,5.4-0.1,10.5,1.1,15.3c-2.1,4.4-3,9.5-1.9,15.4c0.5,2.5,0.8,5,1,7.4c-1.2,3.3-1.7,6.9-1.3,10.8
			c-2.9,6.5-3.7,13.7,0.1,19.9c0.4,0.6,0.7,1.2,1,1.7c-0.3,4.9,0.1,9.5,1.2,13.9c-1.9,3.9-2.8,8.2-2.3,13.2
			c-2.4,5.4-3.4,11.3-1.5,16.6c-0.1,2.8-0.1,5.6-0.2,8.4c-1,3.7-1.2,7.5-0.1,11.1c0,9.3,0,18.6,0.3,27.9c-0.1,3.3-0.1,6.5-0.2,9.8
			c-1,3.7-1.2,7.5-0.1,11.1c0,4.9,0,9.9,0,14.8c-0.1,11.2-0.1,22.3,0.3,33.5c-0.3,13.1-0.4,26.2-0.2,39.3h-3.1
			c0.1,2.3,0.2,4.5,0.5,6.8c-0.1,2.4-0.1,4.8,0,7.3c0.5,7.8-3.2,16.5-1.4,26c0.3,1.5,0.5,3,0.6,4.5c-0.8,5-1.6,10.3-0.6,16
			c1,5.2,0.7,10.3,1.4,15.5c-0.1,2.4-0.1,4.8,0,7.2c0.5,7.8-3.2,16.5-1.4,26c1.7,9-0.3,18,5.2,27.3c0.8,1.4,1.5,2.8,2,4.3
			c0,0.1,0,0.2-0.1,0.3c0,0.2-0.1,0.4-0.1,0.6c-1.4,3.4-2,7.2-1.5,11.5c-2.4,5.4-3.4,11.3-1.5,16.6c-0.1,2.8-0.1,5.6-0.2,8.4
			c-1,3.7-1.2,7.5-0.1,11.1c0,9.3,0,18.6,0.3,27.9c-0.1,3.3-0.1,6.5-0.2,9.8c-0.5,1.9-0.8,3.8-0.8,5.8h1v50.2h-3.1
			c0.3,4.3,0.9,8.6,3.1,13v17.1h1.6c-0.3,4.7-0.1,9.3,0.7,13.9c-1.6,9.6-1.1,19.1,2,28c0.1,0.4,0.3,0.8,0.4,1.2
			c-0.1,5.3-0.5,10.5-1.7,15.7c-2.4,10.9-2.3,21.7,1.3,31.8c3.8,10.8,5.3,22,6.4,33.3c-5.3,21.7-8,42.9-3.4,64.7
			c-2.1,11.9-3,23.7-1.9,35.6c-0.9,11.1-0.5,22.2,1.9,33.5c-3.1,17.7-3.6,35.3,1.1,53.4c0.7,2.7,2.6,5.4,3.5,8
			c0,1.2,0.2,2.3,0.4,3.5c-2.8,13.9,2.2,27.5-0.2,41.4c-1.8,10.9,7,27.1,15.9,26.7c9-0.3,17.7,3.8,26.7,1.2
			c9.3-2.6,18.5-6.4,28.3-3.4c1.3,0.4,2.1,1.1,3.2-0.3c8.2-10.9,20.2-5.7,30.1-6.7c4.2-0.4,8.3-5.3,12.3-2.3
			c5.9,4.4,11.4,2.1,17.3,0.5c3.3-0.9,7.7-3.1,9.9-1.7c7.1,4.7,14,2.5,21.2,2.1c4.8-0.2,10.4-0.2,14.7,4.2c3.7,3.7,8.3,4.4,13.2,2.9
			c5.1-1.6,9.5-1.7,14.9,1.7c4.4,2.8,11.2,4.5,17.1,1.9c6.8-3,13.7-1.8,19.6,1.4c6.6,3.6,14.2-1.8,20.4,4.1c1.6,1.5,3-2.9,2.8-4.1
			c-1.2-5.9,0.2-8.7,6.1-9c4.2-0.3,10.3-4.5,12.3-2.7c7.1,6.7,14.3,1.4,21.2,2.2c5.2,0.6,10.5,0.2,15.1,4.2c1.9,1.7,3.9,4.8,7.3,3.6
			c8.8-3,17.2-1.7,25.5,2.3c9.4,4.5,18.6-3.3,28.5-0.1c3.6,1.2,6.1,4.4,10.1,4.6c10.3,0.3,21.2-1.3,29.6,7.5
			c1.6,1.6,2.5-0.1,2.9-0.5c7.9-8.2,19-7,28-11.6c5.3-2.7,10.2-2.3,15.4-2.7c11.8-0.8,22.8,11.2,35.2,2.5c1.1-0.8,4,1,5.8,2.1
			c2.1,1.3,4.5,2.2,6.4,1c11.5-7.2,22.1-2.5,32.9,2.3c21.4,9.6,43,14.1,65.4,3.8c8.3-3.9,16.9-0.8,23.6,3
			c10.1,5.7,18.9,0.2,28.1-0.3c10.5-0.6,18.4-13.1,29.9-9.4c15.2,4.9,26.8-11.2,41.8-8.1c2.2,0.5,5.4-5.2,8.4-7.7
			c1.7-1.4,4.8-3.7,5.7-3c7.5,5.9,16.5,2.6,24.5,5c8.7,2.6,17.7,8.3,26.1-1c0.4-0.5,2.3,0.7,3.4,1.1c0.2,0.5,0.5,1.4,0.6,1.4
			c1.2-0.3,0.8-1.1,0.3-1.8c0.9-0.3,1.8-0.7,2.7-1c1.8,3.1,6.3,0.8,7.8,4.7c3.2-3.6,11.2,8.5,11.6-4.3c7.4,0.5,14.7-8.4,23,1.4
			c2.2,2.6,6.5,6.7,10.2,9.5c5.8,4.4,12.6,2.6,18,6.1c18.2,12,36.3,6,54.5,0.2c5.3-1.1,10.5-4.2,16-1.2c0-1.3,0.1-2.6,0.1-4l0.9-0.2
			l0.9,0.3c3.6,1.7,7.4,4.5,9.9-1.7c2.7-1.4,6.5-2.1,7.8-4.5c5.1-9.5,14.3-8.2,20.8-7.4c6.4,0.8,12.8,1.9,19.2,1.6
			c5.6-0.2,11-0.4,15.8,3.6c2.4,2,4.7,4.3,8.4,3.5c4-0.9,8-1.3,11.9-1c2.5,2.6,5.4,4.2,8.2,4.1c2.3-0.1,4.6,0.1,6.9,0.4
			c1.4,0.4,2.9,0.6,4.4,0.7c5.1,0.8,10.2,1.6,15.4,0.1c2.1-0.6,4.1-1.2,6.2-1.8c4,1,6.5,5.1,9.9,4.9c10.8-0.7,21,0.5,30.5,6.6
			c2.3,1.5,4-0.1,5-1.3c7.2-7.9,17.9-5.3,25.8-10.2c5.5-3.4,10.9-2.6,16.4-2.4c11.8,0.4,23,9.1,35.5,3.1c3.4-1.6,6.7,4.4,10.7,2.1
			c12-6.8,22.9-2.2,34.1,2.9c19,8.4,38.6,13.3,58.6,5.2c10.2-4.2,19.9-3.7,29.2,0.5c16.2,7.5,32.5,8.6,48.9,2.5
			c6.7-2.5,13-5.1,20.3-3.9c4.5,0.7,9.3,1.4,13.6-1.3c-0.1,0.1-0.3,0.2-0.4,0.3c0.2,0.2,0.4,0.4,0.6,0.5c0.3-0.5,0.5-1,0.8-1.6
			c0.1-0.1,0.3-0.2,0.4-0.3l-0.2,0c3.4,0.1,6.2,0,8.6-0.4c9.2,0,18.7-0.4,26.2,7.4c1.6,1.6,2.5-0.1,2.9-0.5c7.9-8.2,19-7,28-11.6
			c5.3-2.7,10.2-2.3,15.4-2.7c11.8-0.8,22.8,11.2,35.2,2.5c1.1-0.8,4,1,5.8,2.1c2.1,1.3,4.5,2.2,6.4,1c11.5-7.2,22.1-2.5,32.9,2.3
			c21.4,9.6,43,14.1,65.4,3.8c8.3-3.9,16.9-0.8,23.6,3c10.1,5.7,18.9,0.2,28.1-0.3c10.5-0.6,18.4-13.1,29.9-9.4
			c15.2,4.9,26.8-11.2,41.8-8.1c2.2,0.5,5.4-5.2,8.4-7.7c1.7-1.4,4.8-3.7,5.7-3c7.5,5.9,16.5,2.6,24.5,5c8.7,2.6,17.7,8.3,26.1-1
			c0.4-0.5,2.3,0.7,3.4,1.1c0.2,0.5,0.5,1.4,0.6,1.4c1.2-0.3,0.8-1.1,0.3-1.8c0.9-0.3,1.8-0.7,2.7-1c1.8,3.1,6.3,0.8,7.8,4.7
			c3.2-3.6,11.2,8.5,11.6-4.3c7.4,0.5,14.7-8.4,23,1.4c2.2,2.6,6.5,6.7,10.2,9.5c5.8,4.4,12.6,2.6,18,6.1c18.2,12,36.3,6,54.5,0.2
			c5.3-1.1,10.5-4.2,16-1.2c0-1.3,0.1-2.6,0.1-4l0.9-0.2l0.9,0.3c3.6,1.7,7.4,4.5,9.9-1.7c2.7-1.4,6.5-2.1,7.8-4.5
			c5.1-9.5,14.3-8.2,20.8-7.4c6.4,0.8,12.8,1.9,19.2,1.6c5.6-0.2,11-0.4,15.8,3.6c2.4,2,4.7,4.3,8.4,3.5c8.4-1.8,16.6-1.7,24.7,2.5
			c9,4.7,18.5-2.5,28.2-0.1c4.1,1,6.6,5.2,10,4.9c10.8-0.7,21,0.5,30.5,6.6c2.3,1.5,4-0.1,5-1.3c7.2-7.9,17.9-5.3,25.8-10.2
			c5.5-3.4,10.9-2.6,16.4-2.4c11.8,0.4,23,9.1,35.5,3.1c3.4-1.6,6.7,4.4,10.7,2.1c12-6.8,22.9-2.2,34.1,2.9
			c19,8.4,38.6,13.3,58.6,5.2c10.2-4.2,19.9-3.7,29.2,0.5c16.2,7.5,32.5,8.6,48.9,2.5c6.7-2.5,13-5.1,20.3-3.9
			c4.5,0.7,9.3,1.4,13.6-1.3c-0.1,0.1-0.3,0.2-0.4,0.3c0.2,0.2,0.4,0.4,0.6,0.5c0.3-0.5,0.5-1,0.8-1.6c0.1-0.1,0.3-0.2,0.4-0.3
			l-0.2,0c15.8,0.6,20-4.2,23-22.3c1.9-11.3-2-22.1-0.3-33.1c0.7-4.4,0.5-8.5-0.3-12.5c0.2-1,0.4-2.1,0.6-3.2
			c1.1-6.4,0.3-12.7-0.3-18.9c0.1-0.5,0.2-1,0.3-1.5c0.6-3.7,0.6-7.4,0.4-11.1c3.2-6.5,4.2-13.8,0-21.4c-0.2-0.4-0.4-0.8-0.6-1.3
			c0.5-4.1,0.4-8-0.4-11.7c0.2-1,0.4-2.1,0.6-3.2c0.6-3.7,0.6-7.4,0.4-11.1c2.4-4.8,3.5-10.1,2.3-15.6c-0.4-2.8-0.7-5.5-0.8-8.3
			c1.6-4.6,1.9-9.5,0.1-14.6c0.3-7.6,0.9-15.3,0.8-23c0.3-0.9,0.1-1.6,0-2.6c0-0.1,0-0.2,0-0.3c0-0.6,0-1.3-0.1-1.9
			c-0.1-2.6-0.2-5.1-0.3-7.7c0.9-3.3,1.2-6.8,0.4-10.3c0-0.1,0-0.1,0-0.2c-0.3-1.8-0.5-3.7-0.6-5.5c0.4-8.3,1-16.6,0.5-24.9
			c-0.1-1-0.1-2-0.1-3c0.2-4.2,0.4-8.5,0.3-12.7c0.3-0.8,0.1-1.6,0-2.6c0-0.1,0-0.2,0-0.3c0-0.6,0-1.3-0.1-1.9
			c-0.4-6.4-0.4-13-0.7-19.5c0.4-9.7,1.3-19.5,0.7-29.2c0-0.4,0-0.9-0.1-1.3c1-4.2,2.1-8.3,3.1-12.4c3.6-14.4-0.4-27,0.5-40.3
			c0.2-2.5-0.2-4.6-1-6.5c0.2-0.6,0.3-1.3,0.5-1.9c2.2-8.9,1.6-17,0.9-25.1c0.2-1.6,0.4-3.3,0.5-4.9h-1.4V558h-3
			c0-1.1-0.1-2.1-0.1-3.2c0-0.4,0-0.9-0.1-1.3c1-4.2,2.1-8.3,3.1-12.4C2467.5,526.7,2463.5,514.1,2464.3,500.8z"/>
	</g>
</g>
<g id="Слой_2" class="st0">
</g>
</svg>
