<?xml version="1.0" encoding="utf-8"?>
<!-- Generator: Adobe Illustrator 22.0.1, SVG Export Plug-In . SVG Version: 6.00 Build 0)  -->
<svg version="1.1" xmlns="http://www.w3.org/2000/svg" xmlns:xlink="http://www.w3.org/1999/xlink" x="0px" y="0px"
	 viewBox="0 0 1590.8 859.9" style="enable-background:new 0 0 1590.8 859.9;" xml:space="preserve">
<style type="text/css">
	.st0{display:none;}
	.st1{clip-path:url(#XMLID_9_);fill:#010101;}
	.st2{clip-path:url(#XMLID_10_);}
	.st3{clip-path:url(#XMLID_11_);}
	.st4{clip-path:url(#XMLID_12_);}
	.st5{fill:#010101;}
	.st6{clip-path:url(#XMLID_13_);}
	.st7{fill:#FFFFFF;}
	.st8{fill:#6ACE6A;}
	.st9{fill:none;stroke:#000000;stroke-width:17;stroke-miterlimit:10;}
	.st10{fill:none;stroke:#000000;stroke-width:17;stroke-miterlimit:10;stroke-dasharray:34.0738,15.4881;}
	.st11{clip-path:url(#SVGID_2_);}
	.st12{fill:#FFFFFF;stroke:#000000;stroke-width:7;stroke-miterlimit:10;}
	.st13{fill:#FCFCFC;}
	.st14{clip-path:url(#XMLID_15_);fill:#010101;}
	.st15{clip-path:url(#XMLID_16_);fill:#010101;}
	.st16{fill:none;stroke:#FFFFFF;stroke-width:17;stroke-miterlimit:10;stroke-dasharray:33,15;}
	.st17{fill:#FFFFFF;stroke:#000000;stroke-width:6;stroke-miterlimit:10;}
	.st18{clip-path:url(#XMLID_17_);}
	.st19{fill:none;stroke:#000000;stroke-width:6;stroke-miterlimit:10;}
	.st20{clip-path:url(#XMLID_18_);}
	.st21{fill:#060606;}
	.st22{fill:#CD7779;}
	.st23{fill:#F4F2F9;}
	.st24{fill:#774F66;}
	.st25{clip-path:url(#XMLID_19_);}
	.st26{clip-path:url(#XMLID_19_);fill:#F4F2F9;}
	.st27{clip-path:url(#XMLID_19_);fill:none;stroke:#6ACE6A;stroke-width:2;stroke-miterlimit:10;}
	.st28{clip-path:url(#XMLID_19_);fill:#6ACE6A;}
	.st29{clip-path:url(#XMLID_20_);}
	.st30{fill:none;stroke:#C0BFC6;stroke-miterlimit:10;}
	.st31{clip-path:url(#SVGID_4_);}
	.st32{clip-path:url(#XMLID_22_);}
	.st33{clip-path:url(#XMLID_23_);fill:#FFFFFF;}
	.st34{clip-path:url(#XMLID_23_);fill:#131011;}
	.st35{clip-path:url(#XMLID_24_);}
	.st36{clip-path:url(#XMLID_25_);}
	.st37{clip-path:url(#XMLID_25_);fill:#6ACE6A;}
	.st38{clip-path:url(#XMLID_25_);fill:none;stroke:#FFFFFF;stroke-width:2;stroke-linejoin:round;stroke-miterlimit:10;}
	.st39{fill:#27262C;}
	.st40{fill:none;stroke:#565656;stroke-miterlimit:10;}
	.st41{fill:#2C2828;}
	.st42{clip-path:url(#XMLID_24_);fill:none;stroke:#000000;stroke-width:6;stroke-miterlimit:10;}
	.st43{clip-path:url(#XMLID_24_);fill:#131011;}
	.st44{clip-path:url(#XMLID_26_);}
	.st45{fill:#FFFFFF;stroke:#060606;stroke-width:4;stroke-miterlimit:10;}
	.st46{fill:#6ACE6A;stroke:#000000;stroke-width:4;stroke-miterlimit:10;}
	.st47{stroke:#060606;stroke-width:4;stroke-miterlimit:10;}
	.st48{fill:#FFFFFF;stroke:#060606;stroke-width:4;stroke-linecap:round;stroke-miterlimit:10;}
	.st49{fill:none;stroke:#010101;stroke-linecap:round;stroke-linejoin:round;stroke-miterlimit:10;}
	.st50{clip-path:url(#XMLID_27_);}
	.st51{fill:none;stroke:#010101;stroke-width:3;stroke-linejoin:round;stroke-miterlimit:10;}
	.st52{fill:#FFFFFF;stroke:#010101;stroke-width:3;stroke-linejoin:round;stroke-miterlimit:10;}
	.st53{fill:none;stroke:#010101;stroke-width:3;stroke-linecap:round;stroke-linejoin:round;stroke-miterlimit:10;}
	.st54{fill:none;stroke:#010101;stroke-width:2;stroke-linecap:round;stroke-linejoin:round;stroke-miterlimit:10;}
	.st55{clip-path:url(#XMLID_29_);}
	.st56{clip-path:url(#XMLID_33_);fill:#010101;}
	.st57{fill:none;stroke:#000000;stroke-width:17;stroke-miterlimit:10;stroke-dasharray:33,15;}
	.st58{fill:none;stroke:#010101;stroke-width:3;stroke-miterlimit:10;}
	.st59{fill:none;stroke:#FFFFFF;stroke-width:17;stroke-miterlimit:10;}
	.st60{fill:#010101;stroke:#010101;stroke-width:3;stroke-miterlimit:10;}
	.st61{stroke:#FFFFFF;stroke-width:3;stroke-miterlimit:10;}
	.st62{fill:none;stroke:#FFFFFF;stroke-width:3;stroke-miterlimit:10;}
	.st63{stroke:#FFFFFF;stroke-width:6;stroke-miterlimit:10;}
	.st64{stroke:#FFFFFF;stroke-width:14;stroke-miterlimit:10;}
	.st65{fill:#FFFFFF;stroke:#000000;stroke-width:14;stroke-miterlimit:10;}
	.st66{display:inline;opacity:0.4;}
	.st67{fill:#FF2727;}
	.st68{display:inline;}
</style>
<g id="Слой_1" class="st0">
</g>
<g id="Слой_3">
	<g>
		<defs>
			<rect id="XMLID_6_" x="2.2" y="-2.2" width="1590.3" height="862.1"/>
		</defs>
		<clipPath id="XMLID_9_">
			<use xlink:href="#XMLID_6_"  style="overflow:visible;"/>
		</clipPath>
		<path class="st1" d="M2856.4,475.7c0.2-2.3-0.2-4.3-1-6.1c0.2-0.6,0.3-1.2,0.5-1.8c2.2-8.4,1.6-16.2,0.9-23.9
			c1.9-11.9-1.2-22.6-0.5-33.9c0.2-2.3-0.2-4.3-1-6.1c0.2-0.6,0.3-1.2,0.5-1.8c3.6-13.7-0.4-25.7,0.5-38.3c0.3-3.7-0.9-6.6-2.5-9.1
			c-0.3-0.4-0.5-0.9-0.8-1.3c0-0.5-0.1-1.1-0.2-1.7c0-0.1,0-0.2,0-0.2c0-0.6,0-1.2-0.1-1.8c-0.4-6.1-0.4-12.4-0.7-18.5
			c0.1-2.4,0.2-4.9,0.4-7.3h-1.3c-0.2-3.6-0.6-7.1-1.4-10.7c-2.7-12-7.6-24-8.6-35.9c0.9-3,1.8-5.9,2.7-8.9
			c4.8-16.5,6.5-33.4,2.7-49.9c-0.3-1.2-0.5-2.4-0.8-3.6c2.6-11.1,3.6-22.4,2.4-33.5c1-9.6,0.6-19.2-1.6-28.6
			c-0.3-1.2-0.5-2.4-0.8-3.6c3.3-14.2,4.1-28.6,0.8-42.7c-2.7-11.5-4.3-22.7-5.3-34.5c-1.1-13.7-4-28.1-11.1-40.7
			c-0.9-1.6-0.8-3.5-3.2-4c-14.6-3.3-28.8-10.2-44.4-5.9c-4.4,1.2-9.5,3-13.5,1.8c-11.9-3.5-24.2-4.1-36.3-6.7
			c-2.7-0.6-5.2-3.6-8-1.8c-11.9,7.8-23.1,9.4-33.4-3c-1.4-1.7-2.8,0.1-4.3,0.2c-4.1,0.2-7.5,3.1-11.1,3.9
			c-7.6,1.6-15.1,8.3-22.2,5.7c-6.6-2.4-12.4-1.3-18.7-1.8c-12-0.9-24.2,0.1-36-4.3c-5.4-2-13.5-4.5-16.9-1.9
			c-6,4.7-11.9,4.8-18,4.3c-3.4-0.3-5.6,0-6.6,3.3c-2,6.2-6,7-11.2,4.9c-12.2-4.8-24.6-4.4-37.2-2.2c-11.2,2-22-1.9-32.9-3.4
			c-8.4-1.2-15.8-5.5-24.9,0.4c-7.6,5-21.2,2.4-24.6-2.4c-6.9-9.7-12-3.2-17.1-1.4c-9.3,3.2-18.3,7.6-28.4,4.7
			c-6.3-1.8-12.3,0.2-18.5,0.7c-1.4,0.1-2.4,1.8-4.3,1c-11-4.7-23-3.8-34.3-7c-4.8-1.4-10.5-3.2-15.1,2.5c-1.3,1.6-5.4,1.7-8,1.3
			c-9-1.5-17.9-2.9-26.6,0.6c-5.6,2.2-13.4-1.5-15.2-0.3c-7.1,4.3-13.5-1.3-20.1,1c-3.7,1.3-8.5,0.2-12-3.2
			c-4.3-4.3-9.2-3.8-14.8-2.9c-3.4,0.5-7,3.1-10.9,0.1c-6.9-5.3-14.9-4.5-22.7-3.1c-6.3,1.1-12.3,0-18.2-1.3
			c-6.6-1.5-13.7-6.7-16.6,5.1c-0.5,2-2.5,4-5,3.7c-8.8-1.3-19.4,3.9-25.5-7.6c-1.1-2-2.6-0.5-4.1-0.3c-4,0.5-7.5,2.5-11.3,3.8
			c-7.4,2.4-16,7.9-22.1,5.8c-12.4-4.4-24.5,1.2-36.6-2.4c-5.5-1.6-11.7-1.4-17.6-2.8c-7.6-1.7-15.4-6.7-23,0.8
			c-1.6,1.6-5.3,1.4-8,1.2c-5.5-0.4-10.9-2.2-13.3,6.1c-1,3.4-5.5,3-9.3,1.8c-9.6-3.1-19.2-7-29.6-3.7c-2-4.4-3.2-2.3-4.3,0.6
			c-2.4,0.2-4.8,0.4-7.2,0.7c-2.6-8.6-6.6-8.3-11.4-1.9c-6.8,1.7-13-0.9-19.6-2c-7.6-1.3-14.5-5.3-23.1,0.7
			c-5.7,4.1-16.2,3.7-21.9-2.1c-7-7.1-13.1-4.6-19.9-1.8c-9.1,3.8-18.2,7.8-28.4,4.8c-4-1.2-7.9-0.6-11.9,0
			c-12.1,1.9-23.8-1.2-35.5-3.2c-8.6-1.5-16.9-6.8-25.4,1c-1.6,1.5-5.5,1.1-8.2,0.7c-7.9-1.2-15.5-1.9-23.7,0.4
			c-5.3,1.5-11.8,0.7-17.6,0.3c-7.5-0.6-16.4-0.2-24.6,0.5c-6,0.5-8.8-7.7-13.7-6.7c-10.8,2.2-20.8-2.2-31-2.5
			c-12.8-0.4-25.6,0.3-38.2-2.3c-7.9-1.7-16.2-3.2-23.4-6.8c-3.8-1.9-7.8-2-9-0.1c-5.3,8.1-14.2,5.4-21,8.4
			c-13.3,5.8-27.7,3.5-41.7,4.2c-2.3,0.1-5.2-3.7-7-3.1c-13.4,4.8-14.5,5.2-24.6,3.1c-0.8-0.2-2.2,0-2.6,0.6
			c-3.5,4.7-7.1,1.5-10.7,0.4c-5.6-2.8-11.7-2.3-17.6-2.7c-3.9,2.8-7.6,5.6-11.6,8.3c-8.2-2-16.4-3.1-25.2-0.8
			c-4.4,1.2-9.5,3-13.5,1.8c-11.9-3.5-24.2-4.1-36.3-6.7c-2.7-0.6-5.2-3.6-8-1.8c-11.9,7.8-23.1,9.4-33.4-3
			c-1.4-1.7-2.8,0.1-4.3,0.2c-4.1,0.2-7.5,3.1-11.1,3.9c-7.6,1.6-15.1,8.3-22.2,5.7c-6.6-2.4-12.4-1.3-18.7-1.8
			c-12-0.9-24.2,0.1-36-4.3c-5.4-2-13.5-4.5-16.9-1.9c-6,4.7-11.9,4.8-18,4.3c-3.4-0.3-5.6,0-6.6,3.3c-2,6.2-6,7-11.2,4.9
			c-12.2-4.8-24.6-4.4-37.2-2.2c-11.2,2-22-1.9-32.9-3.4c-8.4-1.2-15.8-5.5-24.9,0.4c-7.6,5-21.2,2.4-24.6-2.4
			c-6.9-9.7-12-3.2-17.1-1.4c-9.3,3.2-18.3,7.6-28.4,4.7c-6.3-1.8-12.3,0.2-18.5,0.7c-1.4,0.1-2.4,1.8-4.3,1c-11-4.7-23-3.8-34.3-7
			c-4.8-1.4-10.5-3.2-15.1,2.5c-1.3,1.6-5.4,1.7-8,1.3c-9-1.5-17.9-2.9-26.6,0.6c-5.6,2.2-13.4-1.5-15.2-0.3
			c-7.1,4.3-13.5-1.3-20.1,1c-3.7,1.3-8.5,0.2-12-3.2c-4.3-4.3-9.2-3.8-14.8-2.9c-3.4,0.5-7,3.1-10.9,0.1
			c-6.9-5.3-14.9-4.5-22.7-3.1c-6.3,1.1-12.3,0-18.2-1.3c-6.6-1.5-13.7-6.7-16.6,5.1c-0.5,2-2.5,4-5,3.7c-8.8-1.3-19.4,3.9-25.5-7.6
			c-1.1-2-2.6-0.5-4.1-0.3c-4,0.5-7.5,2.5-11.3,3.8c-7.4,2.4-16,7.9-22.1,5.8c-12.4-4.4-24.5,1.2-36.6-2.4
			c-5.5-1.6-11.7-1.4-17.6-2.8c-7.6-1.7-15.4-6.7-23,0.8c-1.6,1.6-5.3,1.4-8,1.2c-5.5-0.4-10.9-2.2-13.3,6.1c-1,3.4-5.5,3-9.3,1.8
			c-9.6-3.1-19.2-7-29.6-3.7c-2-4.4-3.2-2.3-4.3,0.6c-2.4,0.2-4.8,0.4-7.2,0.7c-2.6-8.6-6.6-8.3-11.4-1.9c-6.8,1.7-13-0.9-19.6-2
			c-7.6-1.3-14.5-5.3-23.1,0.7c-5.7,4.1-16.2,3.7-21.9-2.1c-7-7.1-13.1-4.6-19.9-1.8c-9.1,3.8-18.2,7.8-28.4,4.8
			c-4-1.2-7.9-0.6-11.9,0c-12.1,1.9-23.8-1.2-35.5-3.2c-8.6-1.5-16.9-6.8-25.4,1c-1.6,1.5-5.5,1.1-8.2,0.7
			c-7.9-1.2-15.5-1.9-23.7,0.4c-5.3,1.5-11.8,0.7-17.6,0.3c-7.5-0.6-16.4-0.2-24.6,0.5c-6,0.5-8.8-7.7-13.7-6.7
			c-10.8,2.2-20.8-2.2-31-2.5c-12.8-0.4-25.6,0.3-38.2-2.3c-7.9-1.7-16.2-3.2-23.4-6.8c-3.8-1.9-7.8-2-9-0.1
			c-5.3,8.1-14.2,5.4-21,8.4c-13.3,5.8-27.7,3.5-41.7,4.2c-2.3,0.1-5.2-3.7-7-3.1c-13.4,4.8-14.5,5.2-24.6,3.1
			c-0.8-0.2-2.2,0-2.6,0.6c-3.5,4.7-7.1,1.5-10.7,0.4c-5.6-2.8-11.7-2.3-17.6-2.7c-4.3,3.1-8.6,6.3-13,9.3
			c-9.5,6.3-16,14.9-13.7,26.9c1.1,5.9,1.4,11.6,0.9,17.2c-0.5,5.1-0.1,10,1.1,14.6c-2.1,4.2-3,9-1.9,14.6c0.5,2.4,0.8,4.7,1,7
			c-1.2,3.1-1.7,6.5-1.3,10.3c-2.9,6.2-3.7,13,0.1,18.9c0.4,0.6,0.7,1.1,1,1.7c-0.3,4.6,0.1,9,1.2,13.2c-1.9,3.7-2.8,7.8-2.3,12.5
			c-2.4,5.2-3.4,10.7-1.5,15.8c-0.1,2.7-0.1,5.3-0.2,8c-1,3.5-1.2,7.1-0.1,10.5c0,8.8,0,17.7,0.3,26.5c-0.1,3.1-0.1,6.2-0.2,9.3
			c-1,3.5-1.2,7.1-0.1,10.5c0,4.7,0,9.4,0,14.1c-0.1,10.6-0.1,21.2,0.3,31.9c-0.3,12.5-0.4,24.9-0.2,37.4H-20
			c0.1,2.1,0.2,4.3,0.5,6.5c-0.1,2.3-0.1,4.6,0,6.9c0.5,7.4-3.2,15.7-1.4,24.7c0.3,1.4,0.5,2.9,0.6,4.3c-0.8,4.8-1.6,9.8-0.6,15.2
			c1,4.9,0.7,9.8,1.4,14.7c-0.1,2.2-0.1,4.5,0,6.9c0.5,7.4-3.2,15.7-1.4,24.7c1.7,8.6-0.3,17.1,5.2,26c0.8,1.3,1.5,2.7,2,4.1
			c0,0.1,0,0.2-0.1,0.3c-1.8,7.8-2.2,15.6-0.7,23.1c-1.6,9.1-1.1,18.2,2,26.6c0.1,0.4,0.3,0.8,0.4,1.2c-0.1,5-0.5,10-1.7,14.9
			c-2.4,10.3-2.3,20.7,1.3,30.2c3.8,10.3,5.3,20.9,6.4,31.6c-5.3,20.6-8,40.8-3.4,61.5c-2.1,11.3-3,22.5-1.9,33.9
			c-0.9,10.6-0.5,21.1,1.9,31.9c-3.1,16.9-3.6,33.6,1.1,50.8c0.7,2.5,2.6,5.2,3.5,7.6c0,1.1,0.2,2.2,0.4,3.4
			c-2.8,13.2,2.2,26.2-0.2,39.3c-1.8,10.4,7,25.7,15.9,25.4c9-0.3,17.7,3.6,26.7,1.2c9.3-2.5,18.5-6.1,28.3-3.2
			c1.3,0.4,2.1,1,3.2-0.3c8.2-10.4,20.2-5.5,30.1-6.3c4.2-0.4,8.3-5.1,12.3-2.2c5.9,4.2,11.4,2,17.3,0.5c3.3-0.8,7.7-3,9.9-1.6
			c7.1,4.4,14,2.4,21.2,2c4.8-0.2,10.4-0.2,14.7,4c3.7,3.5,8.3,4.2,13.2,2.7c5.1-1.6,9.5-1.6,14.9,1.7c4.4,2.7,11.2,4.3,17.1,1.8
			c6.8-2.8,13.7-1.7,19.6,1.3c6.6,3.4,14.2-1.7,20.4,3.9c1.6,1.5,3-2.8,2.8-3.9c-1.2-5.6,0.2-8.2,6.1-8.6c4.2-0.3,10.3-4.3,12.3-2.5
			c7.1,6.4,14.3,1.4,21.2,2.1c5.2,0.5,10.5,0.2,15.1,4c1.9,1.6,3.9,4.5,7.3,3.4c8.8-2.9,17.2-1.6,25.5,2.2
			c9.4,4.3,18.6-3.1,28.5-0.1c3.6,1.1,6.1,4.2,10.1,4.3c10.3,0.3,21.2-1.2,29.6,7.1c1.6,1.6,2.5-0.1,2.9-0.5c7.9-7.8,19-6.7,28-11
			c5.3-2.6,10.2-2.2,15.4-2.5c11.8-0.7,22.8,10.6,35.2,2.4c1.1-0.7,4,0.9,5.8,2c2.1,1.2,4.5,2.1,6.4,1c11.5-6.9,22.1-2.4,32.9,2.2
			c21.4,9.1,43,13.4,65.4,3.6c8.3-3.7,16.9-0.8,23.6,2.8c10.1,5.4,18.9,0.2,28.1-0.3c10.5-0.6,18.4-12.4,29.9-8.9
			c15.2,4.6,26.8-10.7,41.8-7.7c2.2,0.4,5.4-4.9,8.4-7.3c1.7-1.4,4.8-3.5,5.7-2.9c7.5,5.6,16.5,2.5,24.5,4.8
			c8.7,2.5,17.7,7.9,26.1-1c0.4-0.4,2.3,0.6,3.4,1c0.2,0.5,0.5,1.4,0.6,1.3c1.2-0.3,0.8-1,0.3-1.7c0.9-0.3,1.8-0.7,2.7-1
			c1.8,2.9,6.3,0.8,7.8,4.4c3.2-3.4,11.2,8.1,11.6-4.1c7.4,0.4,14.7-8,23,1.3c2.2,2.4,6.5,6.3,10.2,9c5.8,4.2,12.6,2.4,18,5.8
			c18.2,11.4,36.3,5.7,54.5,0.2c5.3-1.1,10.5-4,16-1.1c0-1.3,0.1-2.5,0.1-3.8l0.9-0.2l0.9,0.2c3.6,1.7,7.4,4.3,9.9-1.6
			c2.7-1.4,6.5-2,7.8-4.2c5.1-9,14.3-7.8,20.8-7c6.4,0.8,12.8,1.8,19.2,1.6c5.6-0.2,11-0.4,15.8,3.4c2.4,1.9,4.7,4.1,8.4,3.3
			c8.4-1.7,16.6-1.6,24.7,2.4c9,4.5,18.5-2.4,28.2-0.1c4.1,1,6.6,4.9,10,4.7c10.8-0.7,21,0.5,30.5,6.3c2.3,1.4,4-0.1,5-1.2
			c7.2-7.5,17.9-5,25.8-9.7c5.5-3.2,10.9-2.4,16.4-2.2c11.8,0.4,23,8.6,35.5,3c3.4-1.5,6.7,4.2,10.7,2c12-6.5,22.9-2.1,34.1,2.7
			c19,8,38.6,12.7,58.6,5c10.2-4,19.9-3.5,29.2,0.5c16.2,7.1,32.5,8.1,48.9,2.3c6.7-2.4,13-4.8,20.3-3.7c4.5,0.7,9.3,1.3,13.6-1.3
			c-0.1,0.1-0.3,0.2-0.4,0.3c0.2,0.2,0.4,0.3,0.6,0.5c0.3-0.5,0.5-1,0.8-1.5c0.1-0.1,0.3-0.2,0.4-0.3l-0.2,0c9,0.3,14.3-1,17.7-5.5
			c0.2-0.1,0.5-0.1,0.7-0.2c9.3-2.5,18.5-6.1,28.3-3.2c1.3,0.4,2.1,1,3.2-0.3c8.2-10.4,20.2-5.5,30.1-6.3c4.2-0.4,8.3-5.1,12.3-2.2
			c5.9,4.2,11.4,2,17.3,0.5c3.3-0.8,7.7-3,9.9-1.6c7.1,4.4,14,2.4,21.2,2c4.8-0.2,10.4-0.2,14.7,4c3.7,3.5,8.3,4.2,13.2,2.7
			c5.1-1.6,9.5-1.6,14.9,1.7c4.4,2.7,11.2,4.3,17.1,1.8c6.8-2.8,13.7-1.7,19.6,1.3c6.6,3.4,14.2-1.7,20.4,3.9c1.6,1.5,3-2.8,2.8-3.9
			c-1.2-5.6,0.2-8.2,6.1-8.6c4.2-0.3,10.3-4.3,12.3-2.5c7.1,6.4,14.3,1.4,21.2,2.1c5.2,0.5,10.5,0.2,15.1,4c1.9,1.6,3.9,4.5,7.3,3.4
			c8.8-2.9,17.2-1.6,25.5,2.2c9.4,4.3,18.6-3.1,28.5-0.1c3.6,1.1,6.1,4.2,10.1,4.3c10.3,0.3,21.2-1.2,29.6,7.1
			c1.6,1.6,2.5-0.1,2.9-0.5c7.9-7.8,19-6.7,28-11c5.3-2.6,10.2-2.2,15.4-2.5c11.8-0.7,22.8,10.6,35.2,2.4c1.1-0.7,4,0.9,5.8,2
			c2.1,1.2,4.5,2.1,6.4,1c11.5-6.9,22.1-2.4,32.9,2.2c21.4,9.1,43,13.4,65.4,3.6c8.3-3.7,16.9-0.8,23.6,2.8
			c10.1,5.4,18.9,0.2,28.1-0.3c10.5-0.6,18.4-12.4,29.9-8.9c15.2,4.6,26.8-10.7,41.8-7.7c2.2,0.4,5.4-4.9,8.4-7.3
			c1.7-1.4,4.8-3.5,5.7-2.9c7.5,5.6,16.5,2.5,24.5,4.8c8.7,2.5,17.7,7.9,26.1-1c0.4-0.4,2.3,0.6,3.4,1c0.2,0.5,0.5,1.4,0.6,1.3
			c1.2-0.3,0.8-1,0.3-1.7c0.9-0.3,1.8-0.7,2.7-1c1.8,2.9,6.3,0.8,7.8,4.4c3.2-3.4,11.2,8.1,11.6-4.1c7.4,0.4,14.7-8,23,1.3
			c2.2,2.4,6.5,6.3,10.2,9c5.8,4.2,12.6,2.4,18,5.8c18.2,11.4,36.3,5.7,54.5,0.2c5.3-1.1,10.5-4,16-1.1c0-1.3,0.1-2.5,0.1-3.8
			l0.9-0.2l0.9,0.2c3.6,1.7,7.4,4.3,9.9-1.6c2.7-1.4,6.5-2,7.8-4.2c5.1-9,14.3-7.8,20.8-7c6.4,0.8,12.8,1.8,19.2,1.6
			c5.6-0.2,11-0.4,15.8,3.4c2.4,1.9,4.7,4.1,8.4,3.3c8.4-1.7,16.6-1.6,24.7,2.4c9,4.5,18.5-2.4,28.2-0.1c4.1,1,6.6,4.9,10,4.7
			c10.8-0.7,21,0.5,30.5,6.3c2.3,1.4,4-0.1,5-1.2c7.2-7.5,17.9-5,25.8-9.7c5.5-3.2,10.9-2.4,16.4-2.2c11.8,0.4,23,8.6,35.5,3
			c3.4-1.5,6.7,4.2,10.7,2c12-6.5,22.9-2.1,34.1,2.7c19,8,38.6,12.7,58.6,5c10.2-4,19.9-3.5,29.2,0.5c16.2,7.1,32.5,8.1,48.9,2.3
			c6.7-2.4,13-4.8,20.3-3.7c4.5,0.7,9.3,1.3,13.6-1.3c-0.1,0.1-0.3,0.2-0.4,0.3c0.2,0.2,0.4,0.3,0.6,0.5c0.3-0.5,0.5-1,0.8-1.5
			c0.1-0.1,0.3-0.2,0.4-0.3l-0.2,0c15.8,0.6,20-4,23-21.2c1.9-10.7-2-21-0.3-31.5c0.7-4.1,0.5-8.1-0.3-11.9c0.2-1,0.4-2,0.6-3
			c1.1-6.1,0.3-12.1-0.3-18c0.1-0.5,0.2-1,0.3-1.5c0.6-3.6,0.6-7.1,0.4-10.5c3.2-6.2,4.2-13.1,0-20.4c-0.2-0.4-0.4-0.8-0.6-1.2
			c0.5-3.9,0.4-7.6-0.4-11.1c0.2-1,0.4-2,0.6-3.1c0.6-3.6,0.6-7.1,0.4-10.5c2.4-4.6,3.5-9.6,2.3-14.9c-0.4-2.6-0.7-5.3-0.8-7.9
			c1.6-4.4,1.9-9,0.1-13.9c0.3-7.3,0.9-14.5,0.8-21.8c0.3-0.8,0.1-1.5,0-2.5c0-0.1,0-0.2,0-0.3c0-0.6,0-1.2-0.1-1.8
			c-0.1-2.4-0.2-4.9-0.3-7.4c0.9-3.1,1.2-6.4,0.4-9.8c0-0.1,0-0.1,0-0.2c-0.3-1.8-0.5-3.5-0.6-5.3c0.4-7.9,1-15.8,0.5-23.7
			c-0.1-0.9-0.1-1.9-0.1-2.8c0.2-4,0.4-8.1,0.3-12.1c0.3-0.8,0.1-1.5,0-2.4c0-0.1,0-0.2,0-0.2c0-0.6,0-1.2-0.1-1.8
			c-0.4-6.1-0.4-12.4-0.7-18.5c0.4-9.2,1.3-18.5,0.7-27.8c0-0.4,0-0.8-0.1-1.2c1-4,2.1-7.9,3.1-11.8
			C2859.5,500.4,2855.5,488.4,2856.4,475.7z"/>
	</g>
</g>
<g id="Слой_2" class="st0">
</g>
</svg>
