<?xml version="1.0" encoding="utf-8"?>
<!-- Generator: Adobe Illustrator 22.0.1, SVG Export Plug-In . SVG Version: 6.00 Build 0)  -->
<svg version="1.1" xmlns="http://www.w3.org/2000/svg" xmlns:xlink="http://www.w3.org/1999/xlink" x="0px" y="0px"
	 viewBox="0 0 1542.2 1044" style="enable-background:new 0 0 1542.2 1044;" xml:space="preserve">
<style type="text/css">
	.st0{display:none;}
	.st1{clip-path:url(#XMLID_9_);fill:#010101;}
	.st2{clip-path:url(#XMLID_10_);}
	.st3{clip-path:url(#XMLID_11_);}
	.st4{clip-path:url(#XMLID_12_);}
	.st5{fill:#010101;}
	.st6{clip-path:url(#XMLID_13_);}
	.st7{clip-path:url(#XMLID_14_);}
	.st8{fill:#FFFFFF;}
	.st9{fill:#6ACE6A;}
	.st10{fill:none;stroke:#000000;stroke-width:17;stroke-miterlimit:10;}
	.st11{fill:none;stroke:#000000;stroke-width:17;stroke-miterlimit:10;stroke-dasharray:34.0738,15.4881;}
	.st12{clip-path:url(#SVGID_2_);}
	.st13{fill:#FFFFFF;stroke:#000000;stroke-width:7;stroke-miterlimit:10;}
	.st14{fill:#FCFCFC;}
	.st15{clip-path:url(#XMLID_16_);fill:#010101;}
	.st16{fill:none;stroke:#FFFFFF;stroke-width:17;stroke-miterlimit:10;stroke-dasharray:33,15;}
	.st17{fill:#FFFFFF;stroke:#000000;stroke-width:6;stroke-miterlimit:10;}
	.st18{clip-path:url(#XMLID_17_);}
	.st19{fill:none;stroke:#000000;stroke-width:6;stroke-miterlimit:10;}
	.st20{clip-path:url(#XMLID_18_);}
	.st21{fill:#060606;}
	.st22{fill:#CD7779;}
	.st23{fill:#F4F2F9;}
	.st24{fill:#774F66;}
	.st25{clip-path:url(#XMLID_19_);}
	.st26{clip-path:url(#XMLID_19_);fill:#F4F2F9;}
	.st27{clip-path:url(#XMLID_19_);fill:none;stroke:#6ACE6A;stroke-width:2;stroke-miterlimit:10;}
	.st28{clip-path:url(#XMLID_19_);fill:#6ACE6A;}
	.st29{clip-path:url(#XMLID_20_);}
	.st30{fill:none;stroke:#C0BFC6;stroke-miterlimit:10;}
	.st31{clip-path:url(#SVGID_4_);}
	.st32{clip-path:url(#XMLID_22_);}
	.st33{clip-path:url(#XMLID_23_);fill:#FFFFFF;}
	.st34{clip-path:url(#XMLID_23_);fill:#131011;}
	.st35{clip-path:url(#XMLID_24_);}
	.st36{clip-path:url(#XMLID_25_);}
	.st37{clip-path:url(#XMLID_25_);fill:#6ACE6A;}
	.st38{clip-path:url(#XMLID_25_);fill:none;stroke:#FFFFFF;stroke-width:2;stroke-linejoin:round;stroke-miterlimit:10;}
	.st39{fill:#27262C;}
	.st40{fill:none;stroke:#565656;stroke-miterlimit:10;}
	.st41{fill:#2C2828;}
	.st42{clip-path:url(#XMLID_24_);fill:none;stroke:#000000;stroke-width:6;stroke-miterlimit:10;}
	.st43{clip-path:url(#XMLID_24_);fill:#131011;}
	.st44{clip-path:url(#XMLID_26_);}
	.st45{fill:#FFFFFF;stroke:#060606;stroke-width:4;stroke-miterlimit:10;}
	.st46{fill:#6ACE6A;stroke:#000000;stroke-width:4;stroke-miterlimit:10;}
	.st47{stroke:#060606;stroke-width:4;stroke-miterlimit:10;}
	.st48{fill:#FFFFFF;stroke:#060606;stroke-width:4;stroke-linecap:round;stroke-miterlimit:10;}
	.st49{fill:none;stroke:#010101;stroke-linecap:round;stroke-linejoin:round;stroke-miterlimit:10;}
	.st50{clip-path:url(#XMLID_27_);}
	.st51{fill:none;stroke:#010101;stroke-width:3;stroke-linejoin:round;stroke-miterlimit:10;}
	.st52{fill:#FFFFFF;stroke:#010101;stroke-width:3;stroke-linejoin:round;stroke-miterlimit:10;}
	.st53{fill:none;stroke:#010101;stroke-width:3;stroke-linecap:round;stroke-linejoin:round;stroke-miterlimit:10;}
	.st54{fill:none;stroke:#010101;stroke-width:2;stroke-linecap:round;stroke-linejoin:round;stroke-miterlimit:10;}
	.st55{clip-path:url(#XMLID_29_);}
	.st56{clip-path:url(#XMLID_33_);fill:#010101;}
	.st57{fill:none;stroke:#000000;stroke-width:17;stroke-miterlimit:10;stroke-dasharray:33,15;}
	.st58{fill:none;stroke:#010101;stroke-width:3;stroke-miterlimit:10;}
	.st59{fill:none;stroke:#FFFFFF;stroke-width:17;stroke-miterlimit:10;}
	.st60{fill:#010101;stroke:#010101;stroke-width:3;stroke-miterlimit:10;}
	.st61{stroke:#FFFFFF;stroke-width:3;stroke-miterlimit:10;}
	.st62{fill:none;stroke:#FFFFFF;stroke-width:3;stroke-miterlimit:10;}
	.st63{stroke:#FFFFFF;stroke-width:6;stroke-miterlimit:10;}
	.st64{stroke:#FFFFFF;stroke-width:14;stroke-miterlimit:10;}
	.st65{fill:#FFFFFF;stroke:#000000;stroke-width:14;stroke-miterlimit:10;}
	.st66{display:inline;opacity:0.4;}
	.st67{fill:#FF2727;}
	.st68{display:inline;}
</style>
<g id="Слой_1" class="st0">
</g>
<g id="Слой_3">
	<g>
		<defs>
			<rect id="XMLID_6_" x="0.2" width="1543.6" height="1093.2"/>
		</defs>
		<clipPath id="XMLID_9_">
			<use xlink:href="#XMLID_6_"  style="overflow:visible;"/>
		</clipPath>
		<g style="clip-path:url(#XMLID_9_);">
			<g>
				<path class="st5" d="M-1305.6,359c1,4.7,0.7,9.3,1.4,14.1c-0.1,2.2-0.1,4.4,0,6.6c0.1,1.6,0,3.2-0.2,4.9h2876.5
					c0.8-5.7,0.8-11.5-0.2-17.3c1.2-7.3,1.1-14.7-0.7-22.2c-0.4-1.6-0.8-3.3-1.3-4.9c0.2-3.1,0.2-6.1,0-9.1c3.1-9.8,3.7-20,1.2-30.3
					c-2.7-11.5-7.6-22.9-8.6-34.4c0.9-2.9,1.8-5.7,2.7-8.5c4.8-15.8,6.5-32,2.7-47.8c-0.3-1.2-0.5-2.3-0.8-3.5
					c2.6-10.7,3.6-21.4,2.4-32.1c1-9.2,0.6-18.4-1.6-27.4c-0.3-1.2-0.5-2.3-0.8-3.5c3.3-13.6,4.1-27.4,0.8-40.9
					c-2.7-11.1-4.3-21.7-5.3-33c-1.1-13.1-4-26.9-11.1-39c-0.9-1.6-0.8-3.3-3.2-3.8c-14.6-3.1-28.8-9.7-44.4-5.7
					c-4.4,1.1-9.5,2.9-13.5,1.8c-11.9-3.3-24.2-3.9-36.3-6.4c-2.7-0.6-5.2-3.4-8-1.7c-11.9,7.5-23.1,9-33.4-2.8
					c-1.4-1.6-2.8,0.1-4.3,0.2c-4.1,0.2-7.5,3-11.1,3.7c-7.6,1.5-15.1,7.9-22.2,5.4c-6.6-2.3-12.4-1.2-18.7-1.7
					c-12-0.9-24.2,0.1-36-4.1c-5.4-1.9-13.5-4.3-16.9-1.8c-6,4.5-11.9,4.6-18,4.1c-3.4-0.3-5.6,0-6.6,3.2c-2,6-6,6.7-11.2,4.7
					c-12.2-4.6-24.6-4.2-37.2-2.1c-11.2,1.9-22-1.8-32.9-3.3c-8.4-1.2-15.8-5.3-24.9,0.4c-7.6,4.8-21.2,2.3-24.6-2.3
					c-6.9-9.3-12-3.1-17.1-1.4c-9.3,3.1-18.3,7.2-28.4,4.5c-6.3-1.7-12.3,0.1-18.5,0.7c-1.4,0.1-2.4,1.8-4.3,1
					c-11-4.5-23-3.6-34.3-6.7c-4.8-1.3-10.5-3.1-15.1,2.4c-1.3,1.6-5.4,1.6-8,1.2c-9-1.4-17.9-2.8-26.6,0.6
					c-5.6,2.1-13.4-1.4-15.2-0.3c-1,0.6-2,1-3,1.2c-7.7-1.7-15.5-2.5-23.7-0.4c-0.1,0-0.2,0-0.3,0.1c-1.8-0.6-3.7-1.6-5.2-3
					c-4.3-4.1-9.2-3.6-14.8-2.8c-3.4,0.5-7,3-10.9,0.1c-6.9-5.1-14.9-4.3-22.7-3c-6.3,1.1-12.3,0-18.2-1.3c-6.4-1.3-13.2-6-16.3,3.6
					c-1-0.9-1.9-1.8-2.8-2.9c-1.4-1.6-2.8,0.1-4.3,0.2c-4.1,0.2-7.5,3-11.1,3.7c-2.3,0.4-4.6,1.3-6.8,2.3c-2.2-1.1-4.1-2.9-5.8-5.8
					c-1.1-1.9-2.6-0.5-4.1-0.3c-4,0.5-7.5,2.4-11.3,3.6c-3.4,1.1-7,2.8-10.6,4.1c-0.8,0-1.6-0.1-2.3-0.1c-12-0.9-24.2,0.1-36-4.1
					c-5.4-1.9-13.5-4.3-16.9-1.8c-2.1,1.6-4.2,2.6-6.2,3.2c-1.4-0.2-2.8-0.4-4.2-0.7c-7.6-1.7-15.4-6.4-23,0.8
					c-1.6,1.5-5.3,1.3-8,1.2c-5-0.3-9.9-1.7-12.5,3.9c-5.9-0.2-11.9,0.3-17.9,1.3c-7.1-2.1-14.2-3.4-21.8-1.1
					c-1.7-3.6-2.8-2.7-3.8-0.6c-2.8-0.5-5.6-1.1-8.5-1.5c-0.2,0-0.4-0.1-0.6-0.1c-1.9-3.5-4.3-3.7-7.1-1.5c-5.5-1.2-10.9-1.9-17.2,2
					c-0.1,0.1-0.2,0.1-0.3,0.2c-1.7-0.4-3.4-0.8-5-1c-6.4-1.1-12.4-4-19.2-1.3c0,0-0.1-0.1-0.1-0.1c-6.9-9.3-12-3.1-17.1-1.4
					c-2.5,0.8-4.9,1.7-7.4,2.5c-0.4-0.3-0.8-0.6-1.2-1c-7-6.8-13.1-4.4-19.9-1.7c-2.4,0.9-4.7,1.9-7.1,2.7c-6.5-1-13-1.7-19.4-3.1
					c-2.7-0.6-5.2-3.4-8-1.7c-2.8,1.7-5.5,3.2-8.2,4.2c-4.8-0.6-9.7-1.2-14.4-2.5c-2.4-0.7-5.1-1.5-7.7-1.4c-1-0.9-2.1-2-3.1-3.1
					c-1.4-1.6-2.8,0.1-4.3,0.2c-4.1,0.2-7.5,3-11.1,3.7c-0.5,0.1-0.9,0.2-1.4,0.3c-5.4-1.3-10.7-1.8-16.1,2.8
					c-1.7,0.3-3.5,0.7-5.2,1.3c-1.2-0.1-2.3-0.2-3.3-0.3c-4.2-0.6-8.4-1.1-12.5-1c-0.4-1-0.9-1.8-2.5-2.2
					c-14.6-3.1-28.8-9.7-44.4-5.7c-4.4,1.1-9.5,2.9-13.5,1.8c-11.9-3.3-24.2-3.9-36.3-6.4c-2.7-0.6-5.2-3.4-8-1.7
					c-11.9,7.5-23.1,9-33.4-2.8c-1.4-1.6-2.8,0.1-4.3,0.2c-4.1,0.2-7.5,3-11.1,3.7c-0.1,0-0.2,0-0.3,0.1c-2-0.7-4-1.4-5.9-2.3
					c-3.8-1.8-7.8-1.9-9-0.1c-3.5,5.2-8.6,5.8-13.6,6.4c-4.1-0.4-8,0-12.1-0.3c-12-0.9-24.2,0.1-36-4.1c-5.4-1.9-13.5-4.3-16.9-1.8
					c-6,4.5-11.9,4.6-18,4.1c-3.4-0.3-5.6,0-6.6,3.2c-0.4,1.1-0.8,2-1.3,2.8c-3.6-0.6-7.3-1.3-10.9-1.4c-5.8-0.2-11.5-0.1-17.3-0.2
					c-0.3,0-0.5,0-0.8,0c-6.8-0.2-13.5-0.6-20.2-1.9c-7.9-1.6-16.2-3.1-23.4-6.5c-3.8-1.8-7.8-1.9-9-0.1c-1.9,2.8-4.2,4.2-6.7,5.1
					C64.3,7.3,59,6.8,53,10.6c-7.6,4.8-21.2,2.3-24.6-2.3c-6.9-9.3-12-3.1-17.1-1.4c-7.5,2.5-14.8,5.6-22.6,5.4
					c-1.9-0.5-3.8-0.8-5.8-0.9c0,0,0,0-0.1,0c-6.3-1.7-12.3,0.1-18.5,0.7c-0.5,0-0.9,0.3-1.4,0.5c-3-0.3-5.9-0.9-8.9-1.5
					c-4.1-0.9-8.4-3.1-11.8-2c-5.6-0.7-11.1-1.3-16.6-2.8C-79.1,5-84.8,3.3-89.3,8.8c-1.3,1.6-5.4,1.6-8,1.2
					c-9-1.4-17.9-2.8-26.6,0.6c-5.6,2.1-13.4-1.4-15.2-0.3c-7.1,4.1-13.5-1.2-20.1,1c-3.7,1.2-8.5,0.2-12-3.1
					c-4.3-4.1-9.2-3.6-14.8-2.8c-3.4,0.5-7,3-10.9,0.1c-6.9-5.1-14.9-4.3-22.7-3c-6.3,1.1-12.3,0-18.2-1.3
					c-6.6-1.4-13.7-6.4-16.6,4.9c-0.4,1.5-1.7,3-3.5,3.4c-7.1-1.4-14.2-2.9-20.6-6c-2.3-1.1-4.7-1.6-6.5-1.4c-1.1-1.8-2.6-0.4-4-0.2
					c-4,0.5-7.5,2.4-11.3,3.6c-7.4,2.3-16,7.6-22.1,5.5c-8-2.7-15.9-1.5-23.7-1.1c-3.2-1-6.3-1.8-8.7-0.3c-1.4-0.2-2.8-0.5-4.3-0.9
					c-5.5-1.6-11.7-1.4-17.6-2.7c-7.6-1.7-15.4-6.4-23,0.8c-1.6,1.5-5.3,1.3-8,1.2c-5-0.3-9.9-1.7-12.5,3.9c-7-0.2-14-0.6-21-2
					c-7.9-1.6-16.2-3.1-23.4-6.5c-3.8-1.8-7.8-1.9-9-0.1c-1.3,1.9-2.8,3.2-4.4,4.1c-0.3,0.1-0.5,0.2-0.8,0.4
					c-4.8,2.3-10.7,1.6-15.5,3.5c-2.6-0.5-5.3-1.2-8-1.7c-7.6-1.3-14.5-5.1-23.1,0.7c-5.7,3.9-16.2,3.6-21.9-2
					c-7-6.8-13.1-4.4-19.9-1.7c-9.1,3.7-18.2,7.5-28.4,4.6c-4-1.1-7.9-0.6-11.9,0c-3.2,0.5-6.3,0.6-9.5,0.5
					c-1.8-0.1-3.6-0.2-5.5-0.3c-4.7-0.5-9.4-1.3-14.1-2.1c-6.9-1.4-13.8-2.9-20.1-5.8c-3.8-1.8-7.8-1.9-9-0.1
					c-3.3,4.8-7.9,5.7-12.6,6.3c-7.3-1-14.4-1.4-21.9,0.6c-5.3,1.4-11.8,0.7-17.6,0.2c-7.5-0.5-16.4-0.2-24.6,0.5
					c-6,0.5-8.8-7.3-13.7-6.4c-10.8,2.1-20.8-2.1-31-2.4c-12.8-0.3-25.6,0.3-38.2-2.2c-7.9-1.6-16.2-3.1-23.4-6.5
					c-3.8-1.8-7.8-1.9-9-0.1c-5.3,7.8-14.2,5.2-21,8.1c-13.3,5.5-27.7,3.4-41.7,4c-2.3,0.1-5.2-3.6-7-2.9c-4.7,1.6-7.9,2.7-10.5,3.4
					c-1.3-0.9-2.7-1.6-4.2-1.2c-2.2,0.4-4.3,0.6-6.4,0.6c-1.4-0.5-2.8-1.1-4.1-1.7c-3.8-1.8-7.8-1.9-9-0.1c-0.1,0.1-0.1,0.2-0.2,0.3
					c-3.8-0.7-7.5-1.3-11.2-1.4c-12.8-0.3-25.6,0.3-38.2-2.2c-7.9-1.6-16.2-3.1-23.4-6.5c-3.8-1.8-7.8-1.9-9-0.1
					c-5.3,7.8-14.2,5.2-21,8.1c-13.3,5.5-27.7,3.4-41.7,4c-2.3,0.1-5.2-3.6-7-2.9c-9.1,3.1-12.5,4.3-16.9,4.1
					c-2.9-0.8-5.7-1.8-8.3-3.1c-3.8-1.8-7.8-1.9-9-0.1c-0.9,1.4-2,2.4-3.1,3.3c-0.2-0.1-0.4-0.1-0.6-0.2c-5.6-2.7-11.7-2.2-17.6-2.6
					c-4.3,3-8.6,6.1-13,8.9c-1.2,0.8-2.3,1.5-3.4,2.4c-8.3,0.6-16.7,0-25,0.4c-2.3,0.1-5.2-3.6-7-2.9c-13.4,4.6-14.5,4.9-24.6,3
					c-0.8-0.2-2.2,0-2.6,0.6c-3.5,4.5-7.1,1.4-10.7,0.4c-5.6-2.7-11.7-2.2-17.6-2.6c-4.3,3-8.6,6.1-13,8.9c-9.5,6-16,14.3-13.7,25.8
					c1.1,5.7,1.4,11.1,0.9,16.4c-0.5,4.9-0.1,9.5,1.1,13.9c-2.1,4-3,8.7-1.9,14c0.5,2.3,0.8,4.5,1,6.8c-1.2,3-1.7,6.3-1.3,9.9
					c-2.9,6-3.7,12.5,0.1,18.1c0.4,0.5,0.7,1.1,1,1.6c-0.3,4.4,0.1,8.7,1.2,12.7c-1.9,3.5-2.8,7.5-2.3,12
					c-2.4,4.9-3.4,10.3-1.5,15.1c-0.1,2.6-0.1,5.1-0.2,7.7c-1,3.4-1.2,6.8-0.1,10.1c0,8.5,0,16.9,0.3,25.4c-0.1,3-0.1,5.9-0.2,8.9
					c-1,3.4-1.2,6.8-0.1,10.1c0,4.5,0,9,0,13.5c-0.1,10.2-0.1,20.4,0.3,30.5c-0.3,12.9-0.4,25.9-0.2,38.8
					c-1.8,6.9-3.1,13.9-2.6,21.3C-1303.6,342.4-1307.4,350.3-1305.6,359z"/>
				<path class="st5" d="M1577.9,567.5c0.3-3.5-0.9-6.3-2.5-8.7c-0.3-0.4-0.5-0.8-0.8-1.2c0-0.5-0.1-1-0.2-1.6c0-0.1,0-0.2,0-0.2
					c0-0.6,0-1.2-0.1-1.8c-0.4-5.8-0.4-11.9-0.7-17.8c0.4-8.9,1.3-17.7,0.7-26.6c0-0.4,0-0.8-0.1-1.2c1-3.8,2.1-7.6,3.1-11.3
					c3.6-13.1-0.4-24.6,0.5-36.7c0.2-2.2-0.2-4.2-1-5.9c0.2-0.6,0.3-1.2,0.5-1.8c2.2-8.1,1.6-15.5,0.9-22.9
					c0.9-5.4,0.7-10.6,0.2-15.7h-5.8v-102H-251.8v102h-1053.7c1.6,7.6-0.1,15.2,4.1,23c0,0.1,0,0.2,0,0.3
					c-0.3,12.9-0.4,25.9-0.2,38.8c-1.8,6.9-3.1,13.9-2.6,21.3c0.5,7.1-3.2,15-1.4,23.7c1,4.7,0.7,9.3,1.4,14.1
					c-0.1,2.2-0.1,4.4,0,6.6c0.5,7.1-3.2,15-1.4,23.7c0.3,1.4,0.5,2.7,0.6,4.1c-0.8,4.6-1.6,9.4-0.6,14.5c1,4.7,0.7,9.4,1.4,14.1
					c-0.1,2.2-0.1,4.3,0,6.6c0.5,7.1-3.2,15-1.4,23.7c1.7,8.2-0.3,16.4,5.2,24.9c0.8,1.3,1.5,2.6,2,4c0,0.1,0,0.2-0.1,0.3
					c-1.8,7.5-2.2,14.9-0.7,22.1c-1.6,8.7-1.1,17.4,2,25.5c0.1,0.4,0.3,0.8,0.4,1.1c-0.1,4.8-0.5,9.6-1.7,14.3
					c-2.4,9.9-2.3,19.8,1.3,28.9c3.8,9.9,5.3,20.1,6.4,30.3c-5.3,19.7-8,39-3.4,58.9c-2.1,10.8-3,21.6-1.9,32.5
					c-0.9,10.1-0.5,20.2,1.9,30.5c-3.1,16.2-3.6,32.2,1.1,48.6c0.7,2.4,2.6,5,3.5,7.3c0,1.1,0.2,2.1,0.4,3.2
					c-2.8,12.6,2.2,25.1-0.2,37.7c-1.8,10,7,24.7,15.9,24.4c9-0.3,17.7,3.4,26.7,1.1c9.3-2.4,18.5-5.8,28.3-3.1
					c1.3,0.4,2.1,1,3.2-0.3c8.2-10,20.2-5.2,30.1-6.1c4.2-0.4,8.3-4.8,12.3-2.1c4.7,3.2,9.3,2.5,13.9,1.3c5.4,0.8,10.7,1.6,16.1,0.2
					c0.7-0.2,1.4-0.4,2.1-0.5c5.4,1.3,10.7,0.1,16.2-0.1c4.8-0.2,10.4-0.2,14.7,3.8c3.7,3.4,8.3,4,13.2,2.6c0.4-0.1,0.8-0.2,1.2-0.3
					c2.4,2.2,5.2,3.6,8,3.5c9-0.3,17.7,3.4,26.7,1.1c2.7-0.7,5.4-1.5,8.2-2.2c2.6,0.4,5.2,1.3,7.6,2.5c6.6,3.3,14.2-1.6,20.4,3.8
					c1.6,1.4,3-2.7,2.8-3.7c-1.2-5.4,0.2-7.9,6.1-8.2c2-0.1,4.4-1,6.6-1.8c2.3,0.1,4.7,0.3,6.9,0.3c4.6,3.2,9.2,2.1,13.8,1.4
					c3,4.1,7,6.9,10.9,6.8c9-0.3,17.7,3.4,26.7,1.1c2.5-0.6,5-1.4,7.5-2c3,0.6,6,1.6,8.9,2.9c9.4,4.1,18.6-3,28.5-0.1
					c3.6,1.1,6.1,4,10.1,4.2c9.5,0.3,19.5-0.9,27.7,5.2v-12.5c3.2,0.3,6.2,1.3,9,2.7c6.6,3.3,14.2-1.6,20.4,3.8
					c1.6,1.4,3-2.7,2.8-3.7c-1.2-5.4,0.2-7.9,6.1-8.2c0.7,0,1.4-0.2,2.1-0.3c3.8,0.9,7.5,0.3,11.4-0.5c0.9,0.5,1.7,1.1,2.5,1.8
					c3.7,3.4,8.3,4,13.2,2.6c0.4-0.1,0.8-0.2,1.2-0.3c2.4,2.2,5.2,3.6,8,3.5c9-0.3,17.7,3.4,26.7,1.1c0.1,0,0.2-0.1,0.3-0.1
					c0.1,0.1,0.2,0.2,0.4,0.2v-0.3c2.3-0.6,4.6-1.2,6.8-1.8c3,0.6,6,1.6,8.9,2.9c4.4,1.9,8.8,1.4,13.2,0.6c2.2,0.2,4.4,0.9,6.4,2.6
					c1.6,1.4,3-2.7,2.8-3.7c0-0.1,0-0.2,0-0.2c2-0.1,4,0.1,6,0.7c3.6,1.1,6.1,4,10.1,4.2c10.3,0.3,21.2-1.2,29.6,6.8
					c1.6,1.5,2.5-0.1,2.9-0.4c7.9-7.5,19-6.4,28-10.6c2-0.9,3.9-1.5,5.9-1.8c1.7,0.5,3.4,1.2,5.1,1.9c5.7,2.5,11.4,0.8,17.2-0.2
					c5.3,1.7,10.6,3.5,16.1,2.5c1.6,0.9,3.2,1.7,5.3,1.8c9.5,0.3,19.5-0.9,27.7,5.2v-9.8c0.1-0.1,0.2-0.1,0.3-0.2
					c6.2,0.5,12.2,2.9,18.3,5.4c21.4,8.7,43,12.9,65.4,3.4c8.3-3.5,16.9-0.7,23.6,2.7c10.1,5.2,18.9,0.2,28.1-0.3
					c6.6-0.3,12.1-4.9,18.2-7.5c0.3,0,0.5,0,0.8,0.1c1.1,0.5,2.3,0.9,3.6,0.9c10.3,0.3,21.2-1.2,29.6,6.8c1.6,1.5,2.5-0.1,2.9-0.4
					c6.5-6.1,15-6.5,22.8-8.7c2.7,1,5.2,1.4,7.8,1.4c0,0,0,0,0,0c0.5,0.4,1,0.3,1.4-0.1c5.7-0.3,11.2-2.3,16.9-2.5
					c2-0.1,3.8-0.6,5.6-1.3c7.8,2.5,15.6,5.8,24.1,0.4c1.1-0.7,4,0.9,5.8,1.9c2.1,1.2,4.5,2,6.4,0.9c11.5-6.6,22.1-2.3,32.9,2.1
					c19.5,7.9,39.3,12.1,59.6,5.6c6.5-0.2,13-1.5,19.5-3.2c3.5,0.8,6.9,2.2,9.9,3.7c10.1,5.2,18.9,0.2,28.1-0.3
					c10.5-0.5,18.4-11.9,29.9-8.6c6.4,1.9,12.1,0.4,17.7-1.8c4.6-0.2,9.2-1,13.8-2c1.5,0.5,3.1,1.1,4.6,1.8c9.4,4.1,18.6-3,28.5-0.1
					c3.6,1.1,6.1,4,10.1,4.2c10.3,0.3,21.2-1.2,29.6,6.8c1.6,1.5,2.5-0.1,2.9-0.4c4.8-4.5,10.8-5.9,16.7-7.2c4.1,1,8,2.5,11.8,4.7
					c2.3,1.3,4-0.1,5-1.2c5.9-5.9,14-5.4,21.1-7.4c5.8,1.8,11.6,4.1,17.7,2.9c1.6,0.4,3.1,0.9,4.5,1.7c16.5,9.9,32.9,6.3,49.3,1.7
					c18.5,7.2,37.2,10.8,56.5,4.8c8.8,1.3,17.7,1.1,26.6-1.3c1.2,0.5,2.4,1.1,3.5,1.6c10.1,5.2,18.9,0.2,28.1-0.3
					c2.1-0.1,4-0.6,5.9-1.4c15.2,5.7,30.5,6.3,45.9,1c6.7-2.3,13-4.6,20.3-3.6c3.1,0.4,6.5,0.9,9.7,0.2c0.6,0.3,1.2,0.7,1.8,1
					c2.3,1.3,4-0.1,5-1.2c0.9-0.9,1.8-1.6,2.8-2.2c1.5-0.1,2.8-0.2,4.1-0.4c7.9,0,16,0.1,22.7,5.1v-7.5c9.5,2.4,19.1,2.7,28.7,0.8
					c0.2,0.2,0.5,0.4,0.7,0.6c0.9,0.8,1.7-0.1,2.2-1.2c2-0.5,3.9-1,5.9-1.7c0.2-0.1,0.3-0.1,0.5-0.2c3.3,0.1,6.6-0.4,10-1.9
					c3.4-1.5,6.7,4,10.7,2c6.1-3.1,11.9-3.6,17.6-2.7c0.5,0.3,0.9,0.7,1.4,1c4.7,3.2,10.2,2.8,14.9,4.2c0.1,0,0.2,0.1,0.2,0.1
					c0.7,0.3,1.4,0.6,2.1,0.8c0.3,0.1,0.5,0.3,0.8,0.4c7.5,4.5,15,6.2,22.5,6.3c10.9,1.8,22.1,1.4,33.3-2.8
					c10.2-3.8,19.9-3.4,29.2,0.5c2.3,1,4.5,1.8,6.8,2.5c0.2,0.1,0.3,0.3,0.5,0.4c0.9,0.9,1.6,0.7,2.1,0.4c13.1,3.7,26.3,3.5,39.6-1
					c6.7-2.3,13-4.6,20.3-3.6c4.5,0.6,9.3,1.2,13.6-1.2c-0.1,0.1-0.3,0.2-0.4,0.3c0.2,0.2,0.4,0.3,0.6,0.5c0.3-0.5,0.5-1,0.8-1.4
					c0.1-0.1,0.3-0.2,0.4-0.3l-0.2,0c5.8,0.2,10-0.3,13.2-1.7c1.3,0.4,2.7,0.4,3.8-0.2c11.5-6.6,22.1-2.3,32.9,2.1
					c21.4,8.7,43,12.9,65.4,3.4c8.3-3.5,16.9-0.7,23.6,2.7c10.1,5.2,18.9,0.2,28.1-0.3c10.5-0.5,18.4-11.9,29.9-8.6
					c3.1,0.9,6.1,1,8.9,0.6c0.1,0,0.2,0.1,0.3,0.1c19,7.7,38.6,12.2,58.6,4.7c10.2-3.8,19.9-3.4,29.2,0.5
					c16.2,6.8,32.5,7.8,48.9,2.2c6.7-2.3,13-4.6,20.3-3.6c4.5,0.6,9.3,1.2,13.6-1.2c-0.1,0.1-0.3,0.2-0.4,0.3
					c0.2,0.2,0.4,0.3,0.6,0.5c0.3-0.5,0.5-1,0.8-1.4c0.1-0.1,0.3-0.2,0.4-0.3l-0.2,0c1.4,0.1,2.7,0.1,4,0
					c17.9,10.2,35.7,4.8,53.6-0.4c5.3-1,10.5-3.8,16-1.1c0-1.2,0.1-2.4,0.1-3.6l0.9-0.2l0.9,0.2c3.6,1.6,7.4,4.1,9.9-1.5
					c2.7-1.3,6.5-1.9,7.8-4.1c5.1-8.7,14.3-7.5,20.8-6.7c6.4,0.7,12.8,1.7,19.2,1.5c5.6-0.2,11-0.4,15.8,3.3
					c2.4,1.8,4.7,3.9,8.4,3.2c8.4-1.7,16.6-1.6,24.7,2.3c9,4.3,18.5-2.3,28.2-0.1c4.1,0.9,6.6,4.7,10,4.5c10.8-0.6,21,0.5,30.5,6
					c2.3,1.3,4-0.1,5-1.2c7.2-7.2,17.9-4.8,25.8-9.3c5.5-3.1,10.9-2.3,16.4-2.1c11.8,0.4,23,8.3,35.5,2.8c3.4-1.5,6.7,4,10.7,2
					c12-6.2,22.9-2,34.1,2.6c19,7.7,38.6,12.2,58.6,4.7c10.2-3.8,19.9-3.4,29.2,0.5c16.2,6.8,32.5,7.8,48.9,2.2
					c6.7-2.3,13-4.6,20.3-3.6c4.5,0.6,9.3,1.2,13.6-1.2c-0.1,0.1-0.3,0.2-0.4,0.3c0.2,0.2,0.4,0.3,0.6,0.5c0.3-0.5,0.5-1,0.8-1.4
					c0.1-0.1,0.3-0.2,0.4-0.3l-0.2,0c15.8,0.6,20-3.8,23-20.3c1.9-10.3-2-20.1-0.3-30.1c0.7-4,0.5-7.7-0.3-11.4
					c0.2-0.9,0.4-1.9,0.6-2.9c1.1-5.8,0.3-11.6-0.3-17.2c0.1-0.5,0.2-0.9,0.3-1.4c0.6-3.4,0.6-6.8,0.4-10.1c3.2-5.9,4.2-12.5,0-19.5
					c-0.2-0.4-0.4-0.8-0.6-1.1c0.5-3.7,0.4-7.3-0.4-10.7c0.2-0.9,0.4-1.9,0.6-2.9c0.6-3.4,0.6-6.8,0.4-10.1
					c2.4-4.4,3.5-9.2,2.3-14.2c-0.4-2.5-0.7-5-0.8-7.6c1.6-4.2,1.9-8.7,0.1-13.3c0.3-7,0.9-13.9,0.8-20.9c0.3-0.8,0.1-1.4,0-2.4
					c0-0.1,0-0.2,0-0.2c0-0.6,0-1.2-0.1-1.7c-0.1-2.3-0.2-4.7-0.3-7c0.9-3,1.2-6.2,0.4-9.4c0-0.1,0-0.1,0-0.2
					c-0.3-1.7-0.5-3.4-0.6-5c0.4-7.6,1-15.1,0.5-22.7c-0.1-0.9-0.1-1.8-0.1-2.7c0.2-3.9,0.4-7.7,0.3-11.6c0.3-0.8,0.1-1.4,0-2.3
					c0-0.1,0-0.2,0-0.2c0-0.6,0-1.2-0.1-1.8c-0.4-5.8-0.4-11.9-0.7-17.8c0.4-8.9,1.3-17.7,0.7-26.6c0-0.4,0-0.8-0.1-1.2
					c1-3.8,2.1-7.6,3.1-11.3c3.6-13.1-0.4-24.6,0.5-36.7c0.2-2.2-0.2-4.2-1-5.9c0.2-0.6,0.3-1.2,0.5-1.8c2.2-8.1,1.6-15.5,0.9-22.9
					c1.9-11.4-1.2-21.7-0.5-32.5c0.2-2.2-0.2-4.2-1-5.9c0.2-0.6,0.3-1.2,0.5-1.8C1581,591.1,1577,579.7,1577.9,567.5z"/>
			</g>
		</g>
	</g>
</g>
<g id="Слой_2" class="st0">
</g>
</svg>
