<?xml version="1.0" encoding="utf-8"?>
<!-- Generator: Adobe Illustrator 22.0.1, SVG Export Plug-In . SVG Version: 6.00 Build 0)  -->
<svg version="1.1" xmlns="http://www.w3.org/2000/svg" xmlns:xlink="http://www.w3.org/1999/xlink" x="0px" y="0px"
	 viewBox="0 0 1280.1 562.3" style="enable-background:new 0 0 1280.1 562.3;" xml:space="preserve">
<style type="text/css">
	.st0{display:none;}
	.st1{clip-path:url(#XMLID_8_);fill:#010101;}
	.st2{clip-path:url(#XMLID_9_);}
	.st3{clip-path:url(#XMLID_10_);}
	.st4{clip-path:url(#XMLID_11_);}
	.st5{fill:#010101;}
	.st6{clip-path:url(#XMLID_12_);}
	.st7{fill:#FFFFFF;}
	.st8{fill:#6ACE6A;}
	.st9{fill:none;stroke:#000000;stroke-width:17;stroke-miterlimit:10;}
	.st10{fill:none;stroke:#000000;stroke-width:17;stroke-miterlimit:10;stroke-dasharray:34.0738,15.4881;}
	.st11{clip-path:url(#SVGID_2_);}
	.st12{fill:#FFFFFF;stroke:#000000;stroke-width:7;stroke-miterlimit:10;}
	.st13{fill:#FCFCFC;}
	.st14{clip-path:url(#XMLID_14_);fill:#010101;}
	.st15{fill:none;stroke:#FFFFFF;stroke-width:17;stroke-miterlimit:10;stroke-dasharray:33,15;}
	.st16{fill:#FFFFFF;stroke:#000000;stroke-width:6;stroke-miterlimit:10;}
	.st17{clip-path:url(#XMLID_15_);}
	.st18{fill:none;stroke:#000000;stroke-width:6;stroke-miterlimit:10;}
	.st19{clip-path:url(#XMLID_16_);}
	.st20{fill:#060606;}
	.st21{fill:#CD7779;}
	.st22{fill:#F4F2F9;}
	.st23{fill:#774F66;}
	.st24{clip-path:url(#XMLID_17_);}
	.st25{clip-path:url(#XMLID_17_);fill:#F4F2F9;}
	.st26{clip-path:url(#XMLID_17_);fill:none;stroke:#6ACE6A;stroke-width:2;stroke-miterlimit:10;}
	.st27{clip-path:url(#XMLID_17_);fill:#6ACE6A;}
	.st28{clip-path:url(#XMLID_18_);}
	.st29{fill:none;stroke:#C0BFC6;stroke-miterlimit:10;}
	.st30{clip-path:url(#SVGID_4_);}
	.st31{clip-path:url(#XMLID_20_);}
	.st32{clip-path:url(#XMLID_21_);fill:#FFFFFF;}
	.st33{clip-path:url(#XMLID_21_);fill:#131011;}
	.st34{clip-path:url(#XMLID_22_);}
	.st35{clip-path:url(#XMLID_23_);}
	.st36{clip-path:url(#XMLID_23_);fill:#6ACE6A;}
	.st37{clip-path:url(#XMLID_23_);fill:none;stroke:#FFFFFF;stroke-width:2;stroke-linejoin:round;stroke-miterlimit:10;}
	.st38{fill:#27262C;}
	.st39{fill:none;stroke:#565656;stroke-miterlimit:10;}
	.st40{fill:#2C2828;}
	.st41{clip-path:url(#XMLID_22_);fill:none;stroke:#000000;stroke-width:6;stroke-miterlimit:10;}
	.st42{clip-path:url(#XMLID_22_);fill:#131011;}
	.st43{clip-path:url(#XMLID_24_);}
	.st44{fill:#FFFFFF;stroke:#060606;stroke-width:4;stroke-miterlimit:10;}
	.st45{fill:#6ACE6A;stroke:#000000;stroke-width:4;stroke-miterlimit:10;}
	.st46{stroke:#060606;stroke-width:4;stroke-miterlimit:10;}
	.st47{fill:#FFFFFF;stroke:#060606;stroke-width:4;stroke-linecap:round;stroke-miterlimit:10;}
	.st48{fill:none;stroke:#010101;stroke-linecap:round;stroke-linejoin:round;stroke-miterlimit:10;}
	.st49{clip-path:url(#XMLID_25_);}
	.st50{fill:none;stroke:#010101;stroke-width:3;stroke-linejoin:round;stroke-miterlimit:10;}
	.st51{fill:#FFFFFF;stroke:#010101;stroke-width:3;stroke-linejoin:round;stroke-miterlimit:10;}
	.st52{fill:none;stroke:#010101;stroke-width:3;stroke-linecap:round;stroke-linejoin:round;stroke-miterlimit:10;}
	.st53{fill:none;stroke:#010101;stroke-width:2;stroke-linecap:round;stroke-linejoin:round;stroke-miterlimit:10;}
	.st54{clip-path:url(#XMLID_27_);}
	.st55{clip-path:url(#XMLID_29_);fill:#010101;}
	.st56{fill:none;stroke:#000000;stroke-width:17;stroke-miterlimit:10;stroke-dasharray:33,15;}
	.st57{fill:none;stroke:#010101;stroke-width:3;stroke-miterlimit:10;}
	.st58{fill:none;stroke:#FFFFFF;stroke-width:17;stroke-miterlimit:10;}
	.st59{fill:#010101;stroke:#010101;stroke-width:3;stroke-miterlimit:10;}
	.st60{stroke:#FFFFFF;stroke-width:3;stroke-miterlimit:10;}
	.st61{fill:none;stroke:#FFFFFF;stroke-width:3;stroke-miterlimit:10;}
	.st62{stroke:#FFFFFF;stroke-width:6;stroke-miterlimit:10;}
	.st63{stroke:#FFFFFF;stroke-width:14;stroke-miterlimit:10;}
	.st64{fill:#FFFFFF;stroke:#000000;stroke-width:14;stroke-miterlimit:10;}
	.st65{display:inline;opacity:0.4;}
	.st66{fill:#FF2727;}
	.st67{display:inline;}
</style>
<g id="Слой_1" class="st0">
</g>
<g id="Слой_3">
	<path class="st7" d="M1280.1,26.3c0-1.6-12.6-4.2-14.8-4.7c-12.9-2.8-25.3-8.6-39-5c-3.9,1-8.3,2.6-11.9,1.6
		c-10.5-2.9-21.3-3.4-31.9-5.7c-2.3-0.5-4.6-3-7-1.5c-10.5,6.6-20.4,7.9-29.3-2.5c-1.2-1.4-2.5,0.1-3.8,0.2
		c-3.6,0.2-6.6,2.6-9.8,3.3c-6.7,1.3-13.3,7-19.5,4.8c-5.8-2.1-10.9-1.1-16.4-1.5c-10.6-0.8-21.3,0.1-31.7-3.6
		c-4.7-1.7-11.9-3.8-14.8-1.6c-5.3,4-10.4,4-15.9,3.6c-3-0.3-4.9,0-5.8,2.8c-1.7,5.3-5.2,5.9-9.8,4.2c-10.7-4.1-21.6-3.7-32.7-1.9
		c-9.9,1.6-19.4-1.6-28.9-2.9c-7.4-1-13.9-4.6-21.9,0.4c-6.7,4.2-18.7,2-21.7-2C907.4,6,903,11.5,898.4,13c-8.2,2.7-16.1,6.4-25,4
		c-5.5-1.5-10.8,0.1-16.2,0.6c-1.3,0.1-2.1,1.5-3.8,0.8c-9.6-3.9-20.2-3.2-30.2-5.9c-4.2-1.2-9.2-2.7-13.3,2.1
		c-1.1,1.4-4.7,1.4-7,1.1c-7.9-1.2-15.8-2.4-23.4,0.5c-4.9,1.9-11.8-1.2-13.4-0.3c-6.2,3.6-11.9-1.1-17.7,0.9
		c-3.2,1.1-7.5,0.2-10.6-2.7c-3.8-3.6-8.1-3.2-13-2.5c-2.9,0.4-6.1,2.6-9.6,0.1c-6-4.5-13.1-3.8-20-2.6c-5.5,1-10.8,0-16-1.1
		c-5.8-1.2-12.1-5.7-14.6,4.3c-0.4,1.7-2.2,3.4-4.4,3.1c-7.8-1.1-17.1,3.3-22.4-6.4c-0.9-1.7-2.3-0.4-3.6-0.3
		c-3.6,0.4-6.6,2.1-9.9,3.2c-6.5,2.1-14.1,6.7-19.4,4.9c-10.9-3.7-21.6,1.1-32.2-2c-4.8-1.4-10.3-1.2-15.5-2.3
		c-6.7-1.5-13.5-5.6-20.2,0.7c-1.4,1.3-4.7,1.2-7,1c-4.9-0.3-9.6-1.8-11.7,5.1c-0.9,2.8-4.9,2.6-8.1,1.6c-8.5-2.6-16.9-5.9-26.1-3.1
		c-1,2.3-2.4,1-3.7,0.5c-2.1,0.2-4.2,0.4-6.3,0.6c-4.2,4.7-6.9,0-10-1.6c-5.9,1.4-11.5-0.7-17.2-1.7c-6.7-1.1-12.8-4.5-20.3,0.6
		c-5,3.4-14.2,3.1-19.2-1.7c-6.2-6-11.6-3.9-17.5-1.5c-8,3.2-16,6.6-25,4c-3.5-1-7-0.5-10.5,0c-10.6,1.6-20.9-1-31.2-2.7
		c-7.6-1.3-14.9-5.8-22.3,0.9c-1.4,1.3-4.8,0.9-7.2,0.6c-7-1-13.7-1.6-20.8,0.4c-4.7,1.3-10.4,0.6-15.5,0.2
		c-6.6-0.5-14.4-0.2-21.6,0.4c-5.3,0.4-7.8-6.5-12.1-5.6c-9.5,1.9-18.3-1.9-27.2-2.1c-11.2-0.3-22.5,0.3-33.6-1.9
		c-7-1.4-14.2-2.7-20.6-5.7c-3.3-1.6-6.8-1.7-7.9-0.1c-4.7,6.9-12.4,4.6-18.5,7.1c-11.7,4.9-24.4,2.9-36.7,3.5
		c-2,0.1-4.6-3.1-6.2-2.6c-11.8,4.1-12.7,4.3-21.6,2.6c-0.7-0.1-1.9,0-2.3,0.5c-3.1,4-6.3,1.3-9.5,0.4c-5.9,4.1-11,2.9-15.5-2.3
		c-3.8,2.6-7.5,5.3-11.4,7.8C4.4,23.4,0.2,29.5,0.1,40.5L0,40.7v521.6h1280.1V29.5C1280.1,28.3,1280.1,27.3,1280.1,26.3z"/>
</g>
<g id="Слой_2" class="st0">
</g>
</svg>
