<?xml version="1.0" encoding="utf-8"?>
<!-- Generator: Adobe Illustrator 22.0.1, SVG Export Plug-In . SVG Version: 6.00 Build 0)  -->
<svg version="1.1" xmlns="http://www.w3.org/2000/svg" xmlns:xlink="http://www.w3.org/1999/xlink" x="0px" y="0px"
	 viewBox="0 0 1481.4 1437.1" style="enable-background:new 0 0 1481.4 1437.1;" xml:space="preserve">
<style type="text/css">
	.st0{display:none;}
	.st1{clip-path:url(#XMLID_8_);fill:#010101;}
	.st2{clip-path:url(#XMLID_9_);}
	.st3{clip-path:url(#XMLID_10_);}
	.st4{clip-path:url(#XMLID_11_);}
	.st5{fill:#010101;}
	.st6{clip-path:url(#XMLID_12_);}
	.st7{fill:#FFFFFF;}
	.st8{fill:#6ACE6A;}
	.st9{fill:none;stroke:#000000;stroke-width:17;stroke-miterlimit:10;}
	.st10{fill:none;stroke:#000000;stroke-width:17;stroke-miterlimit:10;stroke-dasharray:34.0738,15.4881;}
	.st11{clip-path:url(#SVGID_2_);}
	.st12{fill:#FFFFFF;stroke:#000000;stroke-width:7;stroke-miterlimit:10;}
	.st13{fill:#FCFCFC;}
	.st14{clip-path:url(#XMLID_14_);fill:#010101;}
	.st15{fill:none;stroke:#FFFFFF;stroke-width:17;stroke-miterlimit:10;stroke-dasharray:33,15;}
	.st16{fill:#FFFFFF;stroke:#000000;stroke-width:6;stroke-miterlimit:10;}
	.st17{clip-path:url(#XMLID_15_);}
	.st18{fill:none;stroke:#000000;stroke-width:6;stroke-miterlimit:10;}
	.st19{clip-path:url(#XMLID_16_);}
	.st20{fill:#060606;}
	.st21{fill:#CD7779;}
	.st22{fill:#F4F2F9;}
	.st23{fill:#774F66;}
	.st24{clip-path:url(#XMLID_17_);}
	.st25{clip-path:url(#XMLID_17_);fill:#F4F2F9;}
	.st26{clip-path:url(#XMLID_17_);fill:none;stroke:#6ACE6A;stroke-width:2;stroke-miterlimit:10;}
	.st27{clip-path:url(#XMLID_17_);fill:#6ACE6A;}
	.st28{clip-path:url(#XMLID_18_);}
	.st29{fill:none;stroke:#C0BFC6;stroke-miterlimit:10;}
	.st30{clip-path:url(#SVGID_4_);}
	.st31{clip-path:url(#XMLID_20_);}
	.st32{clip-path:url(#XMLID_21_);fill:#FFFFFF;}
	.st33{clip-path:url(#XMLID_21_);fill:#131011;}
	.st34{clip-path:url(#XMLID_22_);}
	.st35{clip-path:url(#XMLID_23_);}
	.st36{clip-path:url(#XMLID_23_);fill:#6ACE6A;}
	.st37{clip-path:url(#XMLID_23_);fill:none;stroke:#FFFFFF;stroke-width:2;stroke-linejoin:round;stroke-miterlimit:10;}
	.st38{fill:#27262C;}
	.st39{fill:none;stroke:#565656;stroke-miterlimit:10;}
	.st40{fill:#2C2828;}
	.st41{clip-path:url(#XMLID_22_);fill:none;stroke:#000000;stroke-width:6;stroke-miterlimit:10;}
	.st42{clip-path:url(#XMLID_22_);fill:#131011;}
	.st43{clip-path:url(#XMLID_24_);}
	.st44{fill:#FFFFFF;stroke:#060606;stroke-width:4;stroke-miterlimit:10;}
	.st45{fill:#6ACE6A;stroke:#000000;stroke-width:4;stroke-miterlimit:10;}
	.st46{stroke:#060606;stroke-width:4;stroke-miterlimit:10;}
	.st47{fill:#FFFFFF;stroke:#060606;stroke-width:4;stroke-linecap:round;stroke-miterlimit:10;}
	.st48{fill:none;stroke:#010101;stroke-linecap:round;stroke-linejoin:round;stroke-miterlimit:10;}
	.st49{clip-path:url(#XMLID_25_);}
	.st50{fill:none;stroke:#010101;stroke-width:3;stroke-linejoin:round;stroke-miterlimit:10;}
	.st51{fill:#FFFFFF;stroke:#010101;stroke-width:3;stroke-linejoin:round;stroke-miterlimit:10;}
	.st52{fill:none;stroke:#010101;stroke-width:3;stroke-linecap:round;stroke-linejoin:round;stroke-miterlimit:10;}
	.st53{fill:none;stroke:#010101;stroke-width:2;stroke-linecap:round;stroke-linejoin:round;stroke-miterlimit:10;}
	.st54{clip-path:url(#XMLID_27_);}
	.st55{clip-path:url(#XMLID_29_);fill:#010101;}
	.st56{fill:none;stroke:#000000;stroke-width:17;stroke-miterlimit:10;stroke-dasharray:33,15;}
	.st57{fill:none;stroke:#010101;stroke-width:3;stroke-miterlimit:10;}
	.st58{fill:none;stroke:#FFFFFF;stroke-width:17;stroke-miterlimit:10;}
	.st59{fill:#010101;stroke:#010101;stroke-width:3;stroke-miterlimit:10;}
	.st60{stroke:#FFFFFF;stroke-width:3;stroke-miterlimit:10;}
	.st61{fill:none;stroke:#FFFFFF;stroke-width:3;stroke-miterlimit:10;}
	.st62{stroke:#FFFFFF;stroke-width:6;stroke-miterlimit:10;}
	.st63{stroke:#FFFFFF;stroke-width:14;stroke-miterlimit:10;}
	.st64{fill:#FFFFFF;stroke:#000000;stroke-width:14;stroke-miterlimit:10;}
	.st65{display:inline;opacity:0.4;}
	.st66{fill:#FF2727;}
	.st67{display:inline;}
</style>
<g id="Слой_1" class="st0">
</g>
<g id="Слой_3">
	<g>
		<path class="st15" d="M587.6,30.4c3.5,121.9,129.3,161.1,227.6,187.4c65.2,17.4,323.8,80.7,173.4,176.9
			c-73.5,47-165.5,56.8-240.4,101.4c-14.9,8.9-29.5,19.6-38.1,34.7c-15,26.4-7.9,61,10.2,85.3c18.1,24.3,45.1,40.2,72.4,53.6
			c192.3,94.1,432.3,67.4,605.9,201.3c106.7,82.3,100,243.2-29.1,294.1c-182.8,71.9-402.3,39.7-592.9,28.4
			c-90.3-5.3-322.3-23.7-356.2,104.3"/>
		<g>
			<path class="st7" d="M600.4,1157.9c1.2,0.5,1.6,1.5,1,2.6c-1.1,2.1-0.4,3,1.8,3.5c1.3,0.3,1.5,1.3,1.3,2.5
				c-0.3,1.8,0.4,2.6,2.1,2.5c1.7-0.1,2.5,0.7,2.6,2.3c0.2,1.6,1.1,2,2.5,1.5c1.5-0.5,2.6-0.2,3.2,1.4c0.7,1.8,1.8,2.3,3.6,0.9
				c1.1-0.6,2.1-0.3,3,0.8c1.2,1.5,2.3,1.6,3.7,0.2c0.9-1,2.2-1,3.2-0.1c1.5,1.3,2.6,1,3.6-0.7c0.7-1.2,1.8-1.5,3.1-0.8
				c1.8,0.9,2.9,0.2,3.4-1.6c0.3-1,1.1-1.8,1.9-1.6c3,0.8,3.7-0.6,3.9-3.2c0.1-1.1,1.4-1.3,2.6-1.3c1.3,0,2-0.9,1.7-2.1
				c-0.5-1.8-0.2-2.9,1.7-3.4c1.6-0.5,2.2-1.5,1.1-3c-0.2-0.2-0.5-0.7-0.5-0.7c3.4-2.5,0.2-6.3,1.9-9.1c0.7-1.2,0.5-1.9-0.6-2.6
				c-0.4-0.2-1.1-0.6-1.1-0.7c1.5-3.9-3.4-5.4-3.3-8.8c0-1.1-0.7-1.7-1.7-1.7c-1.9,0.1-3.2-0.2-3.3-2.6c0-1.4-1.2-1.7-2.3-1.4
				c-1.7,0.5-2.9,0.2-3.6-1.6c-0.6-1.5-1.7-1.5-3-0.9c-1.3,0.7-2.5,0.9-3.5-0.6c-1-1.5-2.2-1.4-3.4-0.3c-0.8,0.8-1.9,1.4-2.8,0.7
				c-2.1-1.6-3.3-1.3-4.7,0.9c-0.5,0.9-1.9,0.8-2.9,0.3c-1.6-0.7-2.6-0.2-3.1,1.4c-0.4,1.3-1.3,2-2.7,1.8c-1.8-0.3-2.9,0.2-2.9,2.3
				c0,1-0.6,1.9-1.5,2c-2.4,0.2-3.6,1-2.9,3.7c0.3,1.2-0.8,1.7-2,2c-1.3,0.3-1.9,1.3-1.3,2.3c1.2,1.8,0.7,3-0.9,4.1
				c-1,0.7-1.1,1.8-0.1,2.7c1.2,1.1,1.5,2.1,0.2,3.4C598.3,1156.1,598.8,1157.2,600.4,1157.9z M636.8,1145.9
				c0.5,5.4-3.4,1.1-4.8,2.3c0.8-1.6,0.9-3.6,2.7-4.5c0-0.2-0.1-0.4-0.2-0.6c0.1,0.2,0.1,0.4,0.2,0.6
				C635.4,1144.5,636.1,1145.2,636.8,1145.9z M632.8,1153.1c1.7-1.3,3.3-1.7,5-1.4c0.9,1.3,0.7,4.1,0.4,3.8c0,0-0.1,0.1-0.1,0.1
				C635.4,1156.7,634.3,1154.9,632.8,1153.1z M629.5,1156.5c2.1,1.1,3.9,1.3,5,2.9c-1.1,0.8-2.2,1.7-3.3,2.5
				C627.3,1161.1,630.1,1158.7,629.5,1156.5z M628.7,1140.6L628.7,1140.6c0.9,0.3,1.8,0.7,2.7,1c-0.5,1.9-2,3-4.4,4.4
				C627.9,1143.7,623,1141,628.7,1140.6z M619.9,1150.4c-2.3,0.9-3.9,1.9-5.9,1.6c0.2-1.1,0.3-2.2,0.5-3.3
				C617.5,1145.5,617.8,1149.6,619.9,1150.4z M622.3,1146.8c-1.2-1.5-4.5-0.3-3.9-3.7l0.3,0l0.1-0.3c1.3,0.1,2.4-2.2,3.5-1
				C623.3,1143,623.2,1144.9,622.3,1146.8z M620.8,1161.2c1.2-1.1,2.3-2.1,3.8-3.5c0.7,2,2.4,3.7,1,4.8
				C624.3,1163.4,622.2,1162.8,620.8,1161.2z M614.7,1156.4c0.2-1.2,1.2-1.2,2-1.3c1.1-0.1,2.6-1,3.2,0.4c0.5,1.2-0.7,2.2-1.4,3.1
				c-1.3,1.8-1.9-0.3-2.8-0.6C615.4,1157.5,615.1,1157,614.7,1156.4z"/>
			<path class="st7" d="M436.9,1141.3c0.4,0.8,1.3,0.3,2,0c0.7,0.5,1.4,0.2,2.1-0.1c0.8-0.3,1.8-1,2.5-0.2c0.6,0.7,0.3,1.7-0.3,2.5
				c-1.9,2.3-1.2,4.8-0.6,7.3c0.6,2.9,2.2,4.5,5.4,3.8c1.3-0.3,3.2-1.2,3.7,1.1c0.5,2.2-1.6,1.5-2.6,2.1c-2.9,1.6-0.6,4-0.6,6
				c0,1.3,0,3.5,2.4,2.8c3-0.8,3.1,1.1,3.4,3.1c0.3,1.6,0.6,3.2,1,4.9c0.5,2.2,2,3.1,4,2.7c2-0.3,3.4-1.8,2.8-3.9
				c-1-3.4,1-3.8,3.4-4.1c1.8-0.2,3.6-0.7,5.3-0.9c1.3-0.1,2.9-1.5,3.7-0.4c1.2,1.6-1,2.1-1.7,3c-0.6,0.9-0.6,1.6,0.3,2.3
				c1.1,0.8,1.6,1.9,0.6,3.1c-1.4,1.6-1.7,2.7,0.7,3.7c0.8,0.3,1.4,1.4,0.8,2.3c-1.4,2-0.6,3,1.5,3.5c1.5,0.4,1.7,1.5,1.4,2.8
				c-0.2,1,0.2,2.1,1.1,2.1c2.3,0,3.9,0.4,3.8,3.1c3.7-0.8,5.4,4.5,9.3,3.1c0.9-0.3,1.9-0.5,2.5,0.3c1.5,2.2,2.9,2.2,4.7,0.3
				c0.7-0.7,1.7-0.5,2.5,0.1c1.7,1.4,2.9,1.1,4-0.8c0.6-0.9,1.7-1.4,2.8-0.8c2,1.1,3.1,0.4,3.6-1.6c0.3-1.2,1.3-1.7,2.4-1.4
				c2.2,0.7,3.1-0.2,3.1-2.4c0-1.5,1-2.1,2.4-2.1c1.5,0,2.4-0.7,2-2.2c-0.5-1.9,0.1-2.8,1.9-3.3c1.4-0.4,1.9-1.5,1.1-2.8
				c-1-1.5-0.7-2.5,0.8-3.3c0.4-0.2,1-0.8,1-0.8c-1.7-2.6,0.2-7.3-0.5-7.7c-3.3-1.9,0-7.6-4.9-7.9c1.9-5.1-6.2-3.3-5.3-7.6
				c-3.8,1.8-5.3-4.7-9.3-2.5c-1,0.6-2,0.1-2.7-1c-1-1.4-2.1-1.5-3.4-0.3c-1,1-2.1,1.4-3.2,0.5c-1.7-1.4-2.9-1.3-4,0.6
				c-0.1,0.3-0.5,0.7-0.6,0.6c-4.2-2-5.8,3.8-9.7,3.2c-1.1-0.2-1.8,0.8-1.7,2.1c0.1,1.4-0.6,2.4-2,2.4c-2.3,0.1-2.7,1.2-2.3,3.3
				c0.4,1.9-1.3,2.2-2.6,2.4c-2.2,0.3-1.3-1.4-1.4-2.4c-0.4-3.4-0.8-6.9-1.1-10.3c-0.3-3.8,1.3-6.5,5.2-7.2
				c11.7-2.2,23.4-4.3,35.1-6.2c3.7-0.6,6.4,1,7.5,4.9c0.9,3.3,2.2,6.6,2.6,10c0.4,3.8,3.6,6.1,4.4,9.7c0.4,1.7,2.3,1.6,3.8,1.3
				c20.9-3.7,41.8-7.3,62.7-11c1-0.2,2.7-0.4,2.6-1.4c-0.4-3.6,2.7-6.3,2.3-9.9c-0.5-3.9-0.8-7.8-1.1-11.7c-0.3-4.5,1.6-7.2,6.1-8
				c11-2,21.9-3.9,32.9-5.7c5.7-0.9,7.7,0.5,9.2,6c1,3.6,2,7.2,2.7,10.9c0.5,2.7,1.6,3.5,4.3,3c6.6-1.3,13.3-2.4,20-3.5
				c3.3-0.5,5-2.1,4.2-5.5c-0.5-2.2,0.4-2.9,2.4-3.4c2.5-0.6,3-2.4,2.6-4.9c-2.7-15-5.3-29.9-7.8-44.9c-0.6-3.4-2.2-4.3-5.3-3.8
				c-3.7,0.7-7.4,1.5-11.1,2c-3.8,0.5-4.8,2.6-4,6c0.2,0.9,0.4,1.8,0.4,2.7c0.1,0.8,0.7,1.9-0.5,2.3c-1.2,0.4-1.5-0.6-1.8-1.4
				c-2.1-6.2-7.1-18.7-8-21.2c-3.6-9.9-9.5-19.1-10.1-30c-0.2-3.7-2.7-2.7-4.9-2.3c-21.4,3.7-42.7,7.4-64.1,11.1
				c-9.8,1.7-19.5,3.6-29.3,5.1c-3.4,0.5-4.3,1.9-3.6,5.1c0.6,2.9,1,5.9,1.5,8.9c0.2,1.1,0.3,2.2-1.2,2.5c-1.5,0.3-1.8-0.7-2-1.8
				c-0.3-2.5-1.2-4.8-0.3-7.5c1.3-4.3-0.8-7.3-5.2-8.3c-0.1,0-0.3-0.1-0.4-0.1c-9-1.8-10.6-0.3-9.1,8.4c0.1,0.3,0.1,0.6,0.2,0.9
				c1.2,6.8,1.3,7,8,4.5c2.8-1.1,3.3-0.3,3.6,2.2c0.5,4,0.4,7.5-1.6,11.5c-4.9,9.6-8.9,19.7-13.2,29.7c-0.9,2.1-2,3.2-4.3,4
				c-7.7,2.3-15.6,3.1-23.5,4.1c-2,0.2-4.6-0.2-5,3.1c-0.1,1.1-1.7,1-2.7,1.2c-3.8,1.1-7.5,2.4-11.3,3.1c-3.1,0.6-5.4,1.5-5.1,5.3
				c0.1,0.9-0.2,2-1.3,2c-4.3,0.2-3.1,2.9-2.7,5.4c1,5.6,2,11.2,3,16.9c-2.2-0.1-1.6-1.7-1.8-2.7c-1.3-6.7-2.4-13.3-3.6-20
				c-0.4-2.5-1.3-4.5-4.3-3.9c-3.1,0.6-3,2.9-2.6,5.3c0.8,4.6,1.6,9.2,2.3,13.8c0.2,1.2,1.2,2.7-0.5,3.6c-0.4,0.2-1.3,0.2-1.7-0.1
				c-1-0.9-0.8-2.2-0.7-3.4c0.4-6.5-2-8.4-8.7-6.6c-0.7,0-1.9-0.2-1.9,0.5C435.1,1135.5,435.5,1138.5,436.9,1141.3z M512.6,1168.1
				c0.1-0.1,0.2-0.3,0.3-0.4C512.8,1167.8,512.7,1168,512.6,1168.1L512.6,1168.1z M510.7,1169.4c-1,2.3-3.3,0.7-5.2,0.9
				c1.1-1.4,0.7-4.1,3.2-4C509.7,1166.4,511.2,1168.3,510.7,1169.4z M508.6,1177.4c-0.6-0.9-3.2-1.4-1.2-2.8
				c0.9-0.7,3.5-2.8,4.4,0.7c-0.4,1-0.8,2-1.3,3.1C509.9,1178.1,509,1177.9,508.6,1177.4z M503.5,1178.5c1.7,1.6,3.9,1.2,4.7,3.2
				c0.6-0.2,1.1-0.4,1.4-0.7c-0.4,0.3-0.9,0.5-1.4,0.7c-1.3,0.8-2.7,1.7-4,2.5C501.6,1182.7,503.4,1180.9,503.5,1178.5z
				 M499.9,1163.2c0.9-1.4,2.7,0.2,4.1-0.2c0.4,0.2,0.7,0.4,1.1,0.6c-0.6,2-2.1,2.9-3.7,3.9C500.4,1166,499.1,1164.5,499.9,1163.2z
				 M493.2,1172.9c-1.9,0.5-3.6,1-5.4,1.5c-0.6-1.8,0.6-3.3,0.8-5C490.8,1169.5,492,1171,493.2,1172.9z M496.2,1168.8
				c-1.2-1.6-4.6,0.1-4.4-3.3c0.8-0.5,1.6-1,2.3-1.5C499.2,1163.5,495,1167.2,496.2,1168.8z M494.8,1183.6c0-1.8,1.9-2.6,3.7-4.1
				c-0.2,2.2,2.6,3.6,0.2,5.6c-0.3,0-0.6,0-0.9,0C496.9,1184.3,494.9,1184.8,494.8,1183.6z M488.4,1178.5c1.4-2.1,3.7-2.1,5-1
				c1.1,0.9-0.9,2.4-1.5,3.6c-0.2,0.3-0.7,0.4-1.1,0.6C490,1180.7,489.2,1179.6,488.4,1178.5z M532.4,1095.4
				c2.2,12.3,2.1,12.3-10.5,13.2c-2.4,0.2-3-0.6-2.5-2.7c2.2-9.6,5.9-18.7,8.8-28.3c0.7,0.7,1,0.8,1,1
				C530.4,1084.2,531.4,1089.8,532.4,1095.4z M536.3,1070.7c9.6-1.6,19.2-3.3,28.9-5.1c1.9-0.3,3-0.2,3.3,2.2
				c1.3,9.7,2.7,19.3,4.3,29c0.4,2.4-0.4,3.2-2.7,3.5c-9.2,1.5-18.4,3-27.5,4.8c-2.6,0.5-3.4-0.3-3.7-2.8c-0.6-4.6-1.6-9.2-2.4-13.8
				c-0.8-4.7-1.6-9.5-2.5-14.2C533.5,1072.1,533.9,1071.1,536.3,1070.7z M554.3,1057c-0.1-0.4-0.1-0.5-0.2-0.9
				c6.9-1.2,27.2-4.8,27.2-4.8l0.2,1C572.5,1053.9,563.4,1055.4,554.3,1057z M550.4,1057.7c-4.4,0.8-8.8,1.5-13.3,2.3
				c0-0.3-0.1-0.6-0.1-0.8c4.4-0.8,8.8-1.5,13.3-2.3C550.3,1057.1,550.4,1057.4,550.4,1057.7z M549.3,1049.7c0.6,2.9-0.4,3.7-3,4
				c-2.2,0.2-4.5,0.5-6.6,1.2c-3.1,1-3.7-0.6-4.2-3.2c-0.6-2.9,0.4-3.8,3-3.9c1-0.1,2.1-0.3,3.1-0.5c1.2-0.2,2.4-0.3,3.5-0.6
				C548.1,1045.5,548.8,1047,549.3,1049.7z M580.2,1043.7c0.2,1.8,1.3,3.9-2,4.3c-3.7,0.5-7.4,1.2-11.1,1.9c0,0,0,0,0,0
				c-3.7,0.6-7.4,1.1-11.1,2c-3.1,0.7-3-1.4-3.4-3.2c-0.4-1.9-0.7-3.4,2-3.8c7.4-1.1,14.8-2.4,22.1-3.9
				C579.5,1040.5,580,1041.6,580.2,1043.7z M584.2,1062.3c8-1.3,16-2.7,24-4.2c2.4-0.5,3.2,0.3,3.5,2.6c0.7,4.6,1.6,9.2,2.4,13.8
				c0.9,4.9,1.6,9.8,2.6,14.7c0.4,2.1-0.1,3-2.3,3.3c-8.5,1.4-16.9,2.9-25.3,4.4c-1.9,0.3-2.7-0.1-2.9-2.1
				c-1.3-9.8-2.7-19.7-4.1-29.5C581.7,1063.5,582.2,1062.7,584.2,1062.3z M585.4,1051.6c-0.1-0.3-0.1-0.6-0.2-0.9
				c9-1.6,18-3.1,27-4.7c0.1,0.3,0.1,0.6,0.2,0.9C603.4,1048.4,594.4,1050,585.4,1051.6z M608.8,1042.7c-3.6,0.4-7.1,1.2-10.7,1.8
				c-3.7,0.6-7.4,1.1-11.1,2c-3.3,0.8-2.8-1.7-3.2-3.4c-0.5-1.9-0.6-3.3,2.1-3.7c7.3-1.1,14.5-2.3,21.7-3.8c3-0.6,3.1,1.1,3.5,3.1
				C611.6,1040.8,611.8,1042.4,608.8,1042.7z M618.5,1056.4c1.6,0,3.6-1.7,4.6,0.9c3.2,8,6.1,16,4.7,24.8c-0.5,3.3-1.8,6.2-5.5,8.2
				c-1.9-10.8-3.7-21.3-5.6-31.7C616.5,1057.2,617,1056.4,618.5,1056.4z M616.2,1046.1c-0.1-0.3-0.1-0.6-0.2-0.9
				c5.1-0.9,10.2-1.8,15.4-2.7c0.1,0.3,0.2,0.6,0.3,0.9C626.5,1044.3,621.3,1045.2,616.2,1046.1z M626.7,1039.6
				c-1.2,0-2.3,0.4-3.5,0.6c-1.3,0.2-2.7,0.3-4,0.7c-2.9,0.9-4.1,0.1-4.7-3.1c-0.7-3.5,1.1-3.7,3.5-4c3.1-0.5,6.2-1,9.2-1.6
				c1.8-0.4,2.6-0.1,3.1,1.9C631.1,1037.5,630.7,1039.6,626.7,1039.6z"/>
		</g>
		<path class="st56" d="M1,1421.9c0,0,400.7,47.4,417-110.2"/>
		<path class="st64" d="M603.2,34.3L610.7,7h-50.5l6.6,25.9C566.8,32.9,580.8,47.6,603.2,34.3z"/>
	</g>
</g>
<g id="Слой_2" class="st0">
</g>
</svg>
