<?xml version="1.0" encoding="utf-8"?>
<!-- Generator: Adobe Illustrator 22.0.1, SVG Export Plug-In . SVG Version: 6.00 Build 0)  -->
<svg version="1.1" xmlns="http://www.w3.org/2000/svg" xmlns:xlink="http://www.w3.org/1999/xlink" x="0px" y="0px"
	 viewBox="0 0 158 158" style="enable-background:new 0 0 158 158;" xml:space="preserve">
<style type="text/css">
	.st0{display:none;}
	.st1{clip-path:url(#XMLID_22_);fill:#010101;}
	.st2{clip-path:url(#XMLID_23_);}
	.st3{clip-path:url(#XMLID_24_);}
	.st4{clip-path:url(#XMLID_33_);}
	.st5{fill:#010101;}
	.st6{clip-path:url(#XMLID_34_);}
	.st7{fill:#FFFFFF;}
	.st8{fill:#6ACE6A;}
	.st9{fill:none;stroke:#000000;stroke-width:17;stroke-miterlimit:10;}
	.st10{fill:none;stroke:#000000;stroke-width:17;stroke-miterlimit:10;stroke-dasharray:34.0738,15.4881;}
	.st11{clip-path:url(#SVGID_4_);}
	.st12{fill:#FFFFFF;stroke:#000000;stroke-width:7;stroke-miterlimit:10;}
	.st13{fill:#FCFCFC;}
	.st14{clip-path:url(#XMLID_64_);fill:#010101;}
	.st15{fill:none;stroke:#FFFFFF;stroke-width:17;stroke-miterlimit:10;stroke-dasharray:33,15;}
	.st16{fill:#FFFFFF;stroke:#000000;stroke-width:6;stroke-miterlimit:10;}
	.st17{clip-path:url(#XMLID_65_);}
	.st18{fill:none;stroke:#000000;stroke-width:6;stroke-miterlimit:10;}
	.st19{clip-path:url(#XMLID_66_);}
	.st20{fill:#060606;}
	.st21{fill:#CD7779;}
	.st22{fill:#F4F2F9;}
	.st23{fill:#774F66;}
	.st24{clip-path:url(#XMLID_67_);}
	.st25{clip-path:url(#XMLID_67_);fill:#F4F2F9;}
	.st26{clip-path:url(#XMLID_67_);fill:none;stroke:#6ACE6A;stroke-width:2;stroke-miterlimit:10;}
	.st27{clip-path:url(#XMLID_67_);fill:#6ACE6A;}
	.st28{clip-path:url(#XMLID_68_);}
	.st29{fill:none;stroke:#C0BFC6;stroke-miterlimit:10;}
	.st30{clip-path:url(#SVGID_5_);}
	.st31{clip-path:url(#XMLID_70_);}
	.st32{clip-path:url(#XMLID_71_);fill:#FFFFFF;}
	.st33{clip-path:url(#XMLID_71_);fill:#131011;}
	.st34{clip-path:url(#XMLID_72_);}
	.st35{clip-path:url(#XMLID_73_);}
	.st36{clip-path:url(#XMLID_73_);fill:#6ACE6A;}
	.st37{clip-path:url(#XMLID_73_);fill:none;stroke:#FFFFFF;stroke-width:2;stroke-linejoin:round;stroke-miterlimit:10;}
	.st38{fill:#27262C;}
	.st39{fill:none;stroke:#565656;stroke-miterlimit:10;}
	.st40{fill:#2C2828;}
	.st41{clip-path:url(#XMLID_72_);fill:none;stroke:#000000;stroke-width:6;stroke-miterlimit:10;}
	.st42{clip-path:url(#XMLID_72_);fill:#131011;}
	.st43{clip-path:url(#XMLID_74_);}
	.st44{fill:#FFFFFF;stroke:#060606;stroke-width:4;stroke-miterlimit:10;}
	.st45{fill:#6ACE6A;stroke:#000000;stroke-width:4;stroke-miterlimit:10;}
	.st46{stroke:#060606;stroke-width:4;stroke-miterlimit:10;}
	.st47{fill:#FFFFFF;stroke:#060606;stroke-width:4;stroke-linecap:round;stroke-miterlimit:10;}
	.st48{clip-path:url(#XMLID_75_);}
	.st49{clip-path:url(#XMLID_76_);}
	.st50{clip-path:url(#XMLID_77_);}
	.st51{clip-path:url(#XMLID_77_);fill:#F4F2F9;}
	.st52{clip-path:url(#XMLID_77_);fill:none;stroke:#6ACE6A;stroke-width:2;stroke-miterlimit:10;}
	.st53{clip-path:url(#XMLID_77_);fill:#6ACE6A;}
	.st54{clip-path:url(#XMLID_78_);}
	.st55{clip-path:url(#SVGID_6_);}
	.st56{clip-path:url(#XMLID_80_);}
	.st57{clip-path:url(#XMLID_81_);fill:#FFFFFF;}
	.st58{clip-path:url(#XMLID_81_);fill:#131011;}
	.st59{clip-path:url(#XMLID_82_);}
	.st60{clip-path:url(#XMLID_83_);}
	.st61{clip-path:url(#XMLID_83_);fill:#6ACE6A;}
	.st62{clip-path:url(#XMLID_83_);fill:none;stroke:#FFFFFF;stroke-width:2;stroke-linejoin:round;stroke-miterlimit:10;}
	.st63{clip-path:url(#XMLID_82_);fill:none;stroke:#000000;stroke-width:6;stroke-miterlimit:10;}
	.st64{clip-path:url(#XMLID_82_);fill:#131011;}
	.st65{clip-path:url(#XMLID_84_);}
	.st66{fill:none;stroke:#010101;stroke-linecap:round;stroke-linejoin:round;stroke-miterlimit:10;}
	.st67{clip-path:url(#XMLID_85_);}
	.st68{fill:none;stroke:#010101;stroke-width:3;stroke-linejoin:round;stroke-miterlimit:10;}
	.st69{fill:#FFFFFF;stroke:#010101;stroke-width:3;stroke-linejoin:round;stroke-miterlimit:10;}
	.st70{fill:none;stroke:#010101;stroke-width:3;stroke-linecap:round;stroke-linejoin:round;stroke-miterlimit:10;}
	.st71{fill:none;stroke:#010101;stroke-width:2;stroke-linecap:round;stroke-linejoin:round;stroke-miterlimit:10;}
	.st72{clip-path:url(#XMLID_87_);}
	.st73{clip-path:url(#XMLID_89_);fill:#010101;}
	.st74{fill:none;stroke:#000000;stroke-width:17;stroke-miterlimit:10;stroke-dasharray:33,15;}
	.st75{fill:none;stroke:#010101;stroke-width:3;stroke-miterlimit:10;}
	.st76{fill:none;stroke:#FFFFFF;stroke-width:17;stroke-miterlimit:10;}
	.st77{fill:#010101;stroke:#010101;stroke-width:3;stroke-miterlimit:10;}
	.st78{stroke:#FFFFFF;stroke-width:3;stroke-miterlimit:10;}
	.st79{fill:none;stroke:#FFFFFF;stroke-width:3;stroke-miterlimit:10;}
	.st80{stroke:#FFFFFF;stroke-width:6;stroke-miterlimit:10;}
	.st81{stroke:#FFFFFF;stroke-width:14;stroke-miterlimit:10;}
	.st82{fill:#FFFFFF;stroke:#000000;stroke-width:14;stroke-miterlimit:10;}
	.st83{display:inline;opacity:0.4;}
	.st84{fill:#FF2727;}
	.st85{display:inline;}
</style>
<g id="Слой_1" class="st0">
</g>
<g id="Слой_3">
	<g>
		<g>
			<defs>
				<circle id="XMLID_26_" cx="79" cy="79" r="75"/>
			</defs>
			<clipPath id="XMLID_22_">
				<use xlink:href="#XMLID_26_"  style="overflow:visible;"/>
			</clipPath>
			<g style="clip-path:url(#XMLID_22_);">
				<path class="st8" d="M2.2,156.5h-18.4c0,0-19-28.8-9.2-65.6l91.5-16.1l71.9,1.7l-9,7.9l-76.1,17.5l9.2,23l55.8,29.9L2.2,156.5z"
					/>
				<path class="st8" d="M169,154.8c0,0,0.1,0,0.1,0c12.1-20.8,15.4-46.7,8.8-69.9c-0.7-2.3-26.1-1.6-29.1-1.6
					c-10.3,0.1-20.6,1-30.8,2.6c-10.2,1.6-20.3,3.9-30.1,6.9c-7.4,2.2-18.3,4.9-21.4,13.2c-2.1,5.8,2,12.1,6.4,16.4
					c6,5.8,13.2,10.3,20.4,14.5c4.7,2.8,9.5,5.5,14.7,7.2c4,1.3,8.2,2,12.3,2.7C136.6,149.5,152.8,152.1,169,154.8z"/>
				<g>
					<path class="st7" d="M71.8,4.6c0,0,57.5-6.9,93.8,48.9L54.6,69L-22,76.5C-22,76.5-4.7,8,71.8,4.6z"/>
				</g>
				<g>
					<path class="st7" d="M2.2,156.5c0,0-46.6-40.8,22.4-61.6c0,0,43.2-11.5,110.5-13.8l27.6,1.7c0,0-71.6,7.8-88.9,22.2
						s16.1,29.9,95.5,50.1L2.2,156.5z"/>
				</g>
				<g>
					<path d="M-25.4,90.9c0,0,132.9-16.1,203.7-5.8c0,0-2.9-18.4-12.7-31.6c0,0-37.4-36.8-78.8-18.4c0,0-14.4,10.4-21.9,22.4
						c-7.5,12.1-28.8,6.9-38,0s-36.2,0-48.9,19L-25.4,90.9z"/>
				</g>
			</g>
		</g>
		<circle id="XMLID_25_" class="st18" cx="79" cy="79" r="75"/>
	</g>
</g>
<g id="Слой_2" class="st0">
</g>
</svg>
