<?xml version="1.0" encoding="utf-8"?>
<!-- Generator: Adobe Illustrator 22.0.1, SVG Export Plug-In . SVG Version: 6.00 Build 0)  -->
<svg version="1.1" xmlns="http://www.w3.org/2000/svg" xmlns:xlink="http://www.w3.org/1999/xlink" x="0px" y="0px"
	 viewBox="0 0 158 158" style="enable-background:new 0 0 158 158;" xml:space="preserve">
<style type="text/css">
	.st0{display:none;}
	.st1{clip-path:url(#XMLID_22_);fill:#010101;}
	.st2{clip-path:url(#XMLID_23_);}
	.st3{clip-path:url(#XMLID_24_);}
	.st4{clip-path:url(#XMLID_33_);}
	.st5{fill:#010101;}
	.st6{clip-path:url(#XMLID_34_);}
	.st7{fill:#FFFFFF;}
	.st8{fill:#6ACE6A;}
	.st9{fill:none;stroke:#000000;stroke-width:17;stroke-miterlimit:10;}
	.st10{fill:none;stroke:#000000;stroke-width:17;stroke-miterlimit:10;stroke-dasharray:34.0738,15.4881;}
	.st11{clip-path:url(#SVGID_4_);}
	.st12{fill:#FFFFFF;stroke:#000000;stroke-width:7;stroke-miterlimit:10;}
	.st13{fill:#FCFCFC;}
	.st14{clip-path:url(#XMLID_64_);fill:#010101;}
	.st15{fill:none;stroke:#FFFFFF;stroke-width:17;stroke-miterlimit:10;stroke-dasharray:33,15;}
	.st16{fill:#FFFFFF;stroke:#000000;stroke-width:6;stroke-miterlimit:10;}
	.st17{clip-path:url(#XMLID_65_);}
	.st18{fill:none;stroke:#000000;stroke-width:6;stroke-miterlimit:10;}
	.st19{clip-path:url(#XMLID_66_);}
	.st20{fill:#060606;}
	.st21{fill:#CD7779;}
	.st22{fill:#F4F2F9;}
	.st23{fill:#774F66;}
	.st24{clip-path:url(#XMLID_67_);}
	.st25{clip-path:url(#XMLID_67_);fill:#F4F2F9;}
	.st26{clip-path:url(#XMLID_67_);fill:none;stroke:#6ACE6A;stroke-width:2;stroke-miterlimit:10;}
	.st27{clip-path:url(#XMLID_67_);fill:#6ACE6A;}
	.st28{clip-path:url(#XMLID_68_);}
	.st29{fill:none;stroke:#C0BFC6;stroke-miterlimit:10;}
	.st30{clip-path:url(#SVGID_5_);}
	.st31{clip-path:url(#XMLID_70_);}
	.st32{clip-path:url(#XMLID_71_);fill:#FFFFFF;}
	.st33{clip-path:url(#XMLID_71_);fill:#131011;}
	.st34{clip-path:url(#XMLID_72_);}
	.st35{clip-path:url(#XMLID_73_);}
	.st36{clip-path:url(#XMLID_73_);fill:#6ACE6A;}
	.st37{clip-path:url(#XMLID_73_);fill:none;stroke:#FFFFFF;stroke-width:2;stroke-linejoin:round;stroke-miterlimit:10;}
	.st38{fill:#27262C;}
	.st39{fill:none;stroke:#565656;stroke-miterlimit:10;}
	.st40{fill:#2C2828;}
	.st41{clip-path:url(#XMLID_72_);fill:none;stroke:#000000;stroke-width:6;stroke-miterlimit:10;}
	.st42{clip-path:url(#XMLID_72_);fill:#131011;}
	.st43{clip-path:url(#XMLID_74_);}
	.st44{fill:#FFFFFF;stroke:#060606;stroke-width:4;stroke-miterlimit:10;}
	.st45{fill:#6ACE6A;stroke:#000000;stroke-width:4;stroke-miterlimit:10;}
	.st46{stroke:#060606;stroke-width:4;stroke-miterlimit:10;}
	.st47{fill:#FFFFFF;stroke:#060606;stroke-width:4;stroke-linecap:round;stroke-miterlimit:10;}
	.st48{clip-path:url(#XMLID_75_);}
	.st49{clip-path:url(#XMLID_76_);}
	.st50{clip-path:url(#XMLID_77_);}
	.st51{clip-path:url(#XMLID_77_);fill:#F4F2F9;}
	.st52{clip-path:url(#XMLID_77_);fill:none;stroke:#6ACE6A;stroke-width:2;stroke-miterlimit:10;}
	.st53{clip-path:url(#XMLID_77_);fill:#6ACE6A;}
	.st54{clip-path:url(#XMLID_78_);}
	.st55{clip-path:url(#SVGID_6_);}
	.st56{clip-path:url(#XMLID_80_);}
	.st57{clip-path:url(#XMLID_81_);fill:#FFFFFF;}
	.st58{clip-path:url(#XMLID_81_);fill:#131011;}
	.st59{clip-path:url(#XMLID_82_);}
	.st60{clip-path:url(#XMLID_83_);}
	.st61{clip-path:url(#XMLID_83_);fill:#6ACE6A;}
	.st62{clip-path:url(#XMLID_83_);fill:none;stroke:#FFFFFF;stroke-width:2;stroke-linejoin:round;stroke-miterlimit:10;}
	.st63{clip-path:url(#XMLID_82_);fill:none;stroke:#000000;stroke-width:6;stroke-miterlimit:10;}
	.st64{clip-path:url(#XMLID_82_);fill:#131011;}
	.st65{clip-path:url(#XMLID_84_);}
	.st66{fill:none;stroke:#010101;stroke-linecap:round;stroke-linejoin:round;stroke-miterlimit:10;}
	.st67{clip-path:url(#XMLID_85_);}
	.st68{fill:none;stroke:#010101;stroke-width:3;stroke-linejoin:round;stroke-miterlimit:10;}
	.st69{fill:#FFFFFF;stroke:#010101;stroke-width:3;stroke-linejoin:round;stroke-miterlimit:10;}
	.st70{fill:none;stroke:#010101;stroke-width:3;stroke-linecap:round;stroke-linejoin:round;stroke-miterlimit:10;}
	.st71{fill:none;stroke:#010101;stroke-width:2;stroke-linecap:round;stroke-linejoin:round;stroke-miterlimit:10;}
	.st72{clip-path:url(#XMLID_87_);}
	.st73{clip-path:url(#XMLID_89_);fill:#010101;}
	.st74{fill:none;stroke:#000000;stroke-width:17;stroke-miterlimit:10;stroke-dasharray:33,15;}
	.st75{fill:none;stroke:#010101;stroke-width:3;stroke-miterlimit:10;}
	.st76{fill:none;stroke:#FFFFFF;stroke-width:17;stroke-miterlimit:10;}
	.st77{fill:#010101;stroke:#010101;stroke-width:3;stroke-miterlimit:10;}
	.st78{stroke:#FFFFFF;stroke-width:3;stroke-miterlimit:10;}
	.st79{fill:none;stroke:#FFFFFF;stroke-width:3;stroke-miterlimit:10;}
	.st80{stroke:#FFFFFF;stroke-width:6;stroke-miterlimit:10;}
	.st81{stroke:#FFFFFF;stroke-width:14;stroke-miterlimit:10;}
	.st82{fill:#FFFFFF;stroke:#000000;stroke-width:14;stroke-miterlimit:10;}
	.st83{display:inline;opacity:0.4;}
	.st84{fill:#FF2727;}
	.st85{display:inline;}
</style>
<g id="Слой_1" class="st0">
</g>
<g id="Слой_3">
	<g>
		<circle id="XMLID_6_" class="st16" cx="79" cy="79" r="75"/>
		<g>
			<defs>
				<circle id="XMLID_8_" cx="79" cy="79" r="75"/>
			</defs>
			<clipPath id="XMLID_22_">
				<use xlink:href="#XMLID_8_"  style="overflow:visible;"/>
			</clipPath>
			<g style="clip-path:url(#XMLID_22_);">
				<g>
					<path class="st44" d="M60.4,72.9c0,0-5.3-3.6,0.1-14.3c0,0,3.8-4.6,7.7,0C68.2,58.7,60.4,72.7,60.4,72.9z"/>
					<path class="st44" d="M109.5,96.2c0,0,6.9,1.5,9.9-4.6s1.5-6.9-5.4-6.1L109.5,96.2z"/>
					<path class="st45" d="M68.2,100.8c0,0-12.2-1.5-16.8,0c0,0-19.9-5.4-19.1,1.5l1.5,5.7l5.4,8c0,0,6.1-4.6,16.1,2.3
						c0,0,3.1,11.6,0,15.8l45.1,2.6c0,0-3.1-13.8,4.6-19.1c7.7-5.4,13-1.5,17.6,0c0,0,5.4-12.2,3.8-14.5s-9.9-3.8-16.8-0.8
						l-13.8-0.8L68.2,100.8z"/>
					<path class="st46" d="M54.8,135.6c0-2.3,6.1-19.9,26.8-17.6s21.4,19.1,21.4,19.1h6.1c-4.6-23.7-19.1-24.5-38.3-23.9
						s-23.3,21.2-23.3,21.2L54.8,135.6z"/>
					<path class="st44" d="M68.9,58.7c0,0-13.8,13.8-8.4,29.1l6.1,12.2c0,0,3.8,11.5,20.3,8.4s22.6-12.2,22.6-12.2
						s11.5-17.6,9.9-27.5s-11.5-26-29.8-23C71.2,48.7,68.9,58.7,68.9,58.7z"/>
					<path class="st47" d="M72.3,91.4c0,0,2.1,13.3,16.3,7.6"/>
					<path class="st44" d="M24.9,118c0,0,0.8,8.4,20.7,9.2c0,0,12-3.1,12.5,3.4c0,0,0.5,5.7,5.1-1.9c0,0,1.5,2.3,4.6-1.5
						c0,0,6.9-3.8,5.4-8.4c-1.5-4.6-9.2-7.7-13.8-3.8c-4.6,3.8-6.1,7.7-6.1,7.7s-15.3-3.1-16.8-4.6s2.3-2.3,2.3-2.3l-5.4-9.4
						C33.2,106.3,23.4,111.9,24.9,118z"/>
					<path class="st44" d="M125.8,108.4c0,0,10,3.5,7,11.1s-12.2,8.4-19.9,8.4s-10.7-1.5-10.7-1.5s-3.1-2.3-3.8,1.5
						c-0.8,3.8-4.6,4.6-7.7,0s-7.7-12.2-3.8-13c3.8-0.8,13,0,13,0s6.1,3.1,5.4,7.7c0,0,13.8-1.5,17.6-4.6
						C122.9,118,118.1,109.5,125.8,108.4z"/>
					<path class="st20" d="M109.1,34.6c0,0,9.2-4.6,15.3-2.3c0,0-6.9,1.5-7.7,4.6c0,0,19.1-5.4,16.1,32.1c0,0-0.8,14.3-17.6,16.7
						c0,0,2.3-10.6-2.3-14.4c0,0-0.8,10.7-5.4,14.5c0,0-16.8-3.8-20.7-27.5c0,0-9.9,5.4-15.3,4.6c0,0,4.6-7.7,5.4-10.7
						c0,0-5.4,2.3-8.4,7.7c0,0-7.7,0-4.6-16.8c0,0,6.1-16.8,29.1-16.1c0,0-1.5-4.6-6.1-6.1c0,0,16.8,3.1,17.6,9.2c0,0,3.8-3.1,0-6.1
						C104.5,23.9,112.2,23.9,109.1,34.6z"/>
				</g>
				<polygon class="st20" points="-27.5,131.9 190.8,131.9 190.8,151.4 95.7,166.1 -15,157.4 				"/>
			</g>
		</g>
	</g>
</g>
<g id="Слой_2" class="st0">
</g>
</svg>
