<?xml version="1.0" encoding="utf-8"?>
<!-- Generator: Adobe Illustrator 22.0.1, SVG Export Plug-In . SVG Version: 6.00 Build 0)  -->
<svg version="1.1" xmlns="http://www.w3.org/2000/svg" xmlns:xlink="http://www.w3.org/1999/xlink" x="0px" y="0px"
	 viewBox="0 0 158 158" style="enable-background:new 0 0 158 158;" xml:space="preserve">
<style type="text/css">
	.st0{display:none;}
	.st1{clip-path:url(#XMLID_22_);fill:#010101;}
	.st2{clip-path:url(#XMLID_23_);}
	.st3{clip-path:url(#XMLID_24_);}
	.st4{clip-path:url(#XMLID_33_);}
	.st5{fill:#010101;}
	.st6{clip-path:url(#XMLID_34_);}
	.st7{fill:#FFFFFF;}
	.st8{fill:#6ACE6A;}
	.st9{fill:none;stroke:#000000;stroke-width:17;stroke-miterlimit:10;}
	.st10{fill:none;stroke:#000000;stroke-width:17;stroke-miterlimit:10;stroke-dasharray:34.0738,15.4881;}
	.st11{clip-path:url(#SVGID_4_);}
	.st12{fill:#FFFFFF;stroke:#000000;stroke-width:7;stroke-miterlimit:10;}
	.st13{fill:#FCFCFC;}
	.st14{clip-path:url(#XMLID_64_);fill:#010101;}
	.st15{fill:none;stroke:#FFFFFF;stroke-width:17;stroke-miterlimit:10;stroke-dasharray:33,15;}
	.st16{fill:#FFFFFF;stroke:#000000;stroke-width:6;stroke-miterlimit:10;}
	.st17{clip-path:url(#XMLID_65_);}
	.st18{fill:none;stroke:#000000;stroke-width:6;stroke-miterlimit:10;}
	.st19{clip-path:url(#XMLID_66_);}
	.st20{fill:#060606;}
	.st21{fill:#CD7779;}
	.st22{fill:#F4F2F9;}
	.st23{fill:#774F66;}
	.st24{clip-path:url(#XMLID_67_);}
	.st25{clip-path:url(#XMLID_67_);fill:#F4F2F9;}
	.st26{clip-path:url(#XMLID_67_);fill:none;stroke:#6ACE6A;stroke-width:2;stroke-miterlimit:10;}
	.st27{clip-path:url(#XMLID_67_);fill:#6ACE6A;}
	.st28{clip-path:url(#XMLID_68_);}
	.st29{fill:none;stroke:#C0BFC6;stroke-miterlimit:10;}
	.st30{clip-path:url(#SVGID_5_);}
	.st31{clip-path:url(#XMLID_70_);}
	.st32{clip-path:url(#XMLID_71_);fill:#FFFFFF;}
	.st33{clip-path:url(#XMLID_71_);fill:#131011;}
	.st34{clip-path:url(#XMLID_72_);}
	.st35{clip-path:url(#XMLID_73_);}
	.st36{clip-path:url(#XMLID_73_);fill:#6ACE6A;}
	.st37{clip-path:url(#XMLID_73_);fill:none;stroke:#FFFFFF;stroke-width:2;stroke-linejoin:round;stroke-miterlimit:10;}
	.st38{fill:#27262C;}
	.st39{fill:none;stroke:#565656;stroke-miterlimit:10;}
	.st40{fill:#2C2828;}
	.st41{clip-path:url(#XMLID_72_);fill:none;stroke:#000000;stroke-width:6;stroke-miterlimit:10;}
	.st42{clip-path:url(#XMLID_72_);fill:#131011;}
	.st43{clip-path:url(#XMLID_74_);}
	.st44{fill:#FFFFFF;stroke:#060606;stroke-width:4;stroke-miterlimit:10;}
	.st45{fill:#6ACE6A;stroke:#000000;stroke-width:4;stroke-miterlimit:10;}
	.st46{stroke:#060606;stroke-width:4;stroke-miterlimit:10;}
	.st47{fill:#FFFFFF;stroke:#060606;stroke-width:4;stroke-linecap:round;stroke-miterlimit:10;}
	.st48{clip-path:url(#XMLID_75_);}
	.st49{clip-path:url(#XMLID_76_);}
	.st50{clip-path:url(#XMLID_77_);}
	.st51{clip-path:url(#XMLID_77_);fill:#F4F2F9;}
	.st52{clip-path:url(#XMLID_77_);fill:none;stroke:#6ACE6A;stroke-width:2;stroke-miterlimit:10;}
	.st53{clip-path:url(#XMLID_77_);fill:#6ACE6A;}
	.st54{clip-path:url(#XMLID_78_);}
	.st55{clip-path:url(#SVGID_6_);}
	.st56{clip-path:url(#XMLID_80_);}
	.st57{clip-path:url(#XMLID_81_);fill:#FFFFFF;}
	.st58{clip-path:url(#XMLID_81_);fill:#131011;}
	.st59{clip-path:url(#XMLID_82_);}
	.st60{clip-path:url(#XMLID_83_);}
	.st61{clip-path:url(#XMLID_83_);fill:#6ACE6A;}
	.st62{clip-path:url(#XMLID_83_);fill:none;stroke:#FFFFFF;stroke-width:2;stroke-linejoin:round;stroke-miterlimit:10;}
	.st63{clip-path:url(#XMLID_82_);fill:none;stroke:#000000;stroke-width:6;stroke-miterlimit:10;}
	.st64{clip-path:url(#XMLID_82_);fill:#131011;}
	.st65{clip-path:url(#XMLID_84_);}
	.st66{fill:none;stroke:#010101;stroke-linecap:round;stroke-linejoin:round;stroke-miterlimit:10;}
	.st67{clip-path:url(#XMLID_85_);}
	.st68{fill:none;stroke:#010101;stroke-width:3;stroke-linejoin:round;stroke-miterlimit:10;}
	.st69{fill:#FFFFFF;stroke:#010101;stroke-width:3;stroke-linejoin:round;stroke-miterlimit:10;}
	.st70{fill:none;stroke:#010101;stroke-width:3;stroke-linecap:round;stroke-linejoin:round;stroke-miterlimit:10;}
	.st71{fill:none;stroke:#010101;stroke-width:2;stroke-linecap:round;stroke-linejoin:round;stroke-miterlimit:10;}
	.st72{clip-path:url(#XMLID_87_);}
	.st73{clip-path:url(#XMLID_89_);fill:#010101;}
	.st74{fill:none;stroke:#000000;stroke-width:17;stroke-miterlimit:10;stroke-dasharray:33,15;}
	.st75{fill:none;stroke:#010101;stroke-width:3;stroke-miterlimit:10;}
	.st76{fill:none;stroke:#FFFFFF;stroke-width:17;stroke-miterlimit:10;}
	.st77{fill:#010101;stroke:#010101;stroke-width:3;stroke-miterlimit:10;}
	.st78{stroke:#FFFFFF;stroke-width:3;stroke-miterlimit:10;}
	.st79{fill:none;stroke:#FFFFFF;stroke-width:3;stroke-miterlimit:10;}
	.st80{stroke:#FFFFFF;stroke-width:6;stroke-miterlimit:10;}
	.st81{stroke:#FFFFFF;stroke-width:14;stroke-miterlimit:10;}
	.st82{fill:#FFFFFF;stroke:#000000;stroke-width:14;stroke-miterlimit:10;}
	.st83{display:inline;opacity:0.4;}
	.st84{fill:#FF2727;}
	.st85{display:inline;}
</style>
<g id="Слой_1" class="st0">
</g>
<g id="Слой_3">
	<g>
		<circle id="XMLID_9_" class="st16" cx="79" cy="79" r="75"/>
		<g>
			<defs>
				<circle id="XMLID_10_" cx="79" cy="79" r="75"/>
			</defs>
			<clipPath id="XMLID_22_">
				<use xlink:href="#XMLID_10_"  style="overflow:visible;"/>
			</clipPath>
			<g style="clip-path:url(#XMLID_22_);">
				<path d="M69.2,91.6c0,0-2.9,2.5,1.7,4.2c0,0,28.4,10.1,50.9,15c0,0,5.2,1.8,6.5-1.6C129.6,105.7,71.7,88.8,69.2,91.6z"/>
				<path d="M62.1,79.3c0,0-1.1,1.7-1.7,4.4c-0.7,2.7-5.7,19.1-5.7,19.1s-0.6,1.6,1.3,2.2s8.1,2.4,8.1,2.4s1.3,0.5,1.7-1.9l4.1-13.8
					L62.1,79.3z"/>
				<path d="M138.5,100.4c0,0,0.5,0.4,0.1,1.7s-4,16.9-6.9,23.2c0,0-0.7,1.8-2.3,1.3l-7.5-2.2c0,0-1.1-1.5-0.5-3
					c0.6-1.5,4.1-13.8,4.1-13.8L138.5,100.4z"/>
				<g>
					<defs>
						<path id="XMLID_11_" d="M87,39.3c0,0,1.7-3.8,6.9-2.3c5.2,1.5,33,7.4,45.7,14.6c0,0,1.8,0.4,1.7,3.9
							c-0.2,3.5-0.7,11.9-0.7,11.9l1.2,0.3c0,0-0.2-0.6,2,0c2.2,0.7,7.3,1.5,7.1,3.9c-0.2,2.5-0.5,3.9-2.2,3.7c-1.8-0.2-8.2-3-9-1.8
							c0,0,2.4,2.4,0.5,14.3c0,0,2.1,0.4,1.8,3.5c0,0-0.2,4.1-7.3,17.8l-6.2,0.1c0,0-26.1-10.6-59.1-17.6l-4.4-2.3L60.8,86l2.8-14.2
							c0,0,1-4.8,3.9-5.7l1.8-0.4c0,0,6-10.7,8.6-10.9c0,0,0.4-0.7-0.8-1c-1.2-0.2-7.3-2.7-7.3-2.7s-1-1.4,1.3-4.4
							c0,0,0.6-1.2,4.2,0.1s4.6,1.4,4.8,2l1,0.3L87,39.3z"/>
					</defs>
					<use xlink:href="#XMLID_11_"  style="overflow:visible;"/>
					<clipPath id="XMLID_23_">
						<use xlink:href="#XMLID_11_"  style="overflow:visible;"/>
					</clipPath>
					<g class="st2">
						<path d="M135.5,111.8C135.4,111.8,135.4,111.8,135.5,111.8L59.6,91.5c-0.2,0-0.3-0.2-0.3-0.4l3.5-24.2c0-0.1,0.1-0.2,0.2-0.3
							l5-2.7c0.1,0,0.1,0,0.2,0c0.1,0,0.2,0.1,0.3,0.2l1.2,1.8c0,0,0.1,0.1,0.1,0.1c0.1,0.2,0.3,0.5-1.9,6.1l17.9,5.3
							c0,0,0.8,0.1,1.3,0.9c0.4,0.6,0.5,1.3,0.3,2.2l29.8,8.8c0.3-0.7,1-1.5,2.4-1.5c0.4,0,0.9,0.1,1.5,0.3
							c2.6,0.9,13.8,4.9,16.1,5.7c0.3-2,1.3-6.5,2.9-6.5c0.1,0,0.1,0,0.2,0c0.7,0.2,2,0.9,2.1,2.9l1.5,0.9c0.2,0.1,0.2,0.3,0.2,0.5
							l-8.2,20C135.7,111.7,135.6,111.8,135.5,111.8z"/>
						<path class="st7" d="M68.3,64.2l1.3,1.9c0,0,0,0,0,0c0.1,0,0.2,0.3-2.1,6.1l18.3,5.4c0,0,2,0.3,1.3,3.1l30.5,9
							c0,0,0.4-1.6,2.2-1.6c0.4,0,0.8,0.1,1.3,0.3c2.9,1,16.5,5.9,16.5,5.9s1-6.7,2.6-6.7c0,0,0.1,0,0.1,0c0,0,1.8,0.4,1.8,2.7
							l1.6,1l-8.2,20L59.7,91.2l3.5-24.2L68.3,64.2 M68.3,63.5c-0.1,0-0.2,0-0.4,0.1l-5,2.7c-0.2,0.1-0.4,0.3-0.4,0.6L59,91.1
							c-0.1,0.4,0.2,0.7,0.5,0.8l75.7,20.2c0.1,0,0.1,0,0.2,0c0.3,0,0.6-0.2,0.7-0.5l8.2-20c0.1-0.3,0-0.7-0.3-0.9l-1.3-0.8
							c-0.2-2-1.6-2.8-2.3-3c-0.1,0-0.2,0-0.3,0c-1.6,0-2.6,3.3-3.2,6.4c-3-1.1-13.2-4.7-15.7-5.6c-0.6-0.2-1.1-0.3-1.6-0.3
							c-1.4,0-2.2,0.7-2.6,1.4L88,80.2c0.1-0.9,0-1.6-0.4-2.2C87,77.2,86.2,77,86,77l-17.5-5.2c2.2-5.4,2-5.7,1.7-6
							c0,0-0.1-0.1-0.1-0.1l-1.2-1.8C68.8,63.6,68.6,63.5,68.3,63.5L68.3,63.5z"/>
					</g>
					<path style="clip-path:url(#XMLID_23_);fill:#6ACE6A;" d="M108.8,97l-17.3-5.2c-1.6-0.5-2.5-2.1-2-3.7l0.1-0.3
						c0.5-1.6,2.1-2.5,3.7-2l17.3,5.2c1.6,0.5,2.5,2.1,2,3.7l-0.1,0.3C112.1,96.5,110.4,97.4,108.8,97z"/>
					
						<path id="XMLID_12_" style="clip-path:url(#XMLID_23_);fill:none;stroke:#FFFFFF;stroke-width:2;stroke-linejoin:round;stroke-miterlimit:10;" d="
						M140.1,87.1c0,0,2.1,0.3,1.7,3.6c0,0-0.3,4.3-7.4,18.3l-6.2,0.2c0,0-25.9-10.6-58.9-17.5L65,89.4l-4-3.4l2.9-14.6
						c0,0,1-4.9,4-5.9l1.8-0.5"/>
				</g>
				<g>
					<path d="M86.1,74.8c-0.6-0.1-14.9-3.2-15.7-7.7c0-0.1,0.1-3.7,3.9-5.1c0,0,0.1,0,0.1,0c0,0,0.1,0,0.1,0l11.3,3.4c0,0,0,0,0,0
						c0.2,0,0.8,0,1.2,0.5c0.3,0.3,0.4,0.8,0.3,1.4c0,0.4-0.1,1-0.2,1.7c-0.2,2-0.4,4.6-0.7,5.5C86.4,74.7,86.3,74.8,86.1,74.8
						C86.1,74.8,86.1,74.8,86.1,74.8z"/>
					<path class="st7" d="M74.4,62.4l11.4,3.4c0,0,0,0,0.1,0c0.3,0,1.3,0.1,1.2,1.5c-0.2,1.3-0.4,5.9-0.9,7.2c0,0-14.7-3.1-15.4-7.4
						C70.8,67,70.8,63.7,74.4,62.4 M74.4,61.6c-0.1,0-0.2,0-0.3,0C70.1,63.1,70,66.9,70,67c0,0,0,0.1,0,0.1c0.8,4.7,14.4,7.7,15.9,8
						c0.1,0,0.1,0,0.2,0c0.3,0,0.6-0.2,0.7-0.5c0.4-0.9,0.6-3.1,0.8-5.7c0.1-0.7,0.1-1.4,0.1-1.7c0.1-0.7-0.1-1.3-0.4-1.7
						c-0.5-0.5-1.2-0.6-1.5-0.6l-11.2-3.3C74.5,61.6,74.5,61.6,74.4,61.6L74.4,61.6z"/>
				</g>
				<circle class="st7" cx="83.7" cy="68.9" r="2.6"/>
				<circle class="st7" cx="78.5" cy="67.4" r="2.6"/>
				<g>
					<circle class="st8" cx="74" cy="66.2" r="1.7"/>
				</g>
				<g>
					<path d="M134.8,88.8c-1.6,0-6.1-0.3-14.5-3c-0.2-0.1-0.3-0.3-0.2-0.4c0-0.1,0.8-3.1,3.4-7.2c0.1-0.4,0.4-0.8,1.1-0.8
						c0.3,0,0.6,0.1,1,0.2c1.5,0.6,11.3,3.8,11.3,3.8c0.1,0,0.1,0.1,0.2,0.1c0.1,0.1,1.8,2.5,1.2,4.7c-0.3,1.1-1.2,2-2.5,2.6
						c0,0-0.1,0-0.1,0C135.7,88.8,135.4,88.8,134.8,88.8z"/>
					<path class="st7" d="M124.6,77.7c0.2,0,0.5,0.1,0.8,0.2c1.5,0.6,11.4,3.8,11.4,3.8s3.5,4.7-1.1,6.7c0,0-0.3,0-0.8,0
						c-1.7,0-6.1-0.3-14.3-3c0,0,0.8-3,3.4-7.1C123.9,78.3,123.9,77.7,124.6,77.7 M124.6,77L124.6,77c-0.9,0-1.3,0.6-1.4,1.1
						c-2.6,4.1-3.4,7.1-3.4,7.2c-0.1,0.4,0.1,0.8,0.5,0.9c8.1,2.6,12.6,3,14.6,3c0.6,0,0.9,0,0.9,0c0.1,0,0.1,0,0.2-0.1
						c1.5-0.6,2.4-1.6,2.7-2.8c0.6-2.4-1.2-4.9-1.3-5c-0.1-0.1-0.2-0.2-0.4-0.3c-0.1,0-9.9-3.2-11.3-3.8
						C125.2,77.1,124.9,77,124.6,77L124.6,77z"/>
				</g>
				<circle class="st7" cx="125.5" cy="81.9" r="2.6"/>
				<circle class="st7" cx="130.6" cy="83.4" r="2.6"/>
				<g>
					<circle class="st8" cx="135.1" cy="84.9" r="1.7"/>
				</g>
				<path class="st7" d="M79.1,55.1c0,0,4.6-10.3,9-16.3c0,0,0.2-1.1,3.7-0.3c3.6,0.8,34.2,8.2,46.5,14.7c0,0,2.1,0.5,2,2.8
					c-0.1,2.3-1.2,14.8-2.2,17.2C138.2,73.2,96.8,59.1,79.1,55.1z"/>
				<path class="st38" d="M133.5,71.4c0,0,0.3-1.2-1.4-1.8c0,0-5.8-2.8-6.7-4.2c0,0,0.1-0.8-0.9-1.2c-3.7-1.7-13.5-5.8-19.4-5.1
					c0,0-0.4,0.6-0.2,0.6c12.6,2.5,19.3,5.9,19.3,5.9l8.4,5.6L133.5,71.4z"/>
				<path class="st38" d="M109.7,63.9c0,0,1.4-0.8,0.5-1.5c-0.9-0.7-8.6-3.7-8.6-3.7s1-0.7-2.1-1.8s-11.1-3.7-17.6-2.7
					c0,0-0.4,0.5,0.3,0.7c0.6,0.2,19.5,1.9,26.1,8L109.7,63.9z"/>
				<polygon class="st7" points="89.6,67.9 122.1,77.5 119.6,79.2 90.5,70.5 				"/>
				<path class="st7" d="M90.5,72.2l11.3,3.4c0,0-0.2,2.3,2.4,3.1c2.3,0.7,3.4-1.4,3.4-1.4l11,3.3l-2.1,3.2L90.4,76L90.5,72.2z"/>
				<g>
					<polygon points="92.8,80.9 93.4,81.1 94.1,78.6 95.2,78.9 94.9,79.8 94.1,79.6 94,79.9 95.3,80.2 95.8,78.8 93.6,78.2 					"/>
					<polygon points="95.5,81.7 96,81.8 97,80.4 97.2,80.5 97.3,82.2 97.8,82.4 97.6,80.1 96.8,79.8 					"/>
					<rect x="96.7" y="81.1" transform="matrix(0.2848 -0.9586 0.9586 0.2848 -8.7708 151.0133)" width="0.3" height="0.5"/>
					<polygon points="98.9,82.7 99.5,82.9 100,81.2 100.7,81.4 100.8,81 98.8,80.4 98.7,80.8 99.4,81 					"/>
					<polygon points="101.8,83.6 102.4,81.8 103.4,82.1 103.2,82.7 102.4,82.4 102.3,82.7 102.8,83.9 103.6,84.1 103,83.1 
						103.7,83.3 104.1,82 101.9,81.3 101.2,83.5 					"/>
					<rect x="104.2" y="83.2" transform="matrix(0.2848 -0.9586 0.9586 0.2848 -4.7928 160.7862)" width="2.4" height="0.8"/>
					<polygon points="108.3,83.2 108.2,83.6 107.8,83.5 107.3,85 107.7,85.1 107.6,85.4 106.7,85.1 107.4,82.9 					"/>
					<polygon points="108.8,83.3 109.7,83.6 109.1,85.8 108.2,85.5 108.2,85.3 108.6,85.4 109.1,83.8 108.7,83.7 					"/>
					<polygon points="110.5,84.3 110.6,83.9 112.8,84.5 112.7,84.9 111.8,84.6 111.2,86.4 110.7,86.3 111.3,84.5 					"/>
				</g>
				<path class="st7" d="M108.7,76.9l-3.1,0c-0.1-0.4-0.4-0.7-0.7-0.8c-0.4-0.1-0.7,0-1,0.2l-2.3-1.5l2,1.9c0,0,0,0.1,0,0.1
					c-0.2,0.6,0.2,1.2,0.7,1.3c0.6,0.2,1.2-0.2,1.3-0.7c0,0,0-0.1,0-0.1L108.7,76.9z M104.8,76.3c0.3,0.1,0.5,0.3,0.5,0.6l-0.6,0
					l-0.7-0.4C104.3,76.3,104.6,76.2,104.8,76.3z M105.3,77.3c-0.1,0.4-0.6,0.7-1,0.5c-0.4-0.1-0.7-0.6-0.5-1l0.2,0.2l-0.1,0.4
					L105.3,77.3C105.4,77.3,105.4,77.3,105.3,77.3z"/>
			</g>
			<polygon style="clip-path:url(#XMLID_22_);fill:none;stroke:#000000;stroke-width:6;stroke-miterlimit:10;" points="30.9,93.2 
				39,93.2 43.5,96.4 51.2,96.4 53.9,104.6 63.9,107.6 66.6,118.3 70.9,126.7 16.4,126.7 21.4,106.8 26.8,103.2 			"/>
			<polygon style="clip-path:url(#XMLID_22_);fill:#131011;" points="51.6,84.9 62.9,48.7 55.7,43.7 			"/>
			<polygon style="clip-path:url(#XMLID_22_);fill:#131011;" points="45.3,84.9 34.4,27.9 25.4,32.9 			"/>
			<polygon style="clip-path:url(#XMLID_22_);fill:#131011;" points="43.5,91.2 19.5,60.5 18.2,66.8 			"/>
		</g>
	</g>
</g>
<g id="Слой_2" class="st0">
</g>
</svg>
