<?xml version="1.0" encoding="utf-8"?>
<!-- Generator: Adobe Illustrator 22.0.1, SVG Export Plug-In . SVG Version: 6.00 Build 0)  -->
<svg version="1.1" xmlns="http://www.w3.org/2000/svg" xmlns:xlink="http://www.w3.org/1999/xlink" x="0px" y="0px"
	 viewBox="0 0 158 158" style="enable-background:new 0 0 158 158;" xml:space="preserve">
<style type="text/css">
	.st0{display:none;}
	.st1{clip-path:url(#XMLID_22_);fill:#010101;}
	.st2{clip-path:url(#XMLID_23_);}
	.st3{clip-path:url(#XMLID_24_);}
	.st4{clip-path:url(#XMLID_33_);}
	.st5{fill:#010101;}
	.st6{clip-path:url(#XMLID_34_);}
	.st7{fill:#FFFFFF;}
	.st8{fill:#6ACE6A;}
	.st9{fill:none;stroke:#000000;stroke-width:17;stroke-miterlimit:10;}
	.st10{fill:none;stroke:#000000;stroke-width:17;stroke-miterlimit:10;stroke-dasharray:34.0738,15.4881;}
	.st11{clip-path:url(#SVGID_4_);}
	.st12{fill:#FFFFFF;stroke:#000000;stroke-width:7;stroke-miterlimit:10;}
	.st13{fill:#FCFCFC;}
	.st14{clip-path:url(#XMLID_64_);fill:#010101;}
	.st15{fill:none;stroke:#FFFFFF;stroke-width:17;stroke-miterlimit:10;stroke-dasharray:33,15;}
	.st16{fill:#FFFFFF;stroke:#000000;stroke-width:6;stroke-miterlimit:10;}
	.st17{clip-path:url(#XMLID_65_);}
	.st18{fill:none;stroke:#000000;stroke-width:6;stroke-miterlimit:10;}
	.st19{clip-path:url(#XMLID_66_);}
	.st20{fill:#060606;}
	.st21{fill:#CD7779;}
	.st22{fill:#F4F2F9;}
	.st23{fill:#774F66;}
	.st24{clip-path:url(#XMLID_67_);}
	.st25{clip-path:url(#XMLID_67_);fill:#F4F2F9;}
	.st26{clip-path:url(#XMLID_67_);fill:none;stroke:#6ACE6A;stroke-width:2;stroke-miterlimit:10;}
	.st27{clip-path:url(#XMLID_67_);fill:#6ACE6A;}
	.st28{clip-path:url(#XMLID_68_);}
	.st29{fill:none;stroke:#C0BFC6;stroke-miterlimit:10;}
	.st30{clip-path:url(#SVGID_5_);}
	.st31{clip-path:url(#XMLID_70_);}
	.st32{clip-path:url(#XMLID_71_);fill:#FFFFFF;}
	.st33{clip-path:url(#XMLID_71_);fill:#131011;}
	.st34{clip-path:url(#XMLID_72_);}
	.st35{clip-path:url(#XMLID_73_);}
	.st36{clip-path:url(#XMLID_73_);fill:#6ACE6A;}
	.st37{clip-path:url(#XMLID_73_);fill:none;stroke:#FFFFFF;stroke-width:2;stroke-linejoin:round;stroke-miterlimit:10;}
	.st38{fill:#27262C;}
	.st39{fill:none;stroke:#565656;stroke-miterlimit:10;}
	.st40{fill:#2C2828;}
	.st41{clip-path:url(#XMLID_72_);fill:none;stroke:#000000;stroke-width:6;stroke-miterlimit:10;}
	.st42{clip-path:url(#XMLID_72_);fill:#131011;}
	.st43{clip-path:url(#XMLID_74_);}
	.st44{fill:#FFFFFF;stroke:#060606;stroke-width:4;stroke-miterlimit:10;}
	.st45{fill:#6ACE6A;stroke:#000000;stroke-width:4;stroke-miterlimit:10;}
	.st46{stroke:#060606;stroke-width:4;stroke-miterlimit:10;}
	.st47{fill:#FFFFFF;stroke:#060606;stroke-width:4;stroke-linecap:round;stroke-miterlimit:10;}
	.st48{clip-path:url(#XMLID_75_);}
	.st49{clip-path:url(#XMLID_76_);}
	.st50{clip-path:url(#XMLID_77_);}
	.st51{clip-path:url(#XMLID_77_);fill:#F4F2F9;}
	.st52{clip-path:url(#XMLID_77_);fill:none;stroke:#6ACE6A;stroke-width:2;stroke-miterlimit:10;}
	.st53{clip-path:url(#XMLID_77_);fill:#6ACE6A;}
	.st54{clip-path:url(#XMLID_78_);}
	.st55{clip-path:url(#SVGID_6_);}
	.st56{clip-path:url(#XMLID_80_);}
	.st57{clip-path:url(#XMLID_81_);fill:#FFFFFF;}
	.st58{clip-path:url(#XMLID_81_);fill:#131011;}
	.st59{clip-path:url(#XMLID_82_);}
	.st60{clip-path:url(#XMLID_83_);}
	.st61{clip-path:url(#XMLID_83_);fill:#6ACE6A;}
	.st62{clip-path:url(#XMLID_83_);fill:none;stroke:#FFFFFF;stroke-width:2;stroke-linejoin:round;stroke-miterlimit:10;}
	.st63{clip-path:url(#XMLID_82_);fill:none;stroke:#000000;stroke-width:6;stroke-miterlimit:10;}
	.st64{clip-path:url(#XMLID_82_);fill:#131011;}
	.st65{clip-path:url(#XMLID_84_);}
	.st66{fill:none;stroke:#010101;stroke-linecap:round;stroke-linejoin:round;stroke-miterlimit:10;}
	.st67{clip-path:url(#XMLID_85_);}
	.st68{fill:none;stroke:#010101;stroke-width:3;stroke-linejoin:round;stroke-miterlimit:10;}
	.st69{fill:#FFFFFF;stroke:#010101;stroke-width:3;stroke-linejoin:round;stroke-miterlimit:10;}
	.st70{fill:none;stroke:#010101;stroke-width:3;stroke-linecap:round;stroke-linejoin:round;stroke-miterlimit:10;}
	.st71{fill:none;stroke:#010101;stroke-width:2;stroke-linecap:round;stroke-linejoin:round;stroke-miterlimit:10;}
	.st72{clip-path:url(#XMLID_87_);}
	.st73{clip-path:url(#XMLID_89_);fill:#010101;}
	.st74{fill:none;stroke:#000000;stroke-width:17;stroke-miterlimit:10;stroke-dasharray:33,15;}
	.st75{fill:none;stroke:#010101;stroke-width:3;stroke-miterlimit:10;}
	.st76{fill:none;stroke:#FFFFFF;stroke-width:17;stroke-miterlimit:10;}
	.st77{fill:#010101;stroke:#010101;stroke-width:3;stroke-miterlimit:10;}
	.st78{stroke:#FFFFFF;stroke-width:3;stroke-miterlimit:10;}
	.st79{fill:none;stroke:#FFFFFF;stroke-width:3;stroke-miterlimit:10;}
	.st80{stroke:#FFFFFF;stroke-width:6;stroke-miterlimit:10;}
	.st81{stroke:#FFFFFF;stroke-width:14;stroke-miterlimit:10;}
	.st82{fill:#FFFFFF;stroke:#000000;stroke-width:14;stroke-miterlimit:10;}
	.st83{display:inline;opacity:0.4;}
	.st84{fill:#FF2727;}
	.st85{display:inline;}
</style>
<g id="Слой_1" class="st0">
</g>
<g id="Слой_3">
	<g>
		<circle id="XMLID_13_" class="st16" cx="79" cy="79" r="75"/>
		<g>
			<defs>
				<circle id="XMLID_14_" cx="79" cy="79" r="75"/>
			</defs>
			<clipPath id="XMLID_22_">
				<use xlink:href="#XMLID_14_"  style="overflow:visible;"/>
			</clipPath>
			<g style="clip-path:url(#XMLID_22_);">
				<path class="st20" d="M28.4,131.3c0,0-5.3-17.4-3.1-31.1l17-4.4c0,0,1.4,29.3-1.7,35.5C40.6,131.3,34.7,134.7,28.4,131.3z"/>
				<polygon class="st20" points="42.1,98 41.5,114.5 43.7,116 51.2,116 113.1,116 114.7,113.5 116.7,98.4 116.9,97 				"/>
				<path class="st20" d="M51.2,116h52.9l-2.8-14c0,0,0.3-1.9-4.7-2.2H59.6c0,0-5,0-5.3,2.2C54,104.2,51.2,116,51.2,116z"/>
				<path class="st20" d="M130.9,99.8c0,0,2.5,27.7-3.4,31.8c0,0-4,1.9-9.7,0c-5.6-1.9-3.1-33-3.1-33S130.6,97,130.9,99.8z"/>
				<path class="st20" d="M39.7,29.8c0,0,1.2-3.1,15.8-3.4s47,0,47,0s14,1.2,14.2,4C116.7,30.4,63.1,34.1,39.7,29.8z"/>
				<path class="st20" d="M129.9,45.7c0,0-0.3-1.2-3.1-0.9s-3.1,1.2-3.1,2.5s0,4.4,0,5.3l-2.5,4.1c-1-7.8-2.9-22.6-3.1-24.4
					c-0.3-2.5-2.5-1.9-2.5-1.9c-21.8-2.5-74.7-0.6-74.7-0.6c-2.8-0.3-2.5,1.2-2.5,1.2l-4,24.6l-0.9-2.5c0,0,0.6-5.9,0.3-7.2
					c-0.3-1.2-3.7-1.2-3.7-1.2c-3.1-0.3-3.4,4-3.4,4c-1.9,5.9,0,8.1,0,8.1s1.9,0.3,3.7,0.6s2.5-2.5,2.5-2.5l1.6,6.5h87.5l0.9-1.6
					l0.9-4.7h0.6c0,0,0.9,2.2,2.5,2.2c1.6,0,3.7,0,4.4-1.6C131.8,54.4,131.8,50.3,129.9,45.7z"/>
				<g>
					<defs>
						<path id="XMLID_15_" d="M121.8,61.8c0,0,2.2,1.6,2.2,5.3c0,0,5.6,0.3,6.9,6.2s0.6,15.6,0,16.5h1.9c0,0,1.6,0.3,1.2,1.9
							c-0.3,1.6-0.9,6.2-0.9,6.2s0,1.2-2.2,1.2l-12.8-0.6L39.3,98l-14,2.2l-1.9-0.6l-1.6-7.2c0,0-0.5-2,1.4-2c1.9,0,2.2,0,2.2,0
							s-4-15.6,0.9-19.9c0,0,1.2-2.5,5.6-3.1c0,0-0.6-4,2.2-5.9L46.6,57c0,0,0.6-1.6,3.1-1.6c0,0,31.1-2.5,57.3,0
							c0,0,2.5,0.3,2.5,1.2C109.5,56.7,120.4,60.1,121.8,61.8z"/>
					</defs>
					<use xlink:href="#XMLID_15_"  style="overflow:visible;fill:#060606;"/>
					<clipPath id="XMLID_23_">
						<use xlink:href="#XMLID_15_"  style="overflow:visible;"/>
					</clipPath>
					<path style="clip-path:url(#XMLID_23_);fill:#FFFFFF;" d="M95.3,69.8H60.6c-1.9,0-3.5-1.6-3.5-3.5v0c0-1.9,1.6-3.5,3.5-3.5
						h34.8c1.9,0,3.5,1.6,3.5,3.5v0C98.8,68.3,97.2,69.8,95.3,69.8z"/>
					<path style="clip-path:url(#XMLID_23_);fill:#FFFFFF;" d="M98.1,80.1H57.7c-1.9,0-3.5-1.6-3.5-3.5v0c0-1.9,1.6-3.5,3.5-3.5
						h40.4c1.9,0,3.5,1.6,3.5,3.5v0C101.6,78.6,100,80.1,98.1,80.1z"/>
					<path style="clip-path:url(#XMLID_23_);fill:#FFFFFF;" d="M68.9,83.2H58.3c-0.7,0-1.2-0.6-1.2-1.2v0c0-0.7,0.6-1.2,1.2-1.2
						h10.6c0.7,0,1.2,0.6,1.2,1.2v0C70.2,82.7,69.6,83.2,68.9,83.2z"/>
					<path style="clip-path:url(#XMLID_23_);fill:#FFFFFF;" d="M83.2,83.3H72.6c-0.7,0-1.2-0.6-1.2-1.2v0c0-0.7,0.6-1.2,1.2-1.2
						h10.6c0.7,0,1.2,0.6,1.2,1.2v0C84.5,82.8,83.9,83.3,83.2,83.3z"/>
					<path style="clip-path:url(#XMLID_23_);fill:#FFFFFF;" d="M98.2,83.3H87.6c-0.7,0-1.2-0.6-1.2-1.2v0c0-0.7,0.6-1.2,1.2-1.2
						h10.6c0.7,0,1.2,0.6,1.2,1.2v0C99.4,82.8,98.9,83.3,98.2,83.3z"/>
					<path style="clip-path:url(#XMLID_23_);fill:#131011;" d="M130.9,89.9h-14c0,0-0.6,0-0.9,0.9c-0.3,0.9-76.6,1.2-76.6,1.2
						s0.3-1.2-0.9-1.6l-12.8-0.3l-3.7-0.3l-1.6,6.5l3.7,7.5l109.3-3.7l1.9-10.3C135.2,89.9,132.4,88.9,130.9,89.9z"/>
				</g>
				<circle class="st8" cx="43.1" cy="72.1" r="6.9"/>
				<circle class="st7" cx="42.3" cy="71.3" r="6.5"/>
				<circle class="st8" cx="113.1" cy="72.1" r="6.9"/>
				<circle class="st7" cx="114.2" cy="71.3" r="6.5"/>
				<circle class="st8" cx="38.2" cy="83.2" r="3.3"/>
				<circle class="st8" cx="117.9" cy="83.2" r="3.3"/>
				<path class="st20" d="M84,63.9l-4.5,1.4c-0.3-0.5-0.8-0.9-1.5-0.9c-0.6,0-1.1,0.3-1.4,0.8l-4-1.1l3.7,1.8c0,0.1,0,0.1,0,0.2
					c0,0.9,0.8,1.6,1.7,1.6c0.9,0,1.6-0.8,1.6-1.7c0-0.1,0-0.1,0-0.2L84,63.9z M78.1,64.8c0.4,0,0.8,0.2,1.1,0.6l-0.8,0.3l-1.2-0.3
					C77.4,65,77.7,64.8,78.1,64.8z M79.4,66c0,0.7-0.5,1.2-1.2,1.2c-0.7,0-1.2-0.5-1.2-1.2l0.4,0.2l0,0.6L79.4,66
					C79.4,66,79.4,66,79.4,66z"/>
				<path class="st7" d="M44.9,31c0,0-4.4-0.3-4.4,2.5c0,2.8-1.9,15.3-1.9,15.3s0,4.4,6.2,4s37.7-4,64.5,0c0,0,7.8,1.2,8.1-4.7
					l-2.8-15.3c0,0,0-1.9-5-1.9"/>
			</g>
		</g>
	</g>
</g>
<g id="Слой_2" class="st0">
</g>
</svg>
