<?xml version="1.0" encoding="utf-8"?>
<!-- Generator: Adobe Illustrator 22.0.1, SVG Export Plug-In . SVG Version: 6.00 Build 0)  -->
<svg version="1.1" xmlns="http://www.w3.org/2000/svg" xmlns:xlink="http://www.w3.org/1999/xlink" x="0px" y="0px"
	 viewBox="0 0 266.7 878.9" style="enable-background:new 0 0 266.7 878.9;" xml:space="preserve">
<style type="text/css">
	.st0{display:none;}
	.st1{clip-path:url(#XMLID_8_);fill:#010101;}
	.st2{clip-path:url(#XMLID_9_);}
	.st3{clip-path:url(#XMLID_10_);}
	.st4{clip-path:url(#XMLID_11_);}
	.st5{fill:#010101;}
	.st6{clip-path:url(#XMLID_12_);}
	.st7{fill:#FFFFFF;}
	.st8{fill:#6ACE6A;}
	.st9{fill:none;stroke:#000000;stroke-width:17;stroke-miterlimit:10;}
	.st10{fill:none;stroke:#000000;stroke-width:17;stroke-miterlimit:10;stroke-dasharray:34.0738,15.4881;}
	.st11{clip-path:url(#SVGID_2_);}
	.st12{fill:#FFFFFF;stroke:#000000;stroke-width:7;stroke-miterlimit:10;}
	.st13{fill:#FCFCFC;}
	.st14{clip-path:url(#XMLID_14_);fill:#010101;}
	.st15{fill:none;stroke:#FFFFFF;stroke-width:17;stroke-miterlimit:10;stroke-dasharray:33,15;}
	.st16{fill:#FFFFFF;stroke:#000000;stroke-width:6;stroke-miterlimit:10;}
	.st17{clip-path:url(#XMLID_15_);}
	.st18{fill:none;stroke:#000000;stroke-width:6;stroke-miterlimit:10;}
	.st19{clip-path:url(#XMLID_16_);}
	.st20{fill:#060606;}
	.st21{fill:#CD7779;}
	.st22{fill:#F4F2F9;}
	.st23{fill:#774F66;}
	.st24{clip-path:url(#XMLID_17_);}
	.st25{clip-path:url(#XMLID_17_);fill:#F4F2F9;}
	.st26{clip-path:url(#XMLID_17_);fill:none;stroke:#6ACE6A;stroke-width:2;stroke-miterlimit:10;}
	.st27{clip-path:url(#XMLID_17_);fill:#6ACE6A;}
	.st28{clip-path:url(#XMLID_18_);}
	.st29{fill:none;stroke:#C0BFC6;stroke-miterlimit:10;}
	.st30{clip-path:url(#SVGID_4_);}
	.st31{clip-path:url(#XMLID_20_);}
	.st32{clip-path:url(#XMLID_21_);fill:#FFFFFF;}
	.st33{clip-path:url(#XMLID_21_);fill:#131011;}
	.st34{clip-path:url(#XMLID_22_);}
	.st35{clip-path:url(#XMLID_23_);}
	.st36{clip-path:url(#XMLID_23_);fill:#6ACE6A;}
	.st37{clip-path:url(#XMLID_23_);fill:none;stroke:#FFFFFF;stroke-width:2;stroke-linejoin:round;stroke-miterlimit:10;}
	.st38{fill:#27262C;}
	.st39{fill:none;stroke:#565656;stroke-miterlimit:10;}
	.st40{fill:#2C2828;}
	.st41{clip-path:url(#XMLID_22_);fill:none;stroke:#000000;stroke-width:6;stroke-miterlimit:10;}
	.st42{clip-path:url(#XMLID_22_);fill:#131011;}
	.st43{clip-path:url(#XMLID_24_);}
	.st44{fill:#FFFFFF;stroke:#060606;stroke-width:4;stroke-miterlimit:10;}
	.st45{fill:#6ACE6A;stroke:#000000;stroke-width:4;stroke-miterlimit:10;}
	.st46{stroke:#060606;stroke-width:4;stroke-miterlimit:10;}
	.st47{fill:#FFFFFF;stroke:#060606;stroke-width:4;stroke-linecap:round;stroke-miterlimit:10;}
	.st48{fill:none;stroke:#010101;stroke-linecap:round;stroke-linejoin:round;stroke-miterlimit:10;}
	.st49{clip-path:url(#XMLID_25_);}
	.st50{fill:none;stroke:#010101;stroke-width:3;stroke-linejoin:round;stroke-miterlimit:10;}
	.st51{fill:#FFFFFF;stroke:#010101;stroke-width:3;stroke-linejoin:round;stroke-miterlimit:10;}
	.st52{fill:none;stroke:#010101;stroke-width:3;stroke-linecap:round;stroke-linejoin:round;stroke-miterlimit:10;}
	.st53{fill:none;stroke:#010101;stroke-width:2;stroke-linecap:round;stroke-linejoin:round;stroke-miterlimit:10;}
	.st54{clip-path:url(#XMLID_27_);}
	.st55{clip-path:url(#XMLID_29_);fill:#010101;}
	.st56{fill:none;stroke:#000000;stroke-width:17;stroke-miterlimit:10;stroke-dasharray:33,15;}
	.st57{fill:none;stroke:#010101;stroke-width:3;stroke-miterlimit:10;}
	.st58{fill:none;stroke:#FFFFFF;stroke-width:17;stroke-miterlimit:10;}
	.st59{fill:#010101;stroke:#010101;stroke-width:3;stroke-miterlimit:10;}
	.st60{stroke:#FFFFFF;stroke-width:3;stroke-miterlimit:10;}
	.st61{fill:none;stroke:#FFFFFF;stroke-width:3;stroke-miterlimit:10;}
	.st62{stroke:#FFFFFF;stroke-width:6;stroke-miterlimit:10;}
	.st63{stroke:#FFFFFF;stroke-width:14;stroke-miterlimit:10;}
	.st64{fill:#FFFFFF;stroke:#000000;stroke-width:14;stroke-miterlimit:10;}
	.st65{fill:none;}
	.st66{font-family:'RobotoSlab-Bold';}
	.st67{font-size:35px;}
	.st68{display:inline;opacity:0.4;}
	.st69{fill:#FF2727;}
	.st70{display:inline;}
</style>
<g id="Слой_1" class="st0">
</g>
<g id="Слой_3">
	<g>
		<path class="st15" d="M191.5,30.5c0,0-14.5,110-65.2,169.8S11.5,316,27,411.7s91.6,142.9,134.5,194.3
			c42.9,51.4,81.7,136.8,68.8,255.2"/>
		<g>
			<g>
				<path class="st8" d="M24.3,406.3c-12,0-21.8-9.8-21.8-21.8c0-12,9.8-21.8,21.8-21.8c12,0,21.8,9.8,21.8,21.8
					C46,396.5,36.3,406.3,24.3,406.3z"/>
				<path class="st8" d="M24.3,363.2c11.7,0,21.3,9.5,21.3,21.3s-9.5,21.3-21.3,21.3S3,396.2,3,384.5S12.5,363.2,24.3,363.2
					 M24.3,362.2C12,362.2,2,372.2,2,384.5s10,22.3,22.3,22.3s22.3-10,22.3-22.3S36.6,362.2,24.3,362.2L24.3,362.2z"/>
			</g>
			<g>
				<rect y="369.2" class="st65" width="48.5" height="30.5"/>
				<text transform="matrix(1 0 0 1 14.5957 395.905)" class="st66 st67">2</text>
			</g>
		</g>
		<g>
			<g>
				<path class="st8" d="M81.3,534.7c-12,0-21.8-9.8-21.8-21.8c0-12,9.8-21.8,21.8-21.8c12,0,21.8,9.8,21.8,21.8
					C103,524.9,93.3,534.7,81.3,534.7z"/>
				<path class="st8" d="M81.3,491.7c11.7,0,21.3,9.5,21.3,21.3c0,11.7-9.5,21.3-21.3,21.3S60,524.7,60,512.9
					C60,501.2,69.5,491.7,81.3,491.7 M81.3,490.7c-12.3,0-22.3,10-22.3,22.3c0,12.3,10,22.3,22.3,22.3s22.3-10,22.3-22.3
					C103.5,500.6,93.6,490.7,81.3,490.7L81.3,490.7z"/>
			</g>
			<g>
				<rect x="57" y="497.7" class="st65" width="48.5" height="30.5"/>
				<text transform="matrix(1 0 0 1 71.7644 524.3513)" class="st66 st67">3</text>
			</g>
		</g>
		<g>
			<g>
				<path class="st8" d="M177.3,644.1c-12,0-21.8-9.8-21.8-21.8c0-12,9.8-21.8,21.8-21.8c12,0,21.8,9.8,21.8,21.8
					C199,634.3,189.3,644.1,177.3,644.1z"/>
				<path class="st8" d="M177.3,601.1c11.7,0,21.3,9.5,21.3,21.3s-9.5,21.3-21.3,21.3s-21.3-9.5-21.3-21.3S165.5,601.1,177.3,601.1
					 M177.3,600.1c-12.3,0-22.3,10-22.3,22.3s10,22.3,22.3,22.3s22.3-10,22.3-22.3S189.6,600.1,177.3,600.1L177.3,600.1z"/>
			</g>
			<g>
				<rect x="153" y="607.1" class="st65" width="48.5" height="30.5"/>
				<text transform="matrix(1 0 0 1 167.4061 633.736)" class="st66 st67">4</text>
			</g>
		</g>
		<g>
			<g>
				<path class="st8" d="M229.3,773.9c-12,0-21.8-9.8-21.8-21.8c0-12,9.8-21.8,21.8-21.8c12,0,21.8,9.8,21.8,21.8
					C251,764.1,241.3,773.9,229.3,773.9z"/>
				<path class="st8" d="M229.3,730.8c11.7,0,21.3,9.5,21.3,21.3c0,11.7-9.5,21.3-21.3,21.3s-21.3-9.5-21.3-21.3
					C208,740.4,217.5,730.8,229.3,730.8 M229.3,729.8c-12.3,0-22.3,10-22.3,22.3s10,22.3,22.3,22.3s22.3-10,22.3-22.3
					S241.6,729.8,229.3,729.8L229.3,729.8z"/>
			</g>
			<g>
				<rect x="205" y="736.9" class="st65" width="48.5" height="30.5"/>
				<text transform="matrix(1 0 0 1 219.9353 763.519)" class="st66 st67">5</text>
			</g>
		</g>
		<g>
			<g>
				<path class="st8" d="M61.3,297.1c-5.8,0-11.3-2.3-15.4-6.4c-8.5-8.5-8.5-22.3,0-30.8c4.1-4.1,9.6-6.4,15.4-6.4
					c5.8,0,11.3,2.3,15.4,6.4c4.1,4.1,6.4,9.6,6.4,15.4s-2.3,11.3-6.4,15.4C72.6,294.8,67.1,297.1,61.3,297.1z"/>
				<path class="st8" d="M61.3,254c5.7,0,11,2.2,15,6.2c8.3,8.3,8.3,21.8,0,30.1c-4,4-9.4,6.2-15,6.2s-11-2.2-15-6.2
					c-8.3-8.3-8.3-21.8,0-30.1C50.2,256.2,55.6,254,61.3,254 M61.3,253c-5.7,0-11.4,2.2-15.8,6.5c-8.7,8.7-8.7,22.8,0,31.5
					c4.3,4.3,10,6.5,15.8,6.5s11.4-2.2,15.8-6.5c8.7-8.7,8.7-22.8,0-31.5C72.7,255.2,67,253,61.3,253L61.3,253z"/>
			</g>
			<g>
				<rect x="37" y="260" class="st65" width="48.5" height="30.5"/>
				<text transform="matrix(1 0 0 1 53.5352 286.7048)" class="st66 st67">1</text>
			</g>
		</g>
		<path class="st63" d="M250,866.3l7.5-27.3H207l6.6,25.9C213.6,864.9,227.5,879.6,250,866.3z"/>
		<path class="st64" d="M207,34.3L214.5,7H164l6.6,25.9C170.6,32.9,184.5,47.6,207,34.3z"/>
	</g>
</g>
<g id="Слой_2" class="st0">
</g>
</svg>
