<?xml version="1.0" encoding="utf-8"?>
<!-- Generator: Adobe Illustrator 22.0.1, SVG Export Plug-In . SVG Version: 6.00 Build 0)  -->
<svg version="1.1" xmlns="http://www.w3.org/2000/svg" xmlns:xlink="http://www.w3.org/1999/xlink" x="0px" y="0px"
	 viewBox="0 0 189.1 63.6" style="enable-background:new 0 0 189.1 63.6;" xml:space="preserve">
<style type="text/css">
	.st0{display:none;}
	.st1{fill:#FFFFFF;stroke:#000000;stroke-width:6;stroke-miterlimit:10;}
	.st2{clip-path:url(#XMLID_71_);}
	.st3{fill:#FFFFFF;stroke:#060606;stroke-width:4;stroke-miterlimit:10;}
	.st4{fill:#6ACE6A;stroke:#000000;stroke-width:4;stroke-miterlimit:10;}
	.st5{stroke:#060606;stroke-width:4;stroke-miterlimit:10;}
	.st6{fill:#FFFFFF;stroke:#060606;stroke-width:4;stroke-linecap:round;stroke-miterlimit:10;}
	.st7{fill:#060606;}
	.st8{clip-path:url(#XMLID_72_);fill:#010101;}
	.st9{clip-path:url(#XMLID_73_);fill:#010101;}
	.st10{clip-path:url(#XMLID_74_);}
	.st11{clip-path:url(#XMLID_75_);}
	.st12{clip-path:url(#XMLID_76_);}
	.st13{fill:#010101;}
	.st14{clip-path:url(#XMLID_77_);}
	.st15{clip-path:url(#XMLID_78_);}
	.st16{clip-path:url(#XMLID_79_);}
	.st17{fill:#FFFFFF;}
	.st18{fill:#6ACE6A;}
	.st19{fill:none;stroke:#000000;stroke-width:17;stroke-miterlimit:10;}
	.st20{fill:none;stroke:#000000;stroke-width:17;stroke-miterlimit:10;stroke-dasharray:34.0738,15.4881;}
	.st21{clip-path:url(#SVGID_2_);}
	.st22{fill:#FFFFFF;stroke:#000000;stroke-width:7;stroke-miterlimit:10;}
	.st23{fill:#FCFCFC;}
	.st24{clip-path:url(#XMLID_81_);fill:#010101;}
	.st25{clip-path:url(#XMLID_82_);fill:#010101;}
	.st26{fill:none;stroke:#FFFFFF;stroke-width:17;stroke-miterlimit:10;stroke-dasharray:33,15;}
	.st27{clip-path:url(#XMLID_83_);}
	.st28{fill:none;stroke:#000000;stroke-width:6;stroke-miterlimit:10;}
	.st29{clip-path:url(#XMLID_84_);}
	.st30{fill:#CD7779;}
	.st31{fill:#F4F2F9;}
	.st32{fill:#774F66;}
	.st33{clip-path:url(#XMLID_85_);}
	.st34{clip-path:url(#XMLID_85_);fill:#F4F2F9;}
	.st35{clip-path:url(#XMLID_85_);fill:none;stroke:#6ACE6A;stroke-width:2;stroke-miterlimit:10;}
	.st36{clip-path:url(#XMLID_85_);fill:#6ACE6A;}
	.st37{clip-path:url(#XMLID_86_);}
	.st38{fill:none;stroke:#C0BFC6;stroke-miterlimit:10;}
	.st39{clip-path:url(#SVGID_4_);}
	.st40{clip-path:url(#XMLID_88_);}
	.st41{clip-path:url(#XMLID_89_);fill:#FFFFFF;}
	.st42{clip-path:url(#XMLID_89_);fill:#131011;}
	.st43{clip-path:url(#XMLID_90_);}
	.st44{clip-path:url(#XMLID_91_);}
	.st45{clip-path:url(#XMLID_91_);fill:#6ACE6A;}
	.st46{clip-path:url(#XMLID_91_);fill:none;stroke:#FFFFFF;stroke-width:2;stroke-linejoin:round;stroke-miterlimit:10;}
	.st47{fill:#27262C;}
	.st48{fill:none;stroke:#565656;stroke-miterlimit:10;}
	.st49{fill:#2C2828;}
	.st50{clip-path:url(#XMLID_90_);fill:none;stroke:#000000;stroke-width:6;stroke-miterlimit:10;}
	.st51{clip-path:url(#XMLID_90_);fill:#131011;}
	.st52{clip-path:url(#XMLID_92_);}
	.st53{clip-path:url(#XMLID_93_);}
	.st54{clip-path:url(#XMLID_94_);fill:#060606;}
	.st55{clip-path:url(#XMLID_94_);}
	.st56{clip-path:url(#XMLID_94_);fill:#F4F2F9;}
	.st57{clip-path:url(#XMLID_94_);fill:#6ACE6A;}
	.st58{clip-path:url(#XMLID_95_);}
	.st59{clip-path:url(#XMLID_95_);fill:#F4F2F9;}
	.st60{clip-path:url(#XMLID_95_);fill:none;stroke:#6ACE6A;stroke-width:2;stroke-miterlimit:10;}
	.st61{clip-path:url(#XMLID_95_);fill:#6ACE6A;}
	.st62{clip-path:url(#XMLID_96_);}
	.st63{clip-path:url(#SVGID_6_);}
	.st64{clip-path:url(#XMLID_98_);}
	.st65{clip-path:url(#XMLID_99_);fill:#FFFFFF;}
	.st66{clip-path:url(#XMLID_99_);fill:#131011;}
	.st67{clip-path:url(#XMLID_100_);}
	.st68{clip-path:url(#XMLID_101_);}
	.st69{clip-path:url(#XMLID_101_);fill:#6ACE6A;}
	.st70{clip-path:url(#XMLID_101_);fill:none;stroke:#FFFFFF;stroke-width:2;stroke-linejoin:round;stroke-miterlimit:10;}
	.st71{clip-path:url(#XMLID_100_);fill:none;stroke:#000000;stroke-width:6;stroke-miterlimit:10;}
	.st72{clip-path:url(#XMLID_100_);fill:#131011;}
	.st73{fill:none;stroke:#010101;stroke-linecap:round;stroke-linejoin:round;stroke-miterlimit:10;}
	.st74{clip-path:url(#XMLID_102_);}
	.st75{fill:none;stroke:#010101;stroke-width:3;stroke-linejoin:round;stroke-miterlimit:10;}
	.st76{fill:#FFFFFF;stroke:#010101;stroke-width:3;stroke-linejoin:round;stroke-miterlimit:10;}
	.st77{fill:none;stroke:#010101;stroke-width:3;stroke-linecap:round;stroke-linejoin:round;stroke-miterlimit:10;}
	.st78{fill:none;stroke:#010101;stroke-width:2;stroke-linecap:round;stroke-linejoin:round;stroke-miterlimit:10;}
	.st79{clip-path:url(#XMLID_104_);}
	.st80{clip-path:url(#XMLID_106_);}
	.st81{clip-path:url(#XMLID_108_);}
	.st82{clip-path:url(#XMLID_110_);fill:#010101;}
	.st83{clip-path:url(#XMLID_111_);fill:#010101;}
	.st84{fill:none;stroke:#000000;stroke-width:17;stroke-miterlimit:10;stroke-dasharray:33,15;}
	.st85{fill:none;stroke:#010101;stroke-width:3;stroke-miterlimit:10;}
	.st86{fill:none;stroke:#FFFFFF;stroke-width:17;stroke-miterlimit:10;}
	.st87{fill:#010101;stroke:#010101;stroke-width:3;stroke-miterlimit:10;}
	.st88{stroke:#FFFFFF;stroke-width:3;stroke-miterlimit:10;}
	.st89{fill:none;stroke:#FFFFFF;stroke-width:3;stroke-miterlimit:10;}
	.st90{stroke:#FFFFFF;stroke-width:6;stroke-miterlimit:10;}
	.st91{stroke:#FFFFFF;stroke-width:14;stroke-miterlimit:10;}
	.st92{fill:#FFFFFF;stroke:#000000;stroke-width:14;stroke-miterlimit:10;}
	.st93{clip-path:url(#SVGID_20_);}
	.st94{display:inline;opacity:0.4;}
	.st95{fill:#FF2727;}
	.st96{display:inline;}
</style>
<g id="Слой_1" class="st0">
</g>
<g id="Слой_3">
	<g>
		<path class="st17" d="M13.5,14.1c2.9,0,5.8,0,8.7,0c0.8,0,1.1,0.3,1.1,1.1c0,1.3,0,2.6,0,3.9c0,0.7-0.1,1.3-1.1,0.9
			c-0.4-0.2-0.6,0.1-0.6,0.5c0,2.1,0.1,4.3-0.1,6.4c0,0.4,0.1,0.7,0.6,0.6c1-0.2,1.2,0.3,1.2,1.2c-0.1,2.1,0,4.3,0,6.4
			c0,0.8-0.2,1.1-1.1,1.1c-1.9-0.1-3.9,0-5.8,0c-0.8,0-1.2-0.3-1-1.2c0.2-1.3,0.1-1.2-1.3-1.1c-1.8,0.1-3.6,0.1-5.4,0
			c-0.7,0-0.9,0.1-0.9,0.8c0.1,1.5,0,1.5-1.5,1.5c-1.7,0-3.4,0-5.2,0c-0.8,0-1.1-0.1-1.1-1.2c0.1-2.3,0.1-4.6,0-6.9
			c0-0.2-0.1-0.4,0.2-0.5c1.7-0.7,2.6-2.2,3.5-3.7c0.6-1,1.1-2,1.6-3.1c0.1-0.3,0.2-0.5,0-0.8c-0.2-0.2-0.5-0.1-0.7-0.1
			c-0.7,0.2-1.1-0.2-1-1c0.2-1.4,0.2-2.7,0-4.1c-0.1-0.8,0.5-0.8,1-0.8C7.5,14.1,10.5,14.1,13.5,14.1z M11.4,28.4c0.5,0,0.9,0,1.4,0
			c0.4,0,0.7-0.1,0.6-0.6c-0.2-1.8,0.4-3.6,0.4-5.4c0-0.5-0.1-1,0.1-1.6c0.2-0.4-0.1-0.7-0.5-0.9c-0.5-0.1-0.9,0.1-0.9,0.6
			c-0.4,2.6-1.4,4.9-2.8,7.1c-0.4,0.6-0.3,0.9,0.5,0.8C10.6,28.3,11,28.4,11.4,28.4z"/>
		<path class="st17" d="M8.4,60.1c-2.5,0-5,0-7.4,0c-0.7,0-1-0.2-0.9-0.9c0-1.3,0-2.6,0-4c0-0.7,0.3-1.1,1-1
			c0.6,0.1,0.7-0.2,0.7-0.7c0-2.9,0-5.7,0-8.6c0-0.6-0.2-0.8-0.7-0.7c-0.7,0.1-1-0.2-1-0.9c0-1.4,0-2.9,0-4.3c0-0.6,0.2-0.8,0.8-0.8
			c4.8,0,9.7-0.1,14.5,0c2.3,0.1,4.3,0.9,5.6,3c1.3,2.1,1,6.2-2.2,7.1c-0.3,0.1-0.8,0-0.7,0.5c0.1,0.4,0.5,0.2,0.8,0.2
			c1.7-0.1,3.4,1.4,3.8,3.2c0.4,2.1,0.3,4.2-1.6,5.8c-1.5,1.2-3.2,1.9-5.1,2C13.4,60.2,10.9,60.1,8.4,60.1z M9.8,45.2
			c0,0.5,0,1.1,0,1.6c0,0.3,0.1,0.5,0.5,0.6c1.7,0.4,2.9-0.6,3-2.3c0.1-1.2-0.7-2.1-1.9-2.1c-1.9,0-1.6-0.2-1.6,1.7
			C9.8,44.9,9.8,45,9.8,45.2z M11.9,55.1c1,0,2-0.5,2.1-1.2c0.3-1.4-0.1-2.3-1.1-2.8c-0.6-0.3-1.2-0.1-1.8-0.1
			c-0.6-0.1-0.8,0.3-0.6,0.8c0.2,0.6,0.1,1.2,0.1,1.8C10.4,55.1,10.4,55.1,11.9,55.1z"/>
		<path class="st17" d="M133.6,24.9c0,1.5,0,2.7,0,3.9c0,0.7,0.3,1,0.9,1.2c0.6,0.2,0.9,0.5,0.8,1.3c-0.2,1.3-0.1,2.6,0,3.9
			c0,0.6-0.2,0.9-0.9,0.9c-2.1,0.1-4.1-0.2-5.5-2c-0.3-0.3-0.6-0.5-1-0.1c-1.3,1.3-2.9,1.9-4.7,2.2c-1.9,0.3-3.7,0.1-5.5-0.4
			c-2.2-0.6-4.4-2.9-4.6-5.4c-0.2-3.8,1.7-6.3,5.3-7.5c2-0.6,4-1.1,6.1-1.1c0.3,0,0.6,0,0.7-0.4c0.1-0.3,0-0.6-0.2-0.9
			c-0.8-1-1.8-1.2-2.9-1c-0.7,0.1-1.4,0.2-2.1,0.5c-0.5,0.2-0.9,0.5-1,1.1c-0.1,0.6-0.5,0.9-1.1,0.9c-1-0.1-2.1,0-3.1,0
			c-0.5,0-0.8-0.1-0.8-0.7c0-1.7,0-3.5,0-5.2c0-0.6,0.4-0.8,0.8-1c1.4-0.7,2.9-1.1,4.3-1.3c2.2-0.4,4.3-0.8,6.5-0.6
			c2.2,0.2,4.5,0.5,6.1,2.3c1.1,1.2,1.7,2.6,1.8,4.3C133.6,21.7,133.6,23.4,133.6,24.9z M125.3,28.4c-0.1-0.3,0.4-1.2-0.6-1.1
			c-0.8,0.1-1.6,0.4-2.3,0.8c-0.8,0.4-0.9,1.5-0.3,1.9c0.9,0.6,1.7,0.2,2.6-0.1C125.4,29.6,125.4,29.1,125.3,28.4z"/>
		<path class="st17" d="M87.4,43.2c0-0.8,0.1-1.5,0-2.3c-0.1-0.8,0.3-1.1,0.9-1.4c1.8-0.7,3.7-1.1,5.6-1.4c1.5-0.2,2.9-0.7,4.5-0.6
			c2.3,0.2,4.6,0.5,6.4,2c1.1,0.9,1.8,2.1,2,3.4c0.5,3.1,0.1,6.2,0.2,9.2c0,1,0.2,1.8,1.3,2.1c0.4,0.1,0.6,0.4,0.6,0.9
			c0,1.4-0.1,2.9,0,4.3c0,0.6-0.4,0.9-0.8,0.9c-2.2,0.1-4.2-0.3-5.7-2c-0.4-0.5-0.6-0.4-0.9-0.1c-1.6,1.7-3.7,2.3-6,2.3
			c-1.9,0-3.8,0.1-5.5-1c-2-1.3-3.4-2.9-3.4-5.4c0-1.6,0.2-3.1,1.3-4.4c1-1.1,2.2-1.9,3.7-2.5c2.1-0.8,4.2-1.3,6.5-1.3
			c0.8,0,0.7-0.4,0.5-0.9c-0.3-0.6-0.8-1.1-1.5-1.2c-1.3-0.1-2.5-0.1-3.7,0.5c-0.5,0.2-0.8,0.5-1,1.1c-0.1,0.6-0.5,0.9-1.1,0.8
			c-0.9-0.1-1.9,0-2.8,0c-0.8,0-1.2-0.2-1.1-1.1C87.4,44.8,87.4,44,87.4,43.2z M98.9,52.6c0-0.6,0.2-1.3-0.8-1.1
			c-0.7,0.2-1.4,0.5-2.1,0.7c-0.5,0.2-0.6,0.6-0.6,1.1c0,0.5,0.2,0.8,0.7,1C97.2,54.9,98.9,54,98.9,52.6z"/>
		<path class="st17" d="M36.3,13.5c3.3,0,6.1,0.7,8.4,2.8c1.8,1.7,2.8,3.8,3,6.3c0.1,1,0.5,1.9,0.4,2.9c-0.3,3.7-1.3,7-4.6,9.2
			c-1.4,1-3.1,1.5-4.8,1.7c-2.6,0.4-5.2,0.2-7.6-0.8c-3-1.2-4.8-3.5-5.7-6.6c-0.8-2.9-0.7-5.8,0.3-8.6c1.2-3.6,3.8-5.8,7.5-6.5
			C34.3,13.7,35.4,13.4,36.3,13.5z M38.8,25c0-0.8,0-1.4,0-2.1c-0.1-1-0.3-1.9-1.2-2.4c-1.2-0.7-2.6,0-3.1,1.4c-0.7,2-0.5,4-0.1,6
			c0.1,0.8,0.7,1.5,1.6,1.7c1.2,0.1,1.9-0.2,2.4-1.2C39,27.3,38.8,26.1,38.8,25z"/>
		<path class="st17" d="M82.3,13.5c2.5,0.2,5,0.5,7.1,2.1c2.1,1.6,3.4,3.6,3.8,6.2c0.1,0.9,0.3,1.9,0.5,2.8c0.3,1.1-0.3,2.3-0.4,3.4
			c-0.2,2.3-1.2,4.3-3.1,5.9c-1.5,1.3-3.2,2.2-5.2,2.5c-1.1,0.2-2.1,0.4-3.2,0.4c-2.4-0.2-4.7-0.5-6.7-1.9c-1.9-1.3-3.4-3-4-5.2
			c-0.6-2.6-0.7-5.2-0.1-7.9c1.1-4.8,5-7.5,9.2-7.9C80.9,13.6,81.6,13.5,82.3,13.5z M84.5,25.2c0-0.8,0-1.5,0-2.3
			c0-0.3-0.1-0.5-0.2-0.8c-0.2-1-1.1-1.8-2-1.9c-0.9,0-1.8,0.7-2.1,1.7c-0.6,2-0.5,4-0.1,6c0.2,0.9,0.6,1.6,1.6,1.7
			c1.3,0.2,1.9-0.2,2.5-1.3C84.7,27.3,84.5,26.2,84.5,25.2z"/>
		<path class="st17" d="M55.8,14.1c2,0,4.1,0,6.1,0c3.7,0,6.8,2.3,7.4,6.2c0.7,4.4-1.4,8-5.6,9.4c-1.4,0.5-3,0.6-4.5,0.6
			c-0.6,0-0.9,0-0.8,0.9c0.2,1.4,0.1,2.9,0.1,4.3c0,0.4-0.4,0.7-0.9,0.7c-2.9,0-5.8,0-8.7,0c-0.6,0-0.8-0.3-0.8-0.9
			c0-1.4,0-2.8,0-4.2c0-0.6,0.3-0.8,0.8-0.7c0.7,0.1,0.8-0.3,0.8-0.8c0-2.9,0-5.7,0-8.6c0-0.5,0.2-1.2-0.8-0.9
			c-0.5,0.2-0.6-0.4-0.7-0.7c0-1.6,0-3.1,0-4.7c0-0.6,0.5-0.6,0.9-0.6C51.3,14.1,53.5,14.1,55.8,14.1z M59.3,19.9
			c-0.9-0.3-1.1,0.2-1,1.2c0,0.9,0.2,1.8-0.1,2.7c-0.2,0.5,0.2,0.8,0.7,0.8c1.3,0.2,2.1-0.3,2.6-1.5C62.3,21.3,61.4,19.9,59.3,19.9z
			"/>
		<path class="st17" d="M72.5,38.3c2.2,0,4.4-0.1,6.6,0c2.7,0.1,5,1.2,6.2,3.8c0.9,1.9,1.2,4,0.6,6.1c-1,3.1-3.1,4.9-6.2,5.7
			c-1.3,0.4-2.7,0.6-4.1,0.5c-0.5,0-0.6,0.1-0.6,0.6c0.1,1.4-0.1,2.9,0.1,4.3c0.1,0.5-0.2,0.8-0.8,0.8c-3,0-6,0-9,0
			c-0.4,0-0.5-0.1-0.5-0.5c0-1.6,0-3.1,0-4.7c0-0.5,0.2-0.5,0.6-0.5c1,0.1,1.2-0.5,1.1-1.2c0-2.6,0-5.3,0-7.9c0-0.7-0.1-1.3-1-1.2
			c-0.5,0-0.7-0.3-0.7-0.7c0-1.5,0-2.9,0-4.4c0-0.6,0.3-0.7,0.8-0.7C67.9,38.3,70.2,38.3,72.5,38.3z M76,44.1
			c-0.3,0.3-1.1-0.5-1.1,0.5c0,1.1,0.2,2.3-0.2,3.4c-0.1,0.2,0,0.5,0.3,0.5c0.7,0.1,1.5,0.3,2.2-0.1c0.9-0.5,1.4-2,1.1-3.1
			C78,44.5,77.4,44.1,76,44.1z"/>
		<path class="st17" d="M33.4,38.3c2.8,0,5.6,0,8.4,0c0.7,0,0.9,0.2,0.9,0.9c0,1.9,0,3.8,0,5.6c0,0.9-0.2,0.8-1,0.7
			c-1.5-0.3-3-1-4.5-1c-0.8,0-1.5-0.2-2.3-0.3c-0.7-0.1-1,0.2-1,0.9c0,0.5,0,1.1,0,1.6c0,0.6,0.2,1,0.9,0.6c1.2-0.6,2.7-0.3,3.9-0.9
			c0.3-0.2,0.4,0.3,0.4,0.6c0,1.6,0,3.3,0,4.9c0,0.5-0.3,0.6-0.8,0.5c-1-0.3-2.1-0.2-3.1-0.7c-0.2-0.1-0.8-0.2-0.9,0.1
			c-0.2,0.7,0,1.4,0.5,1.9c0.2,0.2,0.6,0.4,1,0.4c2.2,0,4.4,0.1,6.4-1c0.4-0.2,0.7,0,0.7,0.4c0.1,1.6,0.2,3.3,0.4,4.9
			c0.1,0.9-0.2,1.3-1,1.6c-3.1,1-6.2,1.1-9.4,0.9c-1.9-0.1-3.7-0.8-5.1-2.3c-1-1.1-1.5-2.4-1.7-3.9c-0.4-3.1-0.1-6.2-0.2-9.4
			c0-0.6,0.1-1.3-1-1c-0.4,0.1-0.7-0.4-0.7-0.8c0-1.5,0-2.9,0-4.4c0-0.7,0.5-0.6,0.9-0.6C27.7,38.3,30.5,38.3,33.4,38.3z"/>
		<path class="st17" d="M53.8,38.3c3,0,6.1,0,9.1,0c0.7,0,1,0.2,1,0.9c-0.1,1.9,0,3.9,0,5.8c0,0.6-0.1,0.7-0.8,0.5
			c-1.4-0.5-2.8-1-4.3-1.1c-0.6,0-0.8,0.1-0.8,0.8c0,2.7,0,5.3,0,8c0,0.6,0.1,1.1,0.9,1c0.5,0,0.7,0.3,0.8,0.8c0.3,1.5,0,3,0,4.5
			c0,0.5-0.3,0.6-0.7,0.6c-3.5,0-7,0-10.5,0c-0.5,0-0.7-0.2-0.7-0.7c0-1.4,0-2.9,0-4.3c0-0.6,0.3-0.9,0.9-0.8
			c0.7,0.1,0.8-0.4,0.8-0.9c0-2.7,0-5.5,0-8.2c0-0.5-0.2-0.7-0.7-0.7c-0.6,0-1.3,0.1-1.8,0.3c-0.9,0.4-1.9,0.4-2.8,0.9
			c-0.5,0.3-0.7-0.2-0.7-0.5c0.3-1.9,0.1-3.9,0.1-5.8c0-0.9,0.3-1.1,1.1-1.1C47.8,38.3,50.8,38.3,53.8,38.3z"/>
		<path class="st17" d="M103.8,14.1c2.6,0,5.3,0,7.9,0c0.7,0,0.9,0.2,0.9,0.9c0,2,0,4,0,6c0,0.8-0.2,0.9-0.9,0.6
			c-1.9-0.7-3.9-1.1-5.9-1.3c-0.4,0-1,0-0.9,0.6c0.5,2.7,0.4,5.3,0.3,8c0,0.8,0,1.3,1,1.1c0.7-0.1,1.1,0.3,1.1,1.1
			c0,1.4,0,2.8,0,4.1c0,0.6-0.2,0.8-0.8,0.8c-3.6,0-7.2,0-10.8,0c-0.6,0-0.9-0.3-0.9-0.9c0-1.4,0-2.8,0-4.1c0-0.7,0.2-1,0.9-0.9
			c0.6,0.1,0.6-0.2,0.6-0.7c0-2.9,0-5.8,0-8.7c0-0.5-0.1-0.8-0.7-0.7c-0.7,0.1-0.9-0.3-0.9-0.9c0-1.4,0-2.8,0-4.1
			c0-0.7,0.2-0.9,0.9-0.9C98.5,14.1,101.1,14.1,103.8,14.1z"/>
		<path id="path-1_3_" class="st17" d="M118.3,0.5c27.5,17.7,31.1,35.8,26.4,47.6C177.8,23.6,124.7,2.7,118.3,0.5z M122,0
			c17.5,1.6,70.2,5.8,34.7,40.2C169.6,16,124.1-0.1,122,0z M103.9,63.6c53.1-9.4,64.3-27.8,68.2-39.3c3.9-11.3,12.2-6,16.9-7.9
			c-10.5,6-0.3,10.1-7.9,24.3C172.6,56.6,131,60.1,103.9,63.6z"/>
	</g>
</g>
<g id="Слой_2" class="st0">
</g>
</svg>
