<?xml version="1.0" encoding="utf-8"?>
<!-- Generator: Adobe Illustrator 22.0.1, SVG Export Plug-In . SVG Version: 6.00 Build 0)  -->
<svg version="1.1" xmlns="http://www.w3.org/2000/svg" xmlns:xlink="http://www.w3.org/1999/xlink" x="0px" y="0px"
	 viewBox="0 0 137.1 124.7" style="enable-background:new 0 0 137.1 124.7;" xml:space="preserve">
<style type="text/css">
	.st0{display:none;}
	.st1{fill:#FFFFFF;stroke:#000000;stroke-width:6;stroke-miterlimit:10;}
	.st2{clip-path:url(#XMLID_71_);}
	.st3{fill:#FFFFFF;stroke:#060606;stroke-width:4;stroke-miterlimit:10;}
	.st4{fill:#6ACE6A;stroke:#000000;stroke-width:4;stroke-miterlimit:10;}
	.st5{stroke:#060606;stroke-width:4;stroke-miterlimit:10;}
	.st6{fill:#FFFFFF;stroke:#060606;stroke-width:4;stroke-linecap:round;stroke-miterlimit:10;}
	.st7{fill:#060606;}
	.st8{clip-path:url(#XMLID_72_);fill:#010101;}
	.st9{clip-path:url(#XMLID_73_);fill:#010101;}
	.st10{clip-path:url(#XMLID_74_);}
	.st11{clip-path:url(#XMLID_75_);}
	.st12{clip-path:url(#XMLID_76_);}
	.st13{fill:#010101;}
	.st14{clip-path:url(#XMLID_77_);}
	.st15{clip-path:url(#XMLID_78_);}
	.st16{clip-path:url(#XMLID_79_);}
	.st17{fill:#FFFFFF;}
	.st18{fill:#6ACE6A;}
	.st19{fill:none;stroke:#000000;stroke-width:17;stroke-miterlimit:10;}
	.st20{fill:none;stroke:#000000;stroke-width:17;stroke-miterlimit:10;stroke-dasharray:34.0738,15.4881;}
	.st21{clip-path:url(#SVGID_2_);}
	.st22{fill:#FFFFFF;stroke:#000000;stroke-width:7;stroke-miterlimit:10;}
	.st23{fill:#FCFCFC;}
	.st24{clip-path:url(#XMLID_81_);fill:#010101;}
	.st25{clip-path:url(#XMLID_82_);fill:#010101;}
	.st26{fill:none;stroke:#FFFFFF;stroke-width:17;stroke-miterlimit:10;stroke-dasharray:33,15;}
	.st27{clip-path:url(#XMLID_83_);}
	.st28{fill:none;stroke:#000000;stroke-width:6;stroke-miterlimit:10;}
	.st29{clip-path:url(#XMLID_84_);}
	.st30{fill:#CD7779;}
	.st31{fill:#F4F2F9;}
	.st32{fill:#774F66;}
	.st33{clip-path:url(#XMLID_85_);}
	.st34{clip-path:url(#XMLID_85_);fill:#F4F2F9;}
	.st35{clip-path:url(#XMLID_85_);fill:none;stroke:#6ACE6A;stroke-width:2;stroke-miterlimit:10;}
	.st36{clip-path:url(#XMLID_85_);fill:#6ACE6A;}
	.st37{clip-path:url(#XMLID_86_);}
	.st38{fill:none;stroke:#C0BFC6;stroke-miterlimit:10;}
	.st39{clip-path:url(#SVGID_4_);}
	.st40{clip-path:url(#XMLID_88_);}
	.st41{clip-path:url(#XMLID_89_);fill:#FFFFFF;}
	.st42{clip-path:url(#XMLID_89_);fill:#131011;}
	.st43{clip-path:url(#XMLID_90_);}
	.st44{clip-path:url(#XMLID_91_);}
	.st45{clip-path:url(#XMLID_91_);fill:#6ACE6A;}
	.st46{clip-path:url(#XMLID_91_);fill:none;stroke:#FFFFFF;stroke-width:2;stroke-linejoin:round;stroke-miterlimit:10;}
	.st47{fill:#27262C;}
	.st48{fill:none;stroke:#565656;stroke-miterlimit:10;}
	.st49{fill:#2C2828;}
	.st50{clip-path:url(#XMLID_90_);fill:none;stroke:#000000;stroke-width:6;stroke-miterlimit:10;}
	.st51{clip-path:url(#XMLID_90_);fill:#131011;}
	.st52{clip-path:url(#XMLID_92_);}
	.st53{clip-path:url(#XMLID_93_);}
	.st54{clip-path:url(#XMLID_94_);fill:#060606;}
	.st55{clip-path:url(#XMLID_94_);}
	.st56{clip-path:url(#XMLID_94_);fill:#F4F2F9;}
	.st57{clip-path:url(#XMLID_94_);fill:#6ACE6A;}
	.st58{clip-path:url(#XMLID_95_);}
	.st59{clip-path:url(#XMLID_95_);fill:#F4F2F9;}
	.st60{clip-path:url(#XMLID_95_);fill:none;stroke:#6ACE6A;stroke-width:2;stroke-miterlimit:10;}
	.st61{clip-path:url(#XMLID_95_);fill:#6ACE6A;}
	.st62{clip-path:url(#XMLID_96_);}
	.st63{clip-path:url(#SVGID_6_);}
	.st64{clip-path:url(#XMLID_98_);}
	.st65{clip-path:url(#XMLID_99_);fill:#FFFFFF;}
	.st66{clip-path:url(#XMLID_99_);fill:#131011;}
	.st67{clip-path:url(#XMLID_100_);}
	.st68{clip-path:url(#XMLID_101_);}
	.st69{clip-path:url(#XMLID_101_);fill:#6ACE6A;}
	.st70{clip-path:url(#XMLID_101_);fill:none;stroke:#FFFFFF;stroke-width:2;stroke-linejoin:round;stroke-miterlimit:10;}
	.st71{clip-path:url(#XMLID_100_);fill:none;stroke:#000000;stroke-width:6;stroke-miterlimit:10;}
	.st72{clip-path:url(#XMLID_100_);fill:#131011;}
	.st73{fill:none;stroke:#010101;stroke-linecap:round;stroke-linejoin:round;stroke-miterlimit:10;}
	.st74{clip-path:url(#XMLID_102_);}
	.st75{fill:none;stroke:#010101;stroke-width:3;stroke-linejoin:round;stroke-miterlimit:10;}
	.st76{fill:#FFFFFF;stroke:#010101;stroke-width:3;stroke-linejoin:round;stroke-miterlimit:10;}
	.st77{fill:none;stroke:#010101;stroke-width:3;stroke-linecap:round;stroke-linejoin:round;stroke-miterlimit:10;}
	.st78{fill:none;stroke:#010101;stroke-width:2;stroke-linecap:round;stroke-linejoin:round;stroke-miterlimit:10;}
	.st79{clip-path:url(#XMLID_104_);}
	.st80{clip-path:url(#XMLID_106_);}
	.st81{clip-path:url(#XMLID_108_);}
	.st82{clip-path:url(#XMLID_110_);fill:#010101;}
	.st83{clip-path:url(#XMLID_111_);fill:#010101;}
	.st84{fill:none;stroke:#000000;stroke-width:17;stroke-miterlimit:10;stroke-dasharray:33,15;}
	.st85{fill:none;stroke:#010101;stroke-width:3;stroke-miterlimit:10;}
	.st86{fill:none;stroke:#FFFFFF;stroke-width:17;stroke-miterlimit:10;}
	.st87{fill:#010101;stroke:#010101;stroke-width:3;stroke-miterlimit:10;}
	.st88{stroke:#FFFFFF;stroke-width:3;stroke-miterlimit:10;}
	.st89{fill:none;stroke:#FFFFFF;stroke-width:3;stroke-miterlimit:10;}
	.st90{stroke:#FFFFFF;stroke-width:6;stroke-miterlimit:10;}
	.st91{stroke:#FFFFFF;stroke-width:14;stroke-miterlimit:10;}
	.st92{fill:#FFFFFF;stroke:#000000;stroke-width:14;stroke-miterlimit:10;}
	.st93{clip-path:url(#SVGID_20_);}
	.st94{display:inline;opacity:0.4;}
	.st95{fill:#FF2727;}
	.st96{display:inline;}
</style>
<g id="Слой_1" class="st0">
</g>
<g id="Слой_3">
	<g>
		<path class="st13" d="M137.1,2.9c0-2.2-0.7-2.9-2.9-2.9C90.8,0,47.5,0.1,4.1,0.1c-0.3,0-1.9,0-2,0c-1.1,0-2,1-2.1,2.2
			c0,0.3,0,0.6,0,0.8c0,28.6,0,67.6,0,96.2c0,2.2,0.7,2.9,2.9,2.9c21.6,0,43.1,0,64.7,0c0.4,0,0.7,0,1.2,0c-1.7,2.9-3.3,5.7-5,8.5
			c-0.5,0.9-0.8,1.8-0.2,2.7c0.6,0.9,1.5,1,2.5,0.9c3.7-0.5,7.3-0.9,11-1.4c1-0.1,1.6,0,2.1,0.9c1.8,2.7,3.8,5.4,5.7,8
			c1.5,2.1,3.1,2,4.4-0.3c3.1-5.5,6.3-11.1,9.4-16.6c0.4,0.2,0.5,0.5,0.7,0.7c4.6,5.9,9.2,11.8,13.7,17.7c0.6,0.8,1.3,1.4,2.4,1.2
			c1.1-0.2,1.5-1,1.8-2c0.9-3.6,1.9-7.3,2.8-10.9c0.2-0.8,0.6-1.2,1.4-1.3c3.4-0.8,6.8-1.6,10.2-2.5c1.9-0.5,2.4-2.1,1.3-3.7
			c-0.5-0.6-1-1.2-1.5-2c1.1,0,1.9,0,2.7,0c2.2,0,2.9-0.7,2.9-2.9C137.1,67.2,137.1,35,137.1,2.9z M87,117.2
			c-1.8-2.5-3.6-4.9-5.3-7.4c-0.8-1.1-1.6-1.6-3-1.3c-2.6,0.4-5.3,0.7-7.9,1c-0.4,0-0.7,0.1-1.3,0.1c3.4-5.8,6.7-11.4,10-17.2
			c4,5.6,9.2,8.8,15.8,9.9C92.5,107.3,89.8,112.2,87,117.2z M127.7,88.2c0,1-3.7,1.4-4.7,1.2c-0.8-0.1-1.6,0.1-2.3-0.8
			c-0.6-0.8-0.7-1.4-0.4-2.4c4.1-13.5-5.3-27.6-19.4-29c-12.5-1.2-23.5,7.6-24.9,20.1c-0.4,3.3,0,6.5,1.1,9.6
			c0.5,1.3-0.3,2.5-1.7,2.5c-19.8,0-44.8,0-64.6,0c-0.9,0-1.2-0.2-1.2-1.2c0-24.8,0-53.9,0-78.6c0-0.9,0.2-1.1,1.1-1.1
			c17.9,0,41.1,0,59,0c17.9,0,39.2,0,57.1,0c0.9,0,1.2,0.2,1.2,1.2C127.6,34.5,127.6,63.6,127.7,88.2z M98.5,98.2
			C88.4,98.2,80.1,90,80,79.9C80,69.8,88.2,61.5,98.4,61.5c10.2-0.1,18.4,8.1,18.5,18.3C116.9,89.9,108.6,98.2,98.5,98.2z
			 M119,106.6c-1.3,0.3-2.1,1-2.4,2.4c-0.7,2.9-1.5,5.7-2.3,8.8c-4.1-5.3-8-10.4-12.1-15.6c6.7-1.3,11.8-4.7,15.5-10.4
			c3.4,4.2,6.7,8.4,10.1,12.6C124.8,105.2,121.9,105.9,119,106.6z"/>
		<g>
			<path class="st18" d="M116.9,79.8c0,10.1-8.2,18.4-18.4,18.4C88.4,98.2,80.1,90,80,79.9C80,69.8,88.2,61.5,98.4,61.5
				C108.6,61.4,116.8,69.6,116.9,79.8z"/>
		</g>
		<g>
			<path class="st18" d="M95.4,102.3c-2.8,5-5.6,9.9-8.4,14.9c-1.8-2.5-3.6-4.9-5.3-7.4c-0.8-1.1-1.6-1.6-3-1.3
				c-2.6,0.4-5.3,0.7-7.9,1c-0.4,0-0.7,0.1-1.3,0.1c3.4-5.8,6.7-11.4,10-17.2C83.5,98,88.7,101.2,95.4,102.3z"/>
		</g>
		<g>
			<path class="st18" d="M127.8,104.4c-3,0.7-5.9,1.5-8.9,2.2c-1.3,0.3-2.1,1-2.4,2.4c-0.7,2.9-1.5,5.7-2.3,8.8
				c-4.1-5.3-8-10.4-12.1-15.6c6.7-1.3,11.8-4.7,15.5-10.4C121.1,96,124.4,100.2,127.8,104.4z"/>
		</g>
		<path class="st13" d="M58.1,28c-10.3,0-20.6,0-30.9,0c-1.5,0-2.4-0.7-2.6-1.9c-0.1-1.1,0.6-2.1,1.7-2.3c0.4-0.1,0.8-0.1,1.2-0.1
			c20.3,0,40.6,0,61,0c1.9,0,3,0.7,3,2.1c0,1.4-1,2.2-2.9,2.2C78.5,28,68.3,28,58.1,28z"/>
		<path class="st13" d="M48.9,45.8c-7.1,0-14.2,0-21.3,0c-0.4,0-0.8,0-1.1,0c-1.1-0.1-1.8-1-1.8-2.1c0-1.1,0.7-2,1.8-2.1
			c0.3,0,0.7,0,1,0c14.3,0,28.5,0,42.8,0c0.3,0,0.6,0,0.9,0c1.1,0.1,1.9,1.1,1.9,2.1c0,1-0.8,1.9-1.9,2c-0.4,0-0.8,0-1.1,0
			C63.1,45.8,56,45.8,48.9,45.8z"/>
		<path class="st13" d="M48.8,68.7c7.1,0,14.3,0,21.4,0c0.3,0,0.7,0,1,0c1,0.1,1.8,1,1.9,2c0,1.1-0.8,2-1.9,2.1c-0.2,0-0.3,0-0.5,0
			c-14.5,0-29.1,0-43.6,0c-1.1,0-1.9-0.4-2.3-1.4c-0.5-1.3,0.4-2.7,1.8-2.8c0.8-0.1,1.5,0,2.3,0C35.5,68.7,42.2,68.7,48.8,68.7z"/>
	</g>
</g>
<g id="Слой_2" class="st0">
</g>
</svg>
