<?xml version="1.0" encoding="utf-8"?>
<!-- Generator: Adobe Illustrator 22.0.1, SVG Export Plug-In . SVG Version: 6.00 Build 0)  -->
<svg version="1.1" xmlns="http://www.w3.org/2000/svg" xmlns:xlink="http://www.w3.org/1999/xlink" x="0px" y="0px"
	 viewBox="0 0 117.8 160.3" style="enable-background:new 0 0 117.8 160.3;" xml:space="preserve">
<style type="text/css">
	.st0{display:none;}
	.st1{fill:#FFFFFF;stroke:#000000;stroke-width:6;stroke-miterlimit:10;}
	.st2{clip-path:url(#XMLID_71_);}
	.st3{fill:#FFFFFF;stroke:#060606;stroke-width:4;stroke-miterlimit:10;}
	.st4{fill:#6ACE6A;stroke:#000000;stroke-width:4;stroke-miterlimit:10;}
	.st5{stroke:#060606;stroke-width:4;stroke-miterlimit:10;}
	.st6{fill:#FFFFFF;stroke:#060606;stroke-width:4;stroke-linecap:round;stroke-miterlimit:10;}
	.st7{fill:#060606;}
	.st8{clip-path:url(#XMLID_72_);fill:#010101;}
	.st9{clip-path:url(#XMLID_73_);fill:#010101;}
	.st10{clip-path:url(#XMLID_74_);}
	.st11{clip-path:url(#XMLID_75_);}
	.st12{clip-path:url(#XMLID_76_);}
	.st13{fill:#010101;}
	.st14{clip-path:url(#XMLID_77_);}
	.st15{clip-path:url(#XMLID_78_);}
	.st16{clip-path:url(#XMLID_79_);}
	.st17{fill:#FFFFFF;}
	.st18{fill:#6ACE6A;}
	.st19{fill:none;stroke:#000000;stroke-width:17;stroke-miterlimit:10;}
	.st20{fill:none;stroke:#000000;stroke-width:17;stroke-miterlimit:10;stroke-dasharray:34.0738,15.4881;}
	.st21{clip-path:url(#SVGID_2_);}
	.st22{fill:#FFFFFF;stroke:#000000;stroke-width:7;stroke-miterlimit:10;}
	.st23{fill:#FCFCFC;}
	.st24{clip-path:url(#XMLID_81_);fill:#010101;}
	.st25{clip-path:url(#XMLID_82_);fill:#010101;}
	.st26{fill:none;stroke:#FFFFFF;stroke-width:17;stroke-miterlimit:10;stroke-dasharray:33,15;}
	.st27{clip-path:url(#XMLID_83_);}
	.st28{fill:none;stroke:#000000;stroke-width:6;stroke-miterlimit:10;}
	.st29{clip-path:url(#XMLID_84_);}
	.st30{fill:#CD7779;}
	.st31{fill:#F4F2F9;}
	.st32{fill:#774F66;}
	.st33{clip-path:url(#XMLID_85_);}
	.st34{clip-path:url(#XMLID_85_);fill:#F4F2F9;}
	.st35{clip-path:url(#XMLID_85_);fill:none;stroke:#6ACE6A;stroke-width:2;stroke-miterlimit:10;}
	.st36{clip-path:url(#XMLID_85_);fill:#6ACE6A;}
	.st37{clip-path:url(#XMLID_86_);}
	.st38{fill:none;stroke:#C0BFC6;stroke-miterlimit:10;}
	.st39{clip-path:url(#SVGID_4_);}
	.st40{clip-path:url(#XMLID_88_);}
	.st41{clip-path:url(#XMLID_89_);fill:#FFFFFF;}
	.st42{clip-path:url(#XMLID_89_);fill:#131011;}
	.st43{clip-path:url(#XMLID_90_);}
	.st44{clip-path:url(#XMLID_91_);}
	.st45{clip-path:url(#XMLID_91_);fill:#6ACE6A;}
	.st46{clip-path:url(#XMLID_91_);fill:none;stroke:#FFFFFF;stroke-width:2;stroke-linejoin:round;stroke-miterlimit:10;}
	.st47{fill:#27262C;}
	.st48{fill:none;stroke:#565656;stroke-miterlimit:10;}
	.st49{fill:#2C2828;}
	.st50{clip-path:url(#XMLID_90_);fill:none;stroke:#000000;stroke-width:6;stroke-miterlimit:10;}
	.st51{clip-path:url(#XMLID_90_);fill:#131011;}
	.st52{clip-path:url(#XMLID_92_);}
	.st53{clip-path:url(#XMLID_93_);}
	.st54{clip-path:url(#XMLID_94_);fill:#060606;}
	.st55{clip-path:url(#XMLID_94_);}
	.st56{clip-path:url(#XMLID_94_);fill:#F4F2F9;}
	.st57{clip-path:url(#XMLID_94_);fill:#6ACE6A;}
	.st58{clip-path:url(#XMLID_95_);}
	.st59{clip-path:url(#XMLID_95_);fill:#F4F2F9;}
	.st60{clip-path:url(#XMLID_95_);fill:none;stroke:#6ACE6A;stroke-width:2;stroke-miterlimit:10;}
	.st61{clip-path:url(#XMLID_95_);fill:#6ACE6A;}
	.st62{clip-path:url(#XMLID_96_);}
	.st63{clip-path:url(#SVGID_6_);}
	.st64{clip-path:url(#XMLID_98_);}
	.st65{clip-path:url(#XMLID_99_);fill:#FFFFFF;}
	.st66{clip-path:url(#XMLID_99_);fill:#131011;}
	.st67{clip-path:url(#XMLID_100_);}
	.st68{clip-path:url(#XMLID_101_);}
	.st69{clip-path:url(#XMLID_101_);fill:#6ACE6A;}
	.st70{clip-path:url(#XMLID_101_);fill:none;stroke:#FFFFFF;stroke-width:2;stroke-linejoin:round;stroke-miterlimit:10;}
	.st71{clip-path:url(#XMLID_100_);fill:none;stroke:#000000;stroke-width:6;stroke-miterlimit:10;}
	.st72{clip-path:url(#XMLID_100_);fill:#131011;}
	.st73{fill:none;stroke:#010101;stroke-linecap:round;stroke-linejoin:round;stroke-miterlimit:10;}
	.st74{clip-path:url(#XMLID_102_);}
	.st75{fill:none;stroke:#010101;stroke-width:3;stroke-linejoin:round;stroke-miterlimit:10;}
	.st76{fill:#FFFFFF;stroke:#010101;stroke-width:3;stroke-linejoin:round;stroke-miterlimit:10;}
	.st77{fill:none;stroke:#010101;stroke-width:3;stroke-linecap:round;stroke-linejoin:round;stroke-miterlimit:10;}
	.st78{fill:none;stroke:#010101;stroke-width:2;stroke-linecap:round;stroke-linejoin:round;stroke-miterlimit:10;}
	.st79{clip-path:url(#XMLID_104_);}
	.st80{clip-path:url(#XMLID_106_);}
	.st81{clip-path:url(#XMLID_108_);}
	.st82{clip-path:url(#XMLID_110_);fill:#010101;}
	.st83{clip-path:url(#XMLID_111_);fill:#010101;}
	.st84{fill:none;stroke:#000000;stroke-width:17;stroke-miterlimit:10;stroke-dasharray:33,15;}
	.st85{fill:none;stroke:#010101;stroke-width:3;stroke-miterlimit:10;}
	.st86{fill:none;stroke:#FFFFFF;stroke-width:17;stroke-miterlimit:10;}
	.st87{fill:#010101;stroke:#010101;stroke-width:3;stroke-miterlimit:10;}
	.st88{stroke:#FFFFFF;stroke-width:3;stroke-miterlimit:10;}
	.st89{fill:none;stroke:#FFFFFF;stroke-width:3;stroke-miterlimit:10;}
	.st90{stroke:#FFFFFF;stroke-width:6;stroke-miterlimit:10;}
	.st91{stroke:#FFFFFF;stroke-width:14;stroke-miterlimit:10;}
	.st92{fill:#FFFFFF;stroke:#000000;stroke-width:14;stroke-miterlimit:10;}
	.st93{clip-path:url(#SVGID_20_);}
	.st94{display:inline;opacity:0.4;}
	.st95{fill:#FF2727;}
	.st96{display:inline;}
</style>
<g id="Слой_1" class="st0">
</g>
<g id="Слой_3">
	<g>
		<path class="st22" d="M95,156.8c0.5-2.3,0.8-4.7,0.8-7.1c0-20.5-19.3-37.1-43.2-37.1S9.5,129.2,9.5,149.7c0,2.4,0.3,4.8,0.8,7.1
			H95z"/>
		<g>
			<path class="st18" d="M22.1,160.1c2.3-14.8,15.1-26,30.5-26c15.4,0,28.2,11.3,30.5,26h8.6c-2.4-19.5-19-34.5-39.1-34.5
				c-20.1,0-36.7,15.1-39.1,34.5H22.1z"/>
		</g>
		<circle class="st22" cx="52.7" cy="78.7" r="39.1"/>
		<ellipse cx="9.7" cy="87.2" rx="6.4" ry="5"/>
		<ellipse cx="95.8" cy="87.2" rx="6.4" ry="5"/>
		<ellipse class="st22" cx="24.1" cy="145.1" rx="9.6" ry="7.4"/>
		<ellipse class="st22" cx="79.8" cy="145.1" rx="9.6" ry="7.4"/>
		<g id="XRZbl3.tif_2_">
			<g>
				<path class="st13" d="M117.8,39.6c0,0.1,0,0.2,0,0.2c-3.8,1.2-7.5,2.8-11.3,4.2c-0.6,0.2-0.5,0.6-0.6,1
					c-0.5,3.2-0.9,6.4-1.4,9.7c-0.1,0.5,0,0.9,0.4,1.3c1.4,1.3,1.3,3.4-0.2,4.6c-1.3,1.1-3.5,0.8-4.4-0.5c-1.1-1.6-0.7-3.7,1-4.6
					c0.6-0.3,0.7-0.7,0.8-1.2c0.3-2.1,0.6-4.3,0.9-6.4c0.1-0.8,0.2-1.6,0.4-2.6c-3.7,1.6-7.2,3.1-10.6,4.6c-0.4,0.2-0.5,0.4-0.6,0.8
					c-0.4,2.7-1,5.4-1.1,8.2c0,1.8-1,2.5-2.3,3c-1.7,0.7-3.6,1-5.4,1.2c-7.1,0.8-14.2,0.5-21.3-0.3c-10.4-1.1-20.6-2.8-30.6-6
					c-3.3-1.1-6.6-2.2-9.5-4.2c-1.4-1-2.4-2-1.8-4.1c0.7-2.4,0.7-5,1.1-7.5c0.1-0.7,0-1.2-0.6-1.6c-5.7-4.4-11.3-8.9-17-13.4
					c-1.2-1-2.4-2-3.7-2.9c0-0.1,0-0.2,0-0.2c0.4,0.1,0.7-0.1,1-0.3C21.4,15,41.8,7.6,62.2,0.2c0.9-0.3,1.5-0.2,2.3,0.3
					C82,13.4,99.5,26.2,117,39C117.3,39.2,117.4,39.6,117.8,39.6z M55.3,59c8.2,1,16.6,2.1,25.2,1.7c1.9-0.1,3.9-0.1,5.7-0.8
					c1.2-0.5,1.3-1.2,0.3-2c-0.7-0.6-1.6-1-2.4-1.3c-4.8-2-9.9-3.2-15.1-4.3C58,50,46.8,48.5,35.4,48.2c-3.2-0.1-6.3-0.1-9.5,0.6
					c-0.8,0.2-1.8,0.3-1.9,1.2c-0.1,0.9,0.8,1.3,1.4,1.6c2.2,1.2,4.7,2,7.1,2.7C39.9,56.5,47.4,57.8,55.3,59z M92.5,43
					c0.9-1.8,0-3-1-4.2c-3.4-3.7-7.7-6.2-12.3-8.1c-6.1-2.6-12.4-4-18.9-5c-7.9-1.2-15.8-1.6-23.8-0.2c-4.2,0.7-8.2,2-11.7,4.4
					c-1.2,0.8-1.4,1.8-1.4,3.2c0.6-0.4,1.2-0.8,1.8-1.1c4.8-2.6,10-3.6,15.4-3.9c11.9-0.6,23.6,1.1,34.9,4.6
					C81.9,34.9,87.9,37.7,92.5,43z"/>
				<path class="st13" d="M55.3,59c-7.8-1.2-15.3-2.5-22.6-4.6c-2.5-0.7-4.9-1.5-7.1-2.7c-0.6-0.4-1.6-0.7-1.4-1.6
					c0.1-1,1.1-1.1,1.9-1.2c3.1-0.6,6.3-0.7,9.5-0.6C46.8,48.5,58,50,69.1,52.3c5.1,1,10.2,2.2,15.1,4.3c0.9,0.4,1.7,0.7,2.4,1.3
					c0.9,0.8,0.8,1.5-0.3,2c-1.8,0.7-3.8,0.8-5.7,0.8C71.9,61,63.4,60,55.3,59z"/>
				<path class="st23" d="M92.5,43c-4.6-5.3-10.6-8.2-17-10.2c-11.4-3.5-23-5.2-34.9-4.6c-5.4,0.3-10.6,1.2-15.4,3.9
					c-0.6,0.3-1.1,0.7-1.8,1.1c-0.1-1.4,0.2-2.4,1.4-3.2c3.6-2.4,7.5-3.7,11.7-4.4c7.9-1.4,15.9-0.9,23.8,0.2
					c6.5,0.9,12.9,2.4,18.9,5c4.6,1.9,8.9,4.4,12.3,8.1C92.5,40,93.3,41.3,92.5,43z"/>
				<path class="st13" d="M99.8,61.5c1.8,1.3,3.7,1,5.5,0.8c-0.7,4.6-1.3,9.1-2,13.7c-1.4-0.8-2.7-0.7-4,0c-1.2,0.6-2.1,1.6-3.3,2.6
					C97.4,72.8,98.6,67.3,99.8,61.5z"/>
			</g>
		</g>
	</g>
</g>
<g id="Слой_2" class="st0">
</g>
</svg>
